<?xml version="1.0" encoding="UTF-8"?>
<svg id="Layer_2" data-name="Layer 2" xmlns="http://www.w3.org/2000/svg" viewBox="0 0 151.6 166.66">
  <defs>
    <style>
      .cls-1 {
        fill: #fff;
      }
    </style>
  </defs>
  <g id="Layer_1-2" data-name="Layer 1">
    <g>
      <path class="cls-1" d="M106.51,0c.86,.83,1.75,1.62,1.89,2.93,.2,1.79-1.12,3.43-3.12,3.67-3.12,.37-6.24,.63-9.17,1.95-5.14,2.33-8.98,5.94-11.45,11.04-.5,1.03-.32,1.49,.7,1.97,7.04,3.35,11.31,8.9,12.89,16.52,.84,4.08,.53,8.1-.97,11.98-.44,1.15-.18,1.57,.95,1.98,14.36,5.21,26.76,13.52,37.65,24.11,6.27,6.1,11.46,13.04,14.15,21.54,2.37,7.48,2.35,14.82-2.26,21.5-5.49,7.96-13.29,10.75-22.69,9.23-6.68-1.08-12.5-4.15-17.91-8.09-1.45-1.06-1.44-1.06-1.93,.72-2.36,8.67-5.47,17.03-10.12,24.75-3.05,5.06-6.64,9.76-12.09,12.41-2.45,1.19-4.27,2.11-3.99,5.35,.17,1.91-1.53,3.09-3.29,3.09-1.76,0-3.47-1.2-3.29-3.1,.31-3.26-1.54-4.15-3.99-5.34-5.4-2.62-8.99-7.25-12.01-12.27-4.64-7.71-7.87-16.04-10.17-24.73-.51-1.92-.52-1.92-2.12-.77-6.03,4.33-12.53,7.55-20.04,8.29C11.24,130.01,.61,120.43,.03,108.07c-.35-7.34,2.12-13.88,5.95-19.93,7.67-12.1,18.52-20.81,30.6-28.15,5.34-3.24,10.9-6.05,16.85-8.01,1.03-.34,1.17-.79,.83-1.78-4.01-11.59,.87-23.35,11.88-28.64,1.03-.49,1.2-.95,.68-1.96-3.88-7.6-9.97-11.93-18.52-12.72-.65-.06-1.29-.19-1.93-.24-1.58-.13-2.63-.93-3.11-2.44-.47-1.48,.08-2.64,1.17-3.63C44.65,.39,44.83,.19,45.02,0c1.84,0,3.69,0,5.53,0,.15,.06,.3,.15,.45,.17,10.81,1.96,18.42,7.95,22.74,18.06,.42,.99,1.06,1.19,2.02,1.2,.97,0,1.61-.21,2.01-1.21,1.88-4.73,4.82-8.68,8.78-11.9,4.23-3.44,9.13-5.33,14.42-6.32h5.53ZM23.9,121.92c2.73-.05,6.87-1.4,10.78-3.52,6.97-3.77,12.63-9.13,17.69-15.11,7.65-9.04,13.99-18.89,17.97-30.12,1.25-3.54,2.13-7.17,1.92-10.97-.19-3.41-1.83-5.16-5.16-5.56-3.65-.44-7.14,.34-10.51,1.55-16.53,5.94-30.54,15.56-41.67,29.18-4.22,5.17-7.31,10.97-7.98,17.83-.91,9.27,5.79,16.72,16.96,16.73Zm105.68,.04c.66-.06,1.59-.06,2.49-.22,9.03-1.64,14.15-9.56,12.23-18.91-1.58-7.71-5.86-13.93-11.08-19.54-7.82-8.42-17.04-15.05-27.19-20.36-6.02-3.15-12.22-5.93-19.13-6.37-4.81-.3-7.66,1.1-7.66,6.73,0,3.69,.94,7.19,2.19,10.6,3.88,10.61,9.87,19.99,17.04,28.63,5.01,6.03,10.61,11.45,17.46,15.4,4.14,2.39,8.55,3.93,13.65,4.04ZM86.42,49.7c.7,0,1.42-.07,2.11,.02,1.09,.13,1.68-.29,2.09-1.31,4.18-10.35-3.05-22.16-15.06-22.19-10.97-.02-18.57,11.17-14.95,21.49,.53,1.52,1.25,2.13,2.93,2,4.19-.33,8.24,.12,11.58,3.09,.52,.47,.99,.22,1.44-.15,2.87-2.37,6.22-3.15,9.86-2.96Zm-10.72,67.53c-7.26,0-14.52,.02-21.77-.02-1.16,0-1.52,.2-1.17,1.47,1.09,3.97,2.35,7.88,3.75,11.75,.42,1.14,1.02,1.57,2.26,1.56,11.32-.04,22.64-.04,33.96,0,1.21,0,1.86-.36,2.28-1.52,1.34-3.72,2.61-7.46,3.6-11.29,.49-1.88,.45-1.95-1.46-1.95-7.15,0-14.3,0-21.45,0Zm-20.39-6.89h40.89c-3.5-3.89-6.53-7.77-9.37-11.81-.46-.66-1.05-.83-1.81-.83-6.18,.02-12.36,.01-18.54,0-.68,0-1.27,.1-1.7,.71-2.9,4.05-5.91,8.02-9.47,11.92Zm20.53,28.36c-4.6,0-9.21,0-13.81,0-.05,0-.11,0-.16,0-.79,0-1.72-.1-.98,1.18,2.34,4.05,4.86,7.95,8.6,10.9,4.19,3.32,8.4,3.32,12.58-.01,3.63-2.89,6.13-6.67,8.43-10.62,.66-1.13,.49-1.47-.84-1.46-4.6,.04-9.21,.02-13.81,.02Zm-.07-59.87c-1.84,3.86-3.69,7.64-5.77,11.29-.39,.68,0,.85,.62,.85,3.41,0,6.82,0,10.23,0,.69,0,1.1-.14,.65-.93-2.06-3.61-3.93-7.33-5.72-11.22Z"/>
      <path class="cls-1" d="M29.24,88.63c-.97-.01-2.04-.75-2.59-2.14-.62-1.57-.05-2.91,1.12-3.95,1.83-1.61,3.69-3.19,5.63-4.67,6.27-4.78,12.91-8.97,20.18-12.08,.74-.32,1.51-.64,2.3-.77,1.62-.27,3.08,.61,3.65,2.07,.58,1.47,.09,3.08-1.28,4.01-.53,.36-1.13,.64-1.72,.9-8.64,3.73-16.35,8.92-23.47,15.02-1.47,1.26-2.1,1.6-3.82,1.6Z"/>
      <path class="cls-1" d="M20.39,97.69c-1.8-.03-3.32-1.54-3.33-3.33-.01-1.85,1.58-3.4,3.46-3.37,1.81,.03,3.32,1.54,3.33,3.33,.01,1.85-1.57,3.39-3.45,3.37Z"/>
      <path class="cls-1" d="M121.78,88.65c-1.39,.07-2.33-.75-3.28-1.58-6.31-5.52-13.22-10.14-20.78-13.77-1.27-.61-2.59-1.11-3.86-1.72-2.02-.97-2.8-2.7-2.08-4.49,.76-1.87,2.65-2.66,4.74-1.8,10.11,4.16,19.14,10.06,27.28,17.33,1.1,.99,1.68,2.29,1.07,3.81-.56,1.38-1.59,2.15-3.1,2.21Z"/>
      <path class="cls-1" d="M131.12,97.69c-1.88,.03-3.47-1.53-3.45-3.37,.02-1.79,1.53-3.3,3.34-3.32,1.89-.03,3.47,1.52,3.45,3.37-.02,1.79-1.52,3.3-3.33,3.32Z"/>
    </g>
  </g>
</svg>