<?xml version="1.0" encoding="UTF-8"?>
<svg id="Layer_2" data-name="Layer 2" xmlns="http://www.w3.org/2000/svg" viewBox="0 0 119.81 141.32">
  <defs>
    <style>
      .cls-1 {
        fill: #fff;
      }
    </style>
  </defs>
  <g id="Layer_1-2" data-name="Layer 1">
    <g>
      <g>
        <path class="cls-1" d="M64.18,0c6.4,12.21,.31,27.67-13.19,31.89-6.44-11.78-.49-27.73,13.19-31.89Z"/>
        <path class="cls-1" d="M53.43,32.6c1.1-.6,2.25-1.14,3.32-1.81,6.09-3.85,9.75-9.35,11.07-16.42,.06-.3,.1-.49,.45-.56,4.19-.9,8.32-.67,12.38,.73,.07,.02,.14,.06,.2,.09-1.94,12.84-15.31,21.21-27.41,17.98Z"/>
      </g>
      <g>
        <path class="cls-1" d="M1.23,87.45V48.36c0-4.21,2.35-6.64,6.23-6.64H25.44c11.82,0,18.21,4.77,18.21,13.35,0,5.91-3.32,9.47-9.39,11.17,7.77,1.78,11.33,6.64,11.33,12.95,0,10.12-6.39,14.89-21.13,14.89H7.47c-3.88,0-6.23-2.43-6.23-6.64m21.37-23.71c5.5,0,8.74-2.51,8.74-6.72s-2.92-6.39-8.74-6.39H13.05v13.11h9.55Zm.65,21.45c7.12,0,10.11-2.1,10.11-7.12,0-4.61-3.23-6.72-10.03-6.72H13.05v13.84h10.2Z"/>
        <path class="cls-1" d="M50.8,88.66V46.5c0-3.64,1.78-5.42,5.1-5.42h1.61c3.48,0,5.26,1.78,5.26,5.42v42.17c0,3.56-1.78,5.42-5.26,5.42h-1.61c-3.32,0-5.1-1.86-5.1-5.42"/>
        <path class="cls-1" d="M67.28,67.63c0-15.51,11.02-26.54,26.3-26.54s26.22,10.95,26.22,26.46-10.87,26.54-26.3,26.54-26.22-10.87-26.22-26.46m41.03,0c0-9.61-6.06-16.3-14.8-16.3s-14.65,6.45-14.65,16.22,5.98,16.22,14.73,16.22,14.72-6.53,14.72-16.14"/>
        <g>
          <path class="cls-1" d="M0,122.96c0-5.43,1.64-9.88,4.93-13.36,3.29-3.48,7.52-5.22,12.69-5.22,4.86,0,8.65,1.37,11.39,4.1,1.3,1.3,1.96,2.38,1.96,3.26,0,.49-.14,.86-.41,1.11-.27,.25-.54,.42-.8,.49-.26,.07-.43,.07-.5,0-.96-1.91-2.48-3.49-4.58-4.73-2.09-1.24-4.47-1.86-7.12-1.86-4.33,0-7.87,1.51-10.6,4.54-2.74,3.03-4.1,6.89-4.1,11.58s1.29,8.58,3.89,11.58c2.59,2.99,6.08,4.49,10.47,4.49,3.52,0,6.46-1.02,8.83-3.07,2.36-2.05,3.69-4.64,3.98-7.78v-2.43h-11.06c-1.03,0-1.55-.37-1.57-1.11v-.16c0-.81,.52-1.22,1.57-1.22h11.47c.6,0,1.08,.19,1.46,.58,.38,.39,.57,.9,.57,1.53v15.39c0,.18-.28,.27-.84,.27-1.05,0-1.58-.9-1.6-2.71v-4.44c-.99,2.33-2.64,4.16-4.96,5.5-2.31,1.34-5.04,2.02-8.18,2.02-5.1,0-9.19-1.71-12.27-5.14-3.08-3.43-4.62-7.84-4.62-13.23Z"/>
          <path class="cls-1" d="M39.6,126.83v-20.77c0-.85,.38-1.27,1.13-1.27h.39c.75,0,1.13,.42,1.13,1.27v20.61c0,8.13,3.66,12.19,10.97,12.17,7.28,0,10.92-4.08,10.94-12.23v-20.56c0-.85,.38-1.27,1.14-1.27h.48c.69,0,1.03,.42,1.03,1.27v20.67c0,4.8-1.16,8.43-3.48,10.9-2.32,2.47-5.73,3.71-10.22,3.71s-7.81-1.23-10.09-3.68c-2.28-2.45-3.42-6.06-3.42-10.82Z"/>
          <path class="cls-1" d="M75.66,139.67v-33.62c0-.85,.38-1.27,1.13-1.27h.39c.75,0,1.13,.42,1.13,1.27v33.62c0,.85-.38,1.27-1.13,1.27h-.39c-.75,0-1.13-.42-1.13-1.27Z"/>
          <path class="cls-1" d="M84.13,140.11l13.63-34.38c.25-.67,.93-1,2.04-1s1.81,.33,2.1,1l13.58,34.38c.07,.18-.11,.39-.54,.62-.27,.14-.56,.22-.87,.22-.18,0-.38-.03-.59-.08-.56-.13-.97-.54-1.22-1.24l-4.49-11.25h-16.01l-4.49,11.25c-.29,.7-.7,1.12-1.24,1.24-.18,.05-.35,.08-.51,.08-.31,0-.6-.08-.87-.24-.38-.25-.55-.45-.51-.59Zm8.52-14.17h14.23l-7.09-18.12-7.14,18.12Z"/>
        </g>
      </g>
    </g>
  </g>
</svg>