<?xml version="1.0" encoding="UTF-8"?>
<svg id="Layer_2" data-name="Layer 2" xmlns="http://www.w3.org/2000/svg" viewBox="0 0 166.78 166.71">
  <defs>
    <style>
      .cls-1 {
        fill: #fff;
      }
    </style>
  </defs>
  <g id="Layer_1-2" data-name="Layer 1">
    <g>
      <path class="cls-1" d="M96.18,166.71c-4.51-.89-9.01-1.78-13.29-3.61-7.21-3.09-13.38-7.55-18.32-13.65-.98-1.21-1.66-1.33-3.05-.56-14.99,8.32-34.56,5.95-47.28-5.55-7.76-7.02-12.43-15.68-13.72-26.02-1.42-11.4,1.52-21.71,8.58-30.79,.9-1.15,.88-1.84,.04-3.02C-1.15,68.99-2.7,53.52,4.23,37.17c.78-1.83,2.24-2.77,3.73-2.55,1.52,.22,2.74,1.37,2.97,2.83,.19,1.19-.32,2.25-.78,3.27-2.24,4.92-3.25,10.14-3.25,15.48,0,6.48,1.48,12.67,4.63,18.41,1.41,2.58,3.1,4.95,5,7.2,2.35,2.78,2.31,4.09-.16,6.74-4.64,4.97-7.51,10.81-8.77,17.48-3.48,18.4,9.18,37,27.59,40.32,9.23,1.67,17.89,.08,25.8-5.11,3.17-2.08,4.54-1.79,6.79,1.28,7.16,9.78,16.74,15.68,28.75,17.16,16.35,2.02,32.43-5.76,40.94-20.64,1.98-3.46,3.49-7.12,4.24-11.03,.46-2.41,1.76-3.73,4.06-4.52,6.28-2.15,10.48-6.52,12.93-12.64,3.31-8.3,.44-18.74-6.66-24.18-.39-.3-.78-.58-1.17-.88-2.47-1.88-2.79-3.63-.85-6.07,3.75-4.74,6.5-9.95,8.27-15.73,5.24-17.08-1.22-36.97-15.48-47.74-7.53-5.69-15.9-8.95-25.37-9.27-16.28-.55-29.06,6-38.65,19.04-.26,.35-.48,.72-.74,1.07-1.69,2.3-3.62,2.63-5.81,.76-3.2-2.72-6.53-5.2-10.39-6.9-10.77-4.73-21.54-4.69-32.29,.05-.69,.31-1.37,.67-2.07,.94-2.2,.87-4.06,.3-4.88-1.46-.84-1.81-.15-3.6,1.93-4.71,3.9-2.08,8.03-3.53,12.38-4.34,13.17-2.45,25.17,.35,36.01,8.17,.97,.7,1.47,.8,2.33-.25C86.8,5.33,101.77-1.25,119.81,.2c23.47,1.88,42.03,19.32,46.28,41.98,.24,1.27,.46,2.55,.69,3.83v10.74c-.04,.1-.1,.2-.11,.31-1.07,8.71-3.99,16.71-9.05,23.91-.54,.77-.3,1.24,.29,1.79,1.48,1.36,2.81,2.86,3.97,4.5,2.64,3.75,4.11,7.96,4.9,12.44v7.48c-.09,.37-.18,.73-.26,1.1-1.97,9.54-7.27,16.55-16.07,20.74-1.6,.76-2.31,1.77-2.8,3.38-4.4,14.3-13.55,24.42-27.16,30.56-4.43,2-9.13,3-13.9,3.76h-10.41Z"/>
      <path class="cls-1" d="M97.91,99.51c-12.71,0-22.98-10.26-22.96-22.93,.02-12.64,10.35-22.84,23.04-22.88,11.45-.04,22.79,9.05,22.89,23.05,.09,12.53-10.39,22.77-22.97,22.76Zm-16.01-22.85c.01,8.74,7.2,16.03,15.87,16.09,8.78,.06,16.2-7.33,16.2-16.14,0-8.8-7.23-15.97-16.09-15.96-8.91,0-16,7.1-15.99,16.01Z"/>
      <path class="cls-1" d="M51.63,99.47c-12.04,0-21.99-9.25-22.84-21.21-.84-11.86,7.66-22.51,19.41-24.26,7.39-1.1,13.83,.96,19.3,6.02,1.79,1.66,1.87,3.64,.38,5.15-1.36,1.37-3.03,1.44-4.82-.01-2.21-1.8-4.49-3.44-7.32-4.06-6.48-1.41-12.15,.17-16.39,5.33-4.18,5.09-4.87,10.95-2.14,16.94,2.75,6.06,7.82,9.02,14.33,9.29,3.46,.14,6.74-.93,9.57-3.06,.65-.49,1.25-1.04,1.9-1.53,1.87-1.43,3.77-1.34,5.07,.2,1.27,1.52,1.1,3.32-.57,4.91-4.17,3.98-9.12,6.14-14.92,6.29-.33,0-.65,0-.98,0Z"/>
      <path class="cls-1" d="M133.36,106.32c.61,.03,1.09,.05,1.57,.09,1.84,.16,3.19,1.5,3.26,3.23,.07,1.64-1.16,3.31-2.9,3.37-3.84,.14-7.69,.13-11.54,0-1.39-.05-2.32-1.1-2.68-2.49-.39-1.49,.19-2.67,1.3-3.6,2.35-1.94,4.61-3.95,6.47-6.37,1.06-1.38,2.06-2.83,2.33-4.59,.15-.97,.43-2.17-1.07-2.46-1.43-.27-2.11,.46-2.35,1.8-.26,1.48-.96,2.67-2.52,3.08-2.39,.64-4.54-1.31-4.31-3.87,.45-5.11,4.92-8.58,10.19-7.9,4.75,.61,7.88,5.19,6.98,10.17-.54,2.96-2.01,5.47-3.73,7.86-.34,.47-.85,.84-1.01,1.67Z"/>
      <path class="cls-1" d="M149.31,49.88c0,.49,.02,.98,0,1.46-.08,1.96-1.36,3.37-3.16,3.5-1.75,.12-3.27-1.19-3.54-3.11-.24-1.77-.31-3.57-.66-5.31-1.63-8.1-6.03-14.26-13.17-18.44-.56-.33-1.14-.64-1.67-1.01-1.75-1.21-2.22-2.98-1.27-4.65,.92-1.62,2.77-2.13,4.65-1.21,3.93,1.94,7.33,4.59,10.3,7.82,5.02,5.45,8.44,13.81,8.52,20.96Z"/>
      <path class="cls-1" d="M40.61,136.23c-10.94-.16-21.3-9.58-22.6-20.56-.12-1.02-.29-2.05-.27-3.07,.03-2.17,1.36-3.66,3.24-3.8,1.75-.12,3.29,1.2,3.57,3.28,.23,1.66,.31,3.33,.77,4.96,1.82,6.48,7.88,11.58,14.54,12.21,.75,.07,1.51,.17,2.26,.27,1.96,.27,3.16,1.66,3.07,3.53-.09,1.84-1.44,3.09-3.44,3.17-.38,.02-.76,0-1.14,0Z"/>
      <path class="cls-1" d="M18.53,27.05c-.02,1.87-1.55,3.41-3.39,3.42-1.89,.01-3.36-1.49-3.34-3.41,.02-1.86,1.58-3.45,3.38-3.45,1.86,0,3.37,1.56,3.35,3.44Z"/>
      <path class="cls-1" d="M115.35,24.3c-1.79-.04-3.31-1.57-3.3-3.32,.01-1.87,1.55-3.39,3.41-3.37,1.9,.02,3.39,1.52,3.35,3.4-.03,1.88-1.57,3.33-3.47,3.29Z"/>
    </g>
  </g>
</svg>