<?xml version="1.0" encoding="UTF-8"?>
<svg id="Layer_2" data-name="Layer 2" xmlns="http://www.w3.org/2000/svg" viewBox="0 0 136.45 136.49">
  <defs>
    <style>
      .cls-1 {
        fill: #fff;
      }
    </style>
  </defs>
  <g id="Layer_1-2" data-name="Layer 1">
    <g>
      <path class="cls-1" d="M11.88,99.46c-1.1,0-2.08-.09-3.01-.29-1.31-.28-2.18-.83-2.58-1.66-.4-.82-.31-1.84,.26-3.04,.74-1.53,1.86-2.76,2.95-3.96l.1-.11c3.1-3.39,6.96-6.51,11.78-9.52-2.1-.02-4.19-.23-6.15-.46-3.75-.44-6.75-1.04-9.46-1.87-1.58-.48-3.23-1.05-4.62-2.2-1.38-1.15-1.55-2.62-.46-4.02,.96-1.24,2.25-2.02,3.48-2.7,3.21-1.79,6.62-2.97,9.24-3.79,1.9-.6,4.11-1.26,6.42-1.7-1.13-.42-2.14-.87-3.03-1.29-3.31-1.55-7.61-3.71-11.44-6.72-1.06-.83-1.85-1.61-2.48-2.45-.46-.6-.74-1.16-.89-1.75-.21-.84,0-1.6,.61-2.27,.61-.67,1.39-1.02,2.07-1.27,1.63-.6,3.34-.81,4.82-.97,1.42-.15,2.96-.22,4.68-.22,.77,0,1.53,.01,2.3,.04,2.3,.07,4.94,.2,7.68,.64-1.53-1.3-2.87-2.68-4.04-3.92-2.29-2.41-4.91-5.36-7-8.86-.62-1.04-1.28-2.29-1.53-3.75-.28-1.67,.44-2.82,2.05-3.26,.54-.15,1.1-.22,1.73-.22,.81,0,1.61,.12,2.48,.26,.9,.15,1.78,.38,2.64,.61,.41,.11,.82,.22,1.23,.32,4.12,.99,7.86,2.69,12.19,4.93-1.7-3.03-3.19-6.45-4.63-10.65-.91-2.65-1.41-4.75-1.62-6.78-.09-.85-.13-1.96,.26-3.07,.39-1.09,1.31-1.75,2.44-1.75,.13,0,.26,0,.39,.03,1.91,.24,3.51,1.17,4.99,2.11,3.01,1.91,5.62,4.21,7.55,6,1.26,1.16,2.81,2.65,4.34,4.41-.1-.61-.18-1.2-.24-1.8l-.05-.54c-.11-1.1-.22-2.2-.29-3.29-.14-1.98-.17-4.15-.09-6.64,.06-1.96,.22-4.27,.88-6.58,.18-.62,.49-1.54,1.11-2.33,.56-.71,1.23-1.07,2-1.07,.33,0,.68,.07,1.04,.2,.92,.34,1.64,.95,2.23,1.51,.97,.93,1.86,1.98,2.73,3.24,2.86,4.13,5.18,8.48,6.92,12.96,.36-1.95,.87-3.78,1.38-5.5,1.1-3.73,2.24-6.71,3.58-9.37,.73-1.45,1.43-2.55,2.2-3.46,.31-.37,.66-.69,1.03-.97,.59-.44,1.19-.66,1.78-.66,.77,0,1.51,.38,2.12,1.1,.97,1.13,1.51,2.49,1.94,3.67,.21,.59,.38,1.19,.54,1.77,.12,.45,.24,.89,.39,1.33,1.06,3.22,1.4,6.58,1.73,9.83l.03,.27c.12,1.17,.22,2.27,.23,3.35,1.14-1.93,2.45-3.72,3.64-5.29,2.13-2.81,4-4.96,5.91-6.75,1.04-.98,2.28-2.09,3.81-2.83,.19-.09,.38-.18,.57-.25,.47-.17,.91-.26,1.31-.26,.83,0,1.95,.36,2.56,2.07,.28,.78,.43,1.62,.47,2.64,.17,3.67-.4,7.19-1.31,11.36-.53,2.45-1.17,5.07-2.19,7.6-1.26,3.11-3.61,4.95-6.99,5.45-.24,.04-.43,.06-.58,.06-.8,0-1.03-.55-1.26-1.09-.58-1.36-.81-2.72-.71-4.09-1.76,1.65-3.69,2.49-5.76,2.49-1.25,0-2.56-.31-3.9-.93-2.4-1.11-3.92-2.95-4.54-5.5-.43,.94-1.03,1.79-1.78,2.54-1.36,1.35-3,2.14-4.88,2.37-.36,.04-.73,.07-1.1,.07-2.78,0-5.23-1.27-6.9-3.54-.32,3.18-1.93,5.48-4.8,6.85-1.25,.6-2.5,.9-3.73,.9-1.6,0-3.19-.52-4.73-1.54,.11,.42,.19,.83,.24,1.26,.12,1.06,.01,2.15-.34,3.42-.19,.7-.8,.75-1.1,.78-.31,.03-.61,.04-.9,.04-1.23,0-2.41-.25-3.5-.73,.03,.08,.07,.15,.1,.23,.57,1.43,.77,2.89,.59,4.34-.09,.72-.65,.89-.87,.96-.82,.25-1.66,.37-2.47,.37-.77,0-1.54-.11-2.3-.33,1.97,2.75,2.2,5.79,.63,8.9-1.35,2.67-3.63,4.22-6.64,4.54,2.47,1.76,3.69,4.27,3.53,7.32-.17,3.32-1.82,5.8-4.8,7.27,3.45,1,5.56,3.37,6.14,6.93,.47,2.88-.36,5.34-2.45,7.35,.21-.02,.41-.04,.62-.04h.24c1.41,0,2.75,.33,3.99,.98,.59,.31,.54,.91,.52,1.11-.35,3.66-2.23,6.19-5.59,7.53-2.76,1.1-5.66,1.78-8.16,2.33-2.52,.56-4.85,.93-7.13,1.13-.93,.08-1.69,.12-2.41,.12Zm.6-9.81c-.23,0-.29,.02-.34,.08-1.18,1.15-2.4,2.34-3.4,3.68-.56,.76-1.08,1.51-1.31,2.39-.24,.92,.01,1.44,.88,1.82,.46,.2,.98,.33,1.67,.41,.6,.07,1.22,.1,1.89,.1h0c1.27,0,2.55-.12,3.75-.25,.32-.03,.5-.14,.72-.42,1.32-1.71,2.81-3.42,4.55-5.22,1.04-1.08,2.17-2.21,3.42-3.3-2.78,.46-5.38,.61-7.61,.69-.59,.02-1.18,.03-1.78,.03-.44,0-2.42-.01-2.42-.01l-.02-.5v.5Zm18.1-2.12c-1.64,0-3.21,.6-4.67,1.79-2.35,1.91-4.39,4.11-6.24,6.2-.55,.62-1.12,1.28-1.7,2,4.07-.68,7.64-1.59,10.89-2.78,2.88-1.05,4.56-3.14,4.99-6.19,.04-.29,0-.31-.2-.39-1.05-.43-2.09-.64-3.07-.64Zm-3.96-7.06c-1.25,0-2.54,.37-3.82,1.09-2.82,1.59-5.33,3.51-7.41,5.18-.58,.47-1.19,.96-1.78,1.48h.24c1.32,0,2.69,0,4.03-.09,2.43-.14,4.81-.31,7.17-.8,2.97-.61,4.85-2.32,5.76-5.23,.07-.21,.06-.24-.12-.35-1.35-.85-2.72-1.28-4.08-1.28Zm.86-1.24c1.31,.14,2.52,.55,3.6,1.21,.03-1.49-.35-2.85-1.11-4.07-.62,1.16-1.44,2.1-2.49,2.86Zm-16.5-.77c4.16,.76,7.45,1.11,10.58,1.11h0c.29,0,.59,0,.88,0,2.98-.07,5.2-1.48,6.57-4.21,.04-.07,.04-.11,.05-.12,0,0-.02-.03-.08-.08-1.52-1.43-3.21-2.16-5.02-2.16-.81,0-1.65,.14-2.52,.42-2.7,.88-5.26,2.19-7.88,3.58-.85,.45-1.71,.94-2.6,1.47Zm-2.73-9.35s-.01,0-.03,0c-1.73,.75-3.55,1.59-5.18,2.79-.56,.41-1.13,.88-1.5,1.52-.34,.59-.31,1.05,.12,1.57,.41,.51,1,.85,1.57,1.15,1.8,.93,3.76,1.44,5.61,1.88,.06,.02,.12,.02,.17,.02,.07,0,.16-.01,.3-.1,2.3-1.44,4.77-2.78,7.36-3.99,.95-.44,2.02-.93,3.18-1.39-.17-.04-.35-.07-.54-.11-3.55-.76-7.17-1.86-10.77-3.27-.13-.05-.22-.09-.27-.09Zm1.82-.73c4.01,1.51,7.49,2.48,10.89,3.06,.52,.09,1.03,.13,1.51,.13,2.32,0,4.29-1.02,5.84-3.04,.15-.19,.14-.23,0-.4-1.59-2.02-3.49-3.01-5.82-3.01-.47,0-.96,.04-1.46,.12-3.3,.54-6.5,1.56-9.19,2.48-.6,.21-1.19,.43-1.78,.65Zm16.09-3.72c1.14,.55,2.12,1.33,2.95,2.36,.54-1.39,.66-2.77,.36-4.2-.96,.86-2.07,1.48-3.31,1.84Zm-14.89-6.17c.77,.44,1.53,.88,2.31,1.3,2.85,1.51,5.27,2.69,7.85,3.51,.85,.27,1.67,.41,2.46,.41,1.82,0,3.51-.73,5.03-2.17,.07-.07,.09-.1,.09-.1-1.36-2.76-3.53-4.18-6.46-4.3-.38-.02-.75-.02-1.12-.02-2.54,0-5.05,.33-7.83,.72-.91,.13-1.79,.28-2.69,.46l.35,.2Zm.17-9.93l-.32,.03c-1.46,.12-2.97,.24-4.42,.57-.95,.22-1.95,.48-2.77,1.05-.74,.52-.88,1.07-.49,1.89,.24,.5,.59,.97,1.12,1.53,1.39,1.45,3.03,2.57,4.6,3.6,.06,.04,.1,.05,.14,.05,.03,0,.07,0,.12-.02,2.8-.6,5.67-1.03,8.51-1.26l.5-.04c.91-.08,1.84-.16,2.8-.18-.5-.3-1.01-.62-1.56-.99-2.88-1.91-5.43-3.87-7.8-5.97-.22-.2-.3-.26-.39-.26v-.5l-.02,.5Zm2.5,.31c.71,.59,1.42,1.18,2.15,1.75,2.31,1.78,4.59,3.49,7.1,4.75,1.11,.55,2.22,.84,3.32,.84,1.39,0,2.79-.46,4.16-1.36,.09-.06,.11-.09,.12-.1,0,0,0-.04-.03-.13-.87-2.84-2.73-4.59-5.52-5.19-3.32-.72-6.76-.85-9.69-.88-.37,0-.75,0-1.12,0h-.9s.41,.34,.41,.34Zm15.95,1.65c.88,.91,1.54,1.99,1.98,3.24,1-1.15,1.58-2.41,1.77-3.84-1.07,.42-2.09,.62-3.12,.62-.21,0-.42,0-.63-.03Zm-12.14-11.19c2.48,3.01,4.99,5.6,7.63,7.88,1.57,1.36,3.25,2.04,5,2.04h0c.92,0,1.88-.19,2.86-.56,.26-.1,.42-.17,.45-.21,.02-.06-.03-.39-.04-.51l-.02-.11c-.54-2.79-2.11-4.68-4.67-5.68-2.7-1.05-5.54-1.72-8.2-2.28-1.09-.23-2.07-.41-3.01-.55Zm5.9-8.41c2.12,3.73,4.13,6.68,6.29,9.25,1.57,1.87,3.47,2.82,5.65,2.82h0c.56,0,1.16-.06,1.76-.19,.09-.02,.37-.08,.43-.12,0-.04,0-.33,0-.43,.04-2.9-1.16-5.11-3.56-6.56-3.54-2.15-7.31-3.61-10.54-4.76-.02,0-.03-.01-.05-.02Zm-8.39-1.74c-.62,0-1.12,.08-1.58,.25-.56,.21-.81,.56-.84,1.16-.03,.54,.09,1.1,.37,1.8,.8,1.98,2.06,3.74,3.27,5.37,.03,.04,.08,.08,.29,.11,1.97,.25,4.05,.65,6.55,1.25,1.61,.38,3.3,.82,5.03,1.42-2.34-2.9-4.47-6.13-6.5-9.85-.11-.21-.21-.29-.4-.35-1.49-.45-3.25-.92-5.06-1.1-.38-.04-.76-.07-1.14-.07Zm15.52-5.44c1.24,3.53,2.66,6.73,4.32,9.76,.91,1.66,1.92,2.76,3.19,3.44,1.12,.6,2.29,.91,3.49,.91,.28,0,.56-.02,.85-.05,.11-.44,.24-.97,.26-1.5,.13-2.56-.8-4.63-2.86-6.32-2.08-1.72-4.43-3.35-7.39-5.14-.6-.36-1.22-.74-1.87-1.09Zm8.27-5.83c.71,4.14,1.57,7.57,2.72,10.76,1.08,3.03,3.13,4.71,6.27,5.14,.05,0,.1,.01,.15,.01h0c.09,0,.11,0,.18-.16,1.16-2.74,.83-5.3-.99-7.63-1.65-2.12-3.61-3.96-5.48-5.67-1.05-.96-1.96-1.75-2.85-2.45Zm58.2-.06c-3.23,2.66-5.78,5.14-7.97,7.72-2.13,2.52-2.54,5.17-1.25,8.12,.03,.07,.05,.09,.05,.09,2.92-.3,4.98-1.76,6.16-4.37,.72-1.59,1.17-3.32,1.61-5l.03-.13c.58-2.24,1.03-4.36,1.36-6.44Zm-46.96,12.13c.1,1.31-.08,2.53-.52,3.69-.01,.03-.02,.06-.03,.09,.03,0,.06,0,.09-.01,1.41-.22,2.64-.8,3.74-1.78-1.25-.42-2.34-1.08-3.27-1.98Zm26.24,.16c1.11,.62,2.33,.94,3.61,.94,.07,0,.15,0,.23,0-.66-1.09-1.07-2.29-1.22-3.56,0-.01,0-.02,0-.03-.76,1.04-1.7,1.88-2.86,2.51,.08,.05,.16,.1,.25,.14ZM48.2,13.81c.02,1.42,.06,3.09,.16,4.73,.1,1.74,.27,4.02,.7,6.28,.58,3.14,2.33,5.12,5.35,6.03,.04,.01,.14,.04,.18,.04,1.67-2.56,1.84-5.14,.49-7.71-1.53-2.91-3.52-5.49-5.61-8.08-.43-.53-.83-1.03-1.26-1.51,0,.07,0,.15,0,.22Zm39.88-.21c-2.15,2.51-4.73,5.77-6.73,9.42-1.4,2.56-1.29,5.15,.33,7.69,.1,.16,.14,.16,.16,.16h0s.08,0,.18-.04c2.75-.86,4.47-2.69,5.13-5.43,.48-2.01,.64-4.06,.78-6.34,.05-.9,.09-1.8,.13-2.7l.05-1.23c.02-.5,0-1.01-.03-1.53Zm-25.46,15.92c.51,.11,1.02,.16,1.51,.16h0c.91,0,1.8-.18,2.7-.54-1.03-.82-1.82-1.81-2.39-2.96-.34,1.23-.95,2.33-1.82,3.33Zm15.69-18.54c-.57,.96-1.12,1.93-1.62,2.9-1.47,2.82-2.66,5.19-3.46,7.82-.81,2.67-.22,5.12,1.74,7.26,.09,.09,.14,.13,.16,.13,.01,0,.06,0,.16-.06,2.66-1.37,4.06-3.55,4.16-6.49,.1-3.02-.29-6.06-.7-8.91-.14-.98-.29-1.84-.45-2.66Zm-20.31-.02c-.44,2.28-.75,4.59-.93,6.88l-.06,.68c-.13,1.51-.26,3.07-.08,4.59,.31,2.73,1.67,4.66,4.17,5.91,.09,.05,.13,.05,.14,.05,0,0,.04-.02,.11-.09,2.04-2.17,2.62-4.66,1.73-7.41-1.13-3.5-2.93-6.81-4.52-9.64l-.12-.21c-.14-.25-.28-.5-.43-.75Zm-27.56,2.1c-.67,0-1.46,.23-1.51,2.05-.07,2.25,.54,4.38,1.13,6.45,.07,.26,.19,.4,.45,.54,3.27,1.76,6.38,3.76,9.24,5.94,.2,.15,.39,.31,.6,.47-1.18-3.37-2.06-7.07-2.74-11.53-.03-.23-.1-.31-.2-.38-.28-.19-.56-.39-.84-.59-.36-.26-.72-.51-1.08-.75-1.3-.85-2.6-1.65-4.05-2.04-.37-.1-.7-.15-.99-.15Zm37.63-2.98c-1.47,3.93-2.43,7.34-3.03,10.68-.56,3.17,.36,5.64,2.84,7.55,.15,.11,.21,.12,.23,.12,.02,0,.09-.01,.25-.13,2.46-1.93,3.37-4.41,2.79-7.57-.61-3.3-1.59-6.7-3.08-10.65Zm27.98-2.84c-.17,0-.35,.03-.54,.08-.46,.12-.91,.33-1.43,.66-1.74,1.09-3.19,2.58-4.47,3.89-.18,.19-.25,.36-.24,.63,.03,1.99,.05,4.29-.1,6.57-.05,.69-.11,1.38-.18,2.07l-.06,.67c-.08,.81-.17,1.62-.28,2.41,2.45-2.79,5.27-5.45,8.59-8.11,.13-.1,.2-.16,.22-.18l.02-.17c.2-1.92,.4-3.9,.16-5.84-.08-.66-.23-1.23-.44-1.72-.27-.64-.68-.94-1.24-.94ZM50.96,3.34c-.25,0-.64,.08-1.11,.74-.28,.41-.5,.89-.71,1.56-.58,1.91-.75,3.94-.87,5.86,0,.13,.02,.23,.17,.41,.64,.73,1.28,1.45,1.89,2.21,1.68,2.08,3.57,4.51,5.23,7.25,0-.2,0-.41,0-.61,.02-1.12,.09-2.32,.24-3.78,.29-2.84,.64-5.2,1.12-7.4,.03-.13,.02-.25-.1-.44-.72-1.09-1.52-2.25-2.45-3.3-.86-.98-1.6-1.76-2.59-2.26-.32-.16-.6-.24-.84-.24Zm22.85-2.04c-.28,0-.59,.12-.9,.34-.34,.24-.65,.53-.92,.86-1.33,1.62-2.19,3.46-3.1,5.52-.08,.19-.08,.34,.01,.58,1.63,4.2,2.74,7.85,3.42,11.3,0,0,0,0,0,0,1.36-3.5,3.08-6.94,5.27-10.51,.16-.26,.17-.39,.14-.53-.38-1.6-.88-3.47-1.69-5.2-.39-.83-.76-1.41-1.21-1.86-.33-.33-.67-.5-1.01-.5Z"/>
      <path class="cls-1" d="M87.84,110.39c1,4.74,1.15,9.47,1.01,14.21-.07,2.48-.27,4.97-1.21,7.31-.92,2.27-2.41,2.68-4.37,1.22-1.39-1.04-2.45-2.4-3.44-3.8-2.94-4.21-5.3-8.74-7.14-13.54-.17-.43-.28-.88-.41-1.28-.43,3.39-1.4,6.68-2.49,9.94-.96,2.88-2.07,5.7-3.63,8.31-.57,.95-1.2,1.86-2.08,2.57-1.18,.96-2.33,.89-3.35-.25-.84-.94-1.32-2.08-1.75-3.24-.51-1.37-.97-2.76-1.2-4.2-.43-2.72-.98-5.42-1.23-8.16-.17-1.92-.36-3.83-.26-5.76,.18-3.27,1.81-5.6,4.74-7.03,.38-.19,.65-.12,.93,.16,1.26,1.25,2.06,2.73,2.36,4.48,.03,.2,.07,.39,.11,.63,1.18-3.45,3.48-5.56,7.09-5.88,3.62-.32,6.24,1.39,8.03,4.59-.03-3.66,1.37-6.48,4.71-8.01,3.35-1.53,6.4-.79,9.11,1.64-1.4-3.64-.94-6.94,2.04-9.55,2.75-2.4,5.89-2.56,9.2-.98-2.85-2.94-3.66-6.27-1.75-9.93,1.61-3.09,4.38-4.35,7.84-4.22-3.2-1.74-4.98-4.34-4.66-8.05,.33-3.7,2.5-5.98,6.01-7.15-.93-.12-1.79-.3-2.61-.66-1.05-.45-1.94-1.11-2.74-1.92-.21-.22-.23-.42-.11-.69,1.33-2.9,3.56-4.56,6.74-4.87,2.23-.22,4.45,.06,6.66,.28,2.62,.26,5.21,.67,7.77,1.26,1.81,.42,3.6,.91,5.3,1.69,.82,.38,1.6,.83,2.22,1.5,.76,.82,.85,1.73,.26,2.68-.5,.79-1.2,1.37-1.96,1.89-2.11,1.44-4.43,2.45-6.8,3.35-3.5,1.33-7.06,2.42-10.74,3.12-.47,.09-.94,.15-1.57,.24,1.31,.39,2.45,.82,3.56,1.32,4.27,1.9,8.4,4.06,12.15,6.88,1.12,.84,2.18,1.75,3,2.89,.48,.67,.89,1.39,.73,2.27-.19,1-.96,1.48-1.79,1.87-1.26,.59-2.62,.84-3.99,1.03-2.34,.31-4.69,.43-7.05,.36-3.51-.1-7.01-.25-10.46-1.01-.03,0-.06,0-.15,.03,.6,.51,1.2,.97,1.75,1.49,4.04,3.75,7.79,7.76,10.65,12.53,.58,.96,1.07,1.97,1.3,3.09,.39,1.92-.52,3.07-2.48,3.17-2.05,.11-4-.39-5.97-.85-4.75-1.12-9.14-3.11-13.41-5.4-.43-.23-.84-.5-1.31-.78,1.84,2.93,3.22,6.03,4.45,9.19,1.12,2.87,2.11,5.78,2.57,8.84,.17,1.14,.27,2.29-.04,3.44-.34,1.25-1.25,1.84-2.53,1.67-1.55-.21-2.88-.95-4.18-1.74-2.54-1.55-4.83-3.44-7.03-5.43-2.12-1.92-4.17-3.9-5.96-6.13-.15-.18-.29-.37-.48-.61Zm18.63-15.37c.19,.21,.39,.42,.57,.64,2.72,3.24,4.98,6.79,7.01,10.49,.18,.32,.4,.51,.74,.6,1,.28,2,.58,3.02,.78,1.37,.26,2.73,.51,4.14,.34,1.57-.19,2.24-1.04,1.99-2.59-.08-.51-.24-.99-.44-1.47-.81-1.92-2.01-3.61-3.24-5.27-.14-.19-.31-.24-.53-.27-2.39-.36-4.76-.81-7.1-1.41-2.08-.53-4.14-1.11-6.17-1.85Zm-26.2,18.18c-.03,.09-.05,.12-.05,.14,.2,1.73,0,3.46-.13,5.17-.23,2.77-.61,5.53-1.19,8.26-.05,.23-.13,.46,.03,.69,1.18,1.8,2.41,3.56,4.02,5.01,.51,.46,1.06,.88,1.74,1.09,.82,.25,1.44,.08,1.98-.58,.43-.51,.69-1.11,.9-1.74,.64-1.93,.8-3.95,.97-5.96,.04-.48-.13-.82-.44-1.16-2.02-2.26-3.87-4.66-5.56-7.17-.81-1.2-1.61-2.42-2.26-3.77Zm34.11-48.95c1.03,0,2.02,.23,3,.45,3.52,.79,6.96,1.86,10.32,3.18,.26,.1,.5,.18,.78,.06,1.77-.75,3.51-1.58,5.08-2.7,.72-.51,1.4-1.07,1.84-1.87,.4-.74,.32-1.41-.23-2.04-.45-.52-1-.9-1.6-1.21-1.8-.94-3.75-1.49-5.71-1.97-.41-.1-.73-.03-1.08,.18-1.59,1-3.23,1.91-4.9,2.75-2.42,1.22-4.86,2.39-7.5,3.17Zm-1.03,16.1c.38,.21,.76,.41,1.12,.62,3.51,2.09,6.74,4.56,9.8,7.25,.23,.2,.46,.31,.77,.3,1.91-.09,3.8-.29,5.65-.8,.76-.21,1.5-.49,2.14-.96,.8-.59,1.02-1.31,.67-2.24-.23-.59-.6-1.09-1.02-1.56-1.44-1.6-3.18-2.83-4.97-3.99-.24-.15-.47-.14-.74-.08-4.36,.86-8.74,1.45-13.2,1.39-.07,0-.16-.04-.23,.07Zm-18.39,26.13c.01,.13,0,.17,.02,.2,1.61,4.18,2.57,8.51,3.24,12.93,.05,.33,.18,.58,.47,.79,.87,.64,1.75,1.25,2.66,1.82,1.26,.77,2.55,1.5,4.03,1.76,1.27,.23,2.08-.31,2.39-1.56,.13-.52,.13-1.05,.12-1.58-.04-2.17-.63-4.24-1.24-6.3-.07-.25-.27-.34-.47-.45-1.95-1.04-3.84-2.19-5.68-3.42-1.91-1.27-3.76-2.61-5.53-4.2Zm-30.77,8.28c-.21,.6-.37,1.1-.56,1.59-1.45,3.71-3.25,7.25-5.33,10.65-.16,.25-.27,.49-.19,.81,.38,1.58,.81,3.14,1.44,4.63,.4,.95,.85,1.87,1.59,2.61,.74,.73,1.51,.82,2.39,.28,.4-.24,.74-.55,1.05-.91,1.46-1.72,2.4-3.74,3.3-5.78,.14-.32,.12-.59,0-.91-1.63-4.17-2.95-8.42-3.69-12.97Zm59.99-26.17c-1.13-1.05-2.24-1.97-3.38-2.84-2.36-1.82-4.73-3.64-7.41-4.98-2.71-1.36-5.35-1.11-7.89,.51-.39,.25-.45,.5-.32,.91,.96,3.04,3,4.89,6.11,5.54,2.03,.42,4.08,.58,6.15,.72,2.21,.15,4.41,.19,6.75,.14Zm-4.5,9.37c-.02-.25-.15-.35-.25-.47-2.21-2.73-4.58-5.31-7.19-7.68-.81-.73-1.61-1.47-2.58-1.99-2.33-1.25-4.7-1.32-7.12-.22-.29,.13-.43,.29-.35,.62,.06,.25,.04,.51,.09,.76,.59,2.88,2.26,4.88,5,5.93,3.08,1.18,6.28,1.92,9.5,2.55,.95,.18,1.91,.33,2.89,.5Zm-13.41,15.85s.06-.06,.09-.09c-.06-.18-.11-.36-.17-.54-.9-2.66-1.97-5.25-3.19-7.78-.76-1.57-1.47-3.19-2.63-4.51-1.74-1.99-3.95-2.87-6.6-2.65-.35,.03-.51,.19-.58,.51-.72,3.08,.04,5.74,2.39,7.85,2.56,2.3,5.45,4.15,8.4,5.91,.75,.45,1.52,.87,2.28,1.31Zm-17.88,10.23s.09-.03,.14-.05c.03-.38,.08-.76,.08-1.13,.01-1.76-.06-3.52-.17-5.28-.12-2.06-.3-4.12-.71-6.15-.62-3.11-2.43-5.19-5.46-6.2-.52-.17-.82-.05-1.1,.41-1.59,2.59-1.76,5.26-.34,7.95,1.49,2.84,3.43,5.38,5.41,7.88,.7,.88,1.43,1.72,2.15,2.58ZM126.81,57.96c-.26-.07-.34-.11-.44-.12-4.16-.81-8.35-1.42-12.59-1.28-3.07,.1-5.33,1.63-6.75,4.37-.22,.42-.15,.7,.18,1,2.28,2.07,4.91,2.72,7.84,1.77,3.52-1.14,6.78-2.87,9.99-4.7,.55-.31,1.09-.65,1.76-1.04Zm-13.19,48.57c.06-.21-.04-.31-.1-.41-1.46-2.66-3.07-5.22-4.86-7.67-.96-1.3-1.88-2.65-3.16-3.67-2.03-1.61-4.33-2.05-6.84-1.46-.3,.07-.55,.19-.55,.56,0,.61-.05,1.22,.04,1.82,.39,2.56,1.74,4.47,3.97,5.77,2.99,1.74,6.15,3.09,9.38,4.31,.7,.26,1.41,.5,2.12,.75Zm-45.3,21.09c.31-.84,.64-1.67,.93-2.51,1.13-3.36,2.25-6.73,2.65-10.27,.33-2.88-.8-5.2-3.05-6.98-.62-.49-.64-.48-1.27,.02-2.52,2.02-3.47,4.65-2.92,7.81,.59,3.37,1.58,6.64,2.72,9.86,.25,.69,.47,1.39,.93,2.06Zm59.27-59.36c-.06-.13-.17-.15-.27-.19-3.88-1.49-7.83-2.76-11.94-3.42-3.11-.5-5.66,.57-7.61,3.06-.32,.4-.31,.7,0,1.09,2.04,2.58,4.68,3.58,7.91,3.01,3.89-.69,7.65-1.88,11.34-3.28,.2-.08,.43-.11,.59-.29ZM58.04,126.86c.71-1.1,1.28-2.12,1.83-3.15,1.46-2.75,2.88-5.52,3.85-8.49,.98-3.01,.33-5.68-1.8-8.01-.28-.31-.53-.37-.92-.17-2.95,1.53-4.42,3.98-4.43,7.26-.02,3,.33,5.98,.8,8.94,.18,1.17,.38,2.33,.68,3.62Zm20.52-.07c.05-.21,.08-.34,.11-.46,.79-4.03,1.33-8.09,1.29-12.2-.03-2.85-1.24-5.11-3.67-6.63-1.4-.87-1.21-.9-2.22,.38-1.93,2.45-2.11,5.17-1.02,8.03,1.3,3.41,2.94,6.64,4.78,9.79,.21,.35,.38,.73,.73,1.09Zm48.25-48.22c-.22-.15-.35-.24-.48-.32-1.59-.97-3.22-1.87-4.88-2.69-2.2-1.09-4.39-2.21-6.77-2.85-2.88-.78-5.41-.05-7.56,2.03-.2,.2-.31,.38-.17,.67,1.35,2.77,3.54,4.36,6.63,4.55,2.73,.17,5.44-.16,8.14-.5,1.67-.21,3.33-.48,5.08-.88Zm-29,41.17c-.07-1.46-.33-2.84-.63-4.21-.63-2.88-1.28-5.76-2.42-8.5-1.16-2.77-3.3-4.34-6.26-4.78-.72-.11-.77-.07-1.04,.6-1.22,3.06-.71,5.84,1.4,8.35,2.02,2.4,4.28,4.55,6.64,6.61,.76,.66,1.54,1.29,2.32,1.93Zm1.38-20.42c-1.13-1.73-1.59-3.6-1.38-5.63-.04,0-.08-.03-.1-.02-1.88,.77-3.22,2.1-4.09,3.93-.12,.25-.04,.36,.23,.34,.64-.05,1.28-.04,1.91,.05,1.24,.18,2.37,.66,3.43,1.33Zm-12.45,8.72c-.45-1.9-.29-3.73,.52-5.49,.14-.3-.04-.33-.27-.31-1.93,.17-3.57,.96-4.94,2.33-.19,.19-.14,.27,.11,.34,1.88,.51,3.39,1.57,4.58,3.14Zm25.36-35.92c-.18-.08-.23-.11-.29-.13-1.81-.54-3.28-1.57-4.38-3.11-.27-.38-.35-.05-.43,.13-.76,1.7-.93,3.44-.45,5.25,.09,.34,.17,.4,.45,.14,1.39-1.33,3.04-2.1,5.1-2.28Zm-9.91,15.31c1.87-.9,3.78-1.12,5.78-.68-1.65-1.24-2.67-2.88-3.21-4.88-1.62,1.55-2.47,3.34-2.57,5.56Zm-30.13,24.58c.2-1.9,.96-3.52,2.23-4.91,.34-.37,.33-.42-.19-.54-1.55-.36-3.08-.29-4.58,.26-.96,.36-.97,.36-.22,.98,1.35,1.12,2.25,2.53,2.76,4.21Z"/>
      <g>
        <path class="cls-1" d="M23.38,80.34c-2.74,.15-5.41-.1-8.08-.42-3.17-.37-6.31-.91-9.37-1.85-1.58-.49-3.14-1.03-4.44-2.11-1.16-.97-1.31-2.14-.38-3.33,.88-1.14,2.09-1.88,3.33-2.57,2.9-1.61,6-2.76,9.15-3.75,2.48-.78,4.97-1.49,7.55-1.89,.25-.04,.5-.06,.88-.11-1.8-.51-3.4-1.19-4.98-1.92-3.99-1.86-7.86-3.93-11.34-6.66-.88-.69-1.71-1.45-2.39-2.35-.36-.47-.65-.98-.8-1.57-.18-.71,.02-1.3,.49-1.82,.51-.56,1.17-.88,1.87-1.13,1.52-.55,3.11-.77,4.7-.94,2.3-.24,4.61-.25,6.91-.18,3.18,.09,6.36,.31,9.59,1.01-2.1-1.55-3.86-3.32-5.58-5.13-2.57-2.71-5.01-5.54-6.93-8.77-.67-1.12-1.25-2.28-1.47-3.58-.24-1.39,.33-2.32,1.69-2.69,1.34-.36,2.67-.16,4,.05,1.3,.21,2.55,.61,3.83,.92,4.32,1.04,8.29,2.93,12.2,4.96,.45,.23,.88,.51,1.31,.76,.08-.08,.03-.14,0-.19-2.28-3.75-3.95-7.77-5.37-11.9-.75-2.17-1.36-4.37-1.59-6.67-.1-.96-.1-1.92,.24-2.85,.37-1.02,1.23-1.53,2.31-1.39,1.79,.22,3.3,1.1,4.78,2.04,2.7,1.72,5.14,3.78,7.48,5.95,1.95,1.81,3.83,3.69,5.56,5.9-.3-1.31-.5-2.5-.62-3.7-.12-1.27-.25-2.55-.35-3.83-.16-2.19-.16-4.39-.09-6.58,.07-2.18,.26-4.35,.86-6.46,.22-.77,.52-1.52,1.03-2.16,.66-.84,1.47-1.07,2.48-.71,.8,.29,1.44,.82,2.05,1.4,1,.96,1.88,2.02,2.66,3.16,3,4.33,5.44,8.95,7.26,13.9,.09,.25,.17,.51,.26,.81,.31-2.55,.95-4.98,1.66-7.39,.94-3.19,2.05-6.31,3.54-9.29,.6-1.19,1.27-2.34,2.14-3.36,.28-.33,.59-.63,.94-.89,1.15-.85,2.29-.73,3.23,.37,.88,1.03,1.39,2.26,1.85,3.51,.37,1.01,.59,2.07,.92,3.08,1.07,3.25,1.39,6.63,1.73,10,.18,1.75,.34,3.51,.14,5.28,.04,0,.08,0,.09-.01,1.25-2.49,2.87-4.74,4.55-6.95,1.79-2.37,3.69-4.65,5.86-6.69,1.12-1.06,2.29-2.06,3.69-2.75,.17-.08,.35-.17,.53-.23,1.56-.57,2.67-.05,3.22,1.51,.29,.81,.41,1.65,.45,2.5,.17,3.81-.49,7.53-1.29,11.23-.55,2.55-1.18,5.09-2.16,7.52-1.2,2.97-3.44,4.67-6.6,5.14-.86,.13-.97,.06-1.31-.73-.7-1.64-.9-3.33-.48-5.08,.02-.09,.03-.18,.06-.34-2.81,3.35-6.21,4.48-10.2,2.63-3.07-1.42-4.44-4.07-4.55-7.42-.29,1.77-1.06,3.3-2.33,4.56-1.28,1.26-2.82,2.02-4.59,2.23-3.15,.38-6.48-.94-8.39-4.66,.12,3.67-1.25,6.5-4.57,8.08-3.32,1.58-6.39,.89-9.21-1.56,.35,.95,.62,1.79,.72,2.69,.12,1.11-.03,2.17-.33,3.23-.1,.37-.39,.39-.68,.42-1.81,.16-3.51-.19-5.07-1.14-.13-.08-.24-.21-.47-.22,.29,.54,.62,1.03,.83,1.58,.53,1.32,.73,2.68,.56,4.1-.04,.33-.22,.45-.51,.54-2.23,.66-4.34,.36-6.37-.73,2.91,2.87,3.79,6.21,1.92,9.92-1.61,3.19-4.44,4.46-7.91,4.32,3.13,1.59,4.93,4.15,4.74,7.74-.2,3.81-2.37,6.23-5.97,7.44,4.02,.63,6.66,2.81,7.32,6.87,.58,3.54-.96,6.25-4.03,8.26,.95-.33,1.81-.51,2.7-.53,1.41-.04,2.73,.26,3.98,.92,.27,.14,.28,.37,.25,.62-.33,3.43-2.07,5.84-5.28,7.11-2.61,1.04-5.34,1.7-8.08,2.31-2.33,.52-4.69,.91-7.06,1.12-1.76,.16-3.52,.21-5.26-.16-2.3-.49-2.99-1.87-1.97-4,.73-1.51,1.85-2.72,2.97-3.94,3.54-3.87,7.69-6.98,12.15-9.72,.39-.24,.81-.44,1.26-.68Zm2.79,7.74c-3.23,.7-6.35,.94-9.49,1.05-1.39,.05-2.79,.02-4.18,.01-.26,0-.5,.02-.71,.22-1.22,1.19-2.44,2.37-3.45,3.75-.58,.79-1.14,1.59-1.4,2.56-.31,1.16,.07,1.93,1.17,2.41,.58,.25,1.19,.38,1.81,.45,1.92,.23,3.84,.06,5.75-.15,.48-.05,.78-.24,1.06-.61,1.4-1.81,2.92-3.53,4.51-5.18,1.51-1.57,3.06-3.1,4.92-4.51ZM88,25.89c.22-.27,.43-.55,.65-.81,2.71-3.16,5.75-5.98,8.99-8.58,.17-.14,.37-.25,.4-.51,.21-2.04,.44-4.08,.18-6.13-.08-.64-.22-1.26-.48-1.86-.45-1.05-1.27-1.45-2.37-1.15-.56,.15-1.08,.41-1.57,.72-1.73,1.08-3.15,2.52-4.56,3.96-.28,.29-.39,.58-.39,.98,.03,2.18,.04,4.36-.1,6.53-.06,.91-.16,1.82-.24,2.72-.13,1.37-.32,2.73-.52,4.13Zm-15.85-4.01c.22-.63,.4-1.22,.63-1.8,1.42-3.64,3.19-7.1,5.23-10.43,.17-.29,.28-.56,.2-.9-.43-1.81-.94-3.6-1.73-5.29-.34-.73-.74-1.43-1.31-2-.78-.78-1.66-.85-2.56-.21-.38,.27-.72,.59-1.02,.95-1.39,1.69-2.3,3.65-3.17,5.64-.15,.34-.13,.62,0,.96,1.65,4.23,3.02,8.55,3.72,13.1ZM30.08,41.74c-.38-.42-.71-.76-1.01-1.13-2.59-3.16-4.8-6.57-6.75-10.15-.16-.3-.36-.49-.7-.59-1.69-.51-3.4-.95-5.16-1.12-.99-.1-1.99-.15-2.95,.22-.75,.28-1.12,.81-1.16,1.6-.03,.7,.15,1.37,.41,2.01,.81,2.01,2.05,3.76,3.34,5.48,.16,.22,.39,.27,.63,.3,2.19,.28,4.35,.73,6.5,1.24,2.3,.55,4.58,1.17,6.85,2.13Zm26-18.53c0-.82,0-1.64,.01-2.45,.02-1.25,.11-2.5,.24-3.74,.25-2.47,.59-4.92,1.11-7.35,.06-.3,0-.56-.17-.82-.77-1.16-1.57-2.31-2.49-3.36-.81-.91-1.63-1.82-2.75-2.37-1.09-.54-1.88-.33-2.58,.66-.36,.52-.59,1.1-.77,1.7-.59,1.95-.76,3.95-.89,5.97-.02,.31,.1,.54,.3,.77,.64,.72,1.27,1.44,1.88,2.19,2.25,2.78,4.38,5.64,6.12,8.79ZM21.8,72.39c-.81-.1-1.61-.25-2.4-.42-3.66-.78-7.22-1.88-10.7-3.25-.22-.09-.43-.18-.69-.07-1.84,.8-3.65,1.65-5.28,2.85-.63,.46-1.24,.97-1.64,1.67-.45,.77-.4,1.45,.16,2.14,.46,.57,1.08,.95,1.73,1.28,1.81,.93,3.76,1.45,5.72,1.93,.32,.08,.57,.03,.85-.14,2.35-1.47,4.79-2.78,7.31-3.96,1.61-.75,3.23-1.46,4.93-2.02Zm1.56-16.02c-1.27-.62-2.36-1.28-3.42-1.99-2.71-1.8-5.31-3.76-7.74-5.93-.22-.2-.44-.41-.79-.38-1.61,.13-3.23,.25-4.81,.61-1.03,.24-2.06,.51-2.94,1.13-.94,.66-1.15,1.48-.65,2.51,.3,.63,.73,1.16,1.21,1.66,1.39,1.45,3.02,2.58,4.68,3.67,.2,.13,.39,.15,.63,.1,2.79-.6,5.61-1.02,8.45-1.25,1.75-.15,3.5-.33,5.38-.13Zm17.99-26.33c0-.17,.01-.22,0-.26-1.61-4.16-2.58-8.48-3.24-12.87-.05-.3-.15-.54-.42-.72-.65-.44-1.27-.92-1.93-1.35-1.32-.86-2.66-1.69-4.19-2.11-2.03-.55-3.07,.25-3.13,2.37-.07,2.28,.53,4.44,1.15,6.6,.11,.4,.33,.65,.7,.85,3.21,1.72,6.27,3.68,9.17,5.9,.63,.48,1.24,1,1.9,1.6ZM78.54,9.68c-.14,.2-.21,.3-.28,.41-.71,1.16-1.39,2.35-2.02,3.56-1.33,2.56-2.65,5.14-3.49,7.91-.88,2.91-.2,5.5,1.85,7.75,.28,.3,.53,.38,.92,.18,2.82-1.45,4.32-3.76,4.43-6.91,.1-3.02-.28-6.01-.71-9-.18-1.26-.4-2.52-.71-3.89ZM16.84,98.16c.11,.02,.14,.04,.17,.03,4.09-.63,8.12-1.54,12.02-2.97,3.07-1.12,4.85-3.33,5.32-6.59,.07-.47-.04-.74-.51-.93-2.99-1.21-5.75-.8-8.24,1.23-2.31,1.88-4.34,4.04-6.3,6.26-.84,.94-1.66,1.9-2.45,2.96ZM57.75,9.71c-.07,.31-.11,.49-.15,.68-.49,2.45-.84,4.93-1.03,7.42-.14,1.78-.34,3.57-.14,5.37,.33,2.91,1.83,4.99,4.44,6.3,.35,.17,.57,.13,.84-.15,2.14-2.28,2.8-4.94,1.84-7.9-1.11-3.43-2.8-6.6-4.56-9.73-.36-.64-.71-1.29-1.23-1.98Zm30.77,2.7c-.12,.09-.17,.11-.2,.14-2.77,3.19-5.37,6.51-7.41,10.22-1.52,2.77-1.36,5.53,.35,8.2,.24,.38,.49,.46,.91,.33,2.91-.91,4.76-2.83,5.47-5.79,.51-2.11,.66-4.27,.79-6.43,.08-1.31,.12-2.62,.18-3.94,.04-.89-.05-1.78-.09-2.75ZM9.59,58.07c.23,.15,.36,.25,.5,.32,1.09,.62,2.16,1.26,3.27,1.84,2.56,1.36,5.16,2.66,7.94,3.54,3.01,.96,5.69,.3,7.99-1.87,.24-.23,.32-.44,.16-.76-1.41-2.84-3.7-4.38-6.85-4.51-3.04-.12-6.04,.28-9.04,.71-1.28,.18-2.56,.41-3.95,.73Zm7.04-19.4c.06,.12,.07,.17,.1,.2,2.53,3.14,5.27,6.08,8.33,8.71,2.48,2.14,5.26,2.75,8.36,1.57,.79-.3,.84-.4,.73-1.25,0-.06-.02-.13-.03-.19-.56-2.91-2.21-4.93-4.97-6.01-2.68-1.05-5.47-1.71-8.28-2.3-1.38-.29-2.76-.54-4.23-.73Zm21.77-21.89c.02,.27,.03,.45,.06,.62,.64,3.89,1.51,7.73,2.84,11.45,1.13,3.15,3.33,5.01,6.67,5.47,.43,.06,.68-.03,.86-.45,1.24-2.92,.88-5.65-1.05-8.13-1.64-2.1-3.57-3.93-5.54-5.73-1.21-1.1-2.44-2.17-3.83-3.22ZM12.46,88.6s.03,.08,.04,.13c.25,0,.51,0,.76,0,1.55,0,3.11,0,4.66-.09,2.43-.14,4.86-.31,7.25-.81,3.13-.65,5.18-2.51,6.14-5.57,.13-.42,.04-.68-.34-.92-2.77-1.75-5.58-1.81-8.41-.21-2.66,1.5-5.1,3.32-7.47,5.23-.9,.72-1.79,1.45-2.62,2.24ZM47.79,12.41c-.03,.53-.09,.97-.09,1.41,.03,1.58,.07,3.17,.16,4.75,.13,2.13,.31,4.25,.7,6.34,.61,3.28,2.49,5.44,5.7,6.42,.29,.09,.53,.13,.74-.2,1.74-2.63,1.98-5.39,.51-8.19-1.55-2.95-3.58-5.58-5.66-8.16-.64-.8-1.28-1.59-2.06-2.38Zm-17.75,10.38c-.07,.21,0,.33,.04,.44,1.24,3.63,2.74,7.15,4.59,10.51,.82,1.5,1.85,2.81,3.39,3.64,1.45,.78,2.99,1.1,4.63,.92,.25-.03,.37-.14,.43-.37,.14-.53,.25-1.06,.28-1.61,.14-2.77-.92-4.99-3.04-6.73-2.34-1.93-4.85-3.62-7.45-5.18-.93-.56-1.86-1.12-2.88-1.62Zm67.89-6.05c-.12,.05-.17,.06-.21,.09-3.17,2.56-6.17,5.31-8.81,8.43-2.2,2.6-2.71,5.48-1.33,8.64,.13,.29,.29,.41,.62,.38,3.06-.3,5.24-1.86,6.51-4.64,.76-1.67,1.21-3.44,1.67-5.21,.65-2.51,1.18-5.05,1.55-7.68ZM8.82,68.32c.07,.19,.2,.19,.29,.23,3.82,1.47,7.72,2.7,11.76,3.38,3.2,.54,5.83-.5,7.84-3.09,.28-.37,.29-.65,0-1.02-1.99-2.54-4.57-3.59-7.75-3.07-3.17,.52-6.24,1.46-9.27,2.5-.96,.33-1.91,.71-2.87,1.07Zm.86,10.35c.2,.06,.28,.1,.38,.12,4.1,.79,8.22,1.35,12.4,1.26,3.23-.07,5.56-1.61,7.01-4.49,.16-.33,.13-.54-.14-.79-2.32-2.19-5.01-2.83-8.03-1.84-2.78,.91-5.38,2.25-7.95,3.61-1.21,.64-2.4,1.34-3.66,2.13ZM68.04,8.87c-.06,.12-.12,.22-.17,.33-1.43,3.73-2.62,7.54-3.32,11.47-.58,3.26,.36,5.98,3.02,8.04,.41,.32,.7,.29,1.09-.01,2.65-2.08,3.57-4.79,2.97-8.05-.72-3.89-1.91-7.64-3.32-11.32-.06-.15-.07-.35-.28-.46ZM22.74,30.12c-.05,.19,.05,.3,.12,.42,1.96,3.5,4.11,6.88,6.7,9.96,2.07,2.46,4.71,3.46,7.9,2.8,.77-.16,.83-.24,.84-1.03,.04-3.04-1.2-5.42-3.8-7-3.34-2.03-6.95-3.49-10.63-4.8-.37-.13-.73-.32-1.13-.36Zm-10.34,17.92s-.03,.09-.05,.13c.14,.13,.27,.27,.42,.39,1,.82,1.99,1.67,3.02,2.46,2.28,1.77,4.6,3.5,7.19,4.8,2.74,1.37,5.42,1.14,7.98-.56,.33-.22,.4-.44,.29-.8-.91-2.97-2.86-4.88-5.89-5.54-3.22-.7-6.5-.86-9.79-.89-1.05,0-2.11,0-3.16,0ZM54.54,31.73c-2.11-.51-3.72-1.61-5-3.39,.43,1.83,.4,3.52-.22,5.17-.33,.87-.33,.89,.6,.74,1.8-.28,3.31-1.12,4.63-2.52Zm9.73-7.47c-.15,2.19-1.01,4.01-2.59,5.54,2.03,.63,3.92,.48,5.77-.37,.22-.1,.32-.2,.06-.39-1.66-1.18-2.73-2.76-3.24-4.78ZM31.64,54.73c1.49-1.43,2.33-3.06,2.53-5.01,.05-.51-.02-.54-.49-.35-1.26,.52-2.56,.78-3.94,.63-.45-.05-.89-.17-1.45-.2,1.76,1.25,2.81,2.86,3.35,4.92Zm-2.42,13.28c.95-1.91,1.15-3.78,.63-5.74-.1-.39-.25-.27-.44-.08-1.19,1.17-2.61,1.89-4.25,2.19-.13,.02-.25,.03-.38,.04-.11,.01-.24-.01-.3,.14,1.98,.55,3.54,1.68,4.74,3.44Zm-3.59,11.71c.38-.02,.67-.06,.95-.05,1.64,.03,3.16,.47,4.52,1.39,.23,.15,.41,.24,.44-.15,.14-1.93-.34-3.68-1.46-5.26-.13-.18-.23-.25-.35,.02-.84,1.84-2.21,3.15-4.1,4.04ZM75.35,29.91c.32,.29,.63,.49,.94,.67,1.38,.77,2.86,1.09,4.43,.98,.49-.03,.51-.06,.23-.48-.72-1.1-1.16-2.3-1.31-3.62-.06-.49-.02-.99-.11-1.59-.95,1.9-2.33,3.2-4.19,4.05Z"/>
        <path class="cls-1" d="M62.48,136.49c-.76,0-1.47-.36-2.11-1.08-.93-1.03-1.44-2.29-1.85-3.4-.47-1.26-.98-2.75-1.22-4.3-.12-.77-.25-1.54-.38-2.3-.33-1.92-.67-3.9-.85-5.89l-.03-.28c-.17-1.81-.34-3.68-.24-5.54,.18-3.4,1.87-5.91,5.02-7.46,.21-.11,.42-.16,.61-.16,.32,0,.61,.14,.9,.42,1.1,1.09,1.86,2.36,2.28,3.78,1.41-2.84,3.72-4.42,6.89-4.7,.3-.03,.6-.04,.89-.04,2.77,0,5.03,1.19,6.76,3.55,.37-3.24,2.03-5.55,4.92-6.88,1.22-.56,2.45-.85,3.64-.85,1.62,0,3.2,.52,4.71,1.54-.84-3.38,.06-6.24,2.67-8.53,1.62-1.42,3.43-2.14,5.39-2.14,.81,0,1.65,.13,2.51,.38-2.02-2.83-2.21-5.85-.57-9,1.38-2.65,3.61-4.14,6.62-4.44-2.6-1.89-3.77-4.46-3.49-7.65,.28-3.19,1.88-5.52,4.76-6.93-.38-.1-.73-.23-1.06-.37-1.07-.46-2.02-1.12-2.9-2.03-.35-.36-.42-.78-.2-1.25,1.42-3.1,3.83-4.84,7.15-5.16,.56-.05,1.13-.08,1.75-.08,1.44,0,2.88,.15,4.27,.29l.73,.07c2.71,.27,5.35,.7,7.83,1.27,1.64,.38,3.56,.88,5.4,1.73,.72,.33,1.63,.81,2.38,1.61,.92,.99,1.03,2.15,.31,3.29-.58,.93-1.43,1.58-2.1,2.04-2.27,1.55-4.76,2.59-6.9,3.41-3.71,1.41-7.12,2.41-10.41,3.06,.55,.21,1.11,.44,1.68,.69,5.03,2.23,8.92,4.44,12.25,6.94,1.02,.77,2.19,1.72,3.11,3,.51,.71,1.01,1.59,.81,2.65-.23,1.21-1.13,1.79-2.06,2.23-1.34,.63-2.78,.89-4.13,1.07-1.91,.26-3.87,.39-5.83,.39-.43,0-.86,0-1.3-.02-3.01-.09-5.97-.21-8.86-.7,.12,.11,.25,.22,.37,.33,4.92,4.57,8.23,8.46,10.74,12.63,.73,1.22,1.15,2.22,1.36,3.25,.22,1.08,.07,2-.44,2.66-.52,.67-1.38,1.05-2.51,1.11-.2,.01-.39,.02-.59,.02-1.79,0-3.51-.41-5.18-.8l-.34-.08c-4.07-.96-8.15-2.58-13.18-5.26,1.51,2.7,2.65,5.42,3.5,7.6,1.01,2.58,2.11,5.66,2.6,8.95,.17,1.15,.29,2.39-.05,3.64-.36,1.31-1.3,2.07-2.58,2.07-.16,0-.32-.01-.49-.03-1.67-.23-3.08-1.02-4.38-1.81-2.22-1.35-4.41-3.04-7.11-5.48-1.64-1.49-3.52-3.25-5.25-5.26,.59,3.6,.8,7.51,.66,12.38-.08,2.84-.33,5.2-1.25,7.49-.8,1.97-1.94,2.39-2.76,2.39-.73,0-1.53-.32-2.38-.96-1.49-1.11-2.58-2.54-3.55-3.92-2.78-3.98-5.12-8.37-6.96-13.04-.54,2.87-1.39,5.63-2.19,8.02-.8,2.39-1.94,5.5-3.67,8.41-.53,.88-1.2,1.89-2.19,2.7-.64,.52-1.28,.78-1.92,.78Zm1.56-19.78c-1.4,3.56-3.19,7.11-5.31,10.56-.15,.24-.16,.32-.13,.43,.35,1.47,.77,3.04,1.41,4.56,.42,1.01,.84,1.81,1.48,2.45,.33,.33,.65,.49,.97,.49h0c.25,0,.51-.09,.82-.27,.33-.2,.64-.47,.93-.81,1.39-1.64,2.29-3.53,3.23-5.66,.08-.18,.08-.31-.01-.53-1.59-4.06-2.68-7.68-3.38-11.21Zm16.77-1.49c-.01,.92-.09,1.84-.17,2.73l-.05,.6c-.24,2.96-.64,5.69-1.2,8.32-.06,.24-.06,.29-.04,.32,1.11,1.69,2.32,3.46,3.93,4.92,.42,.38,.93,.79,1.55,.98,.19,.06,.36,.09,.52,.09,.35,0,.64-.16,.93-.51,.33-.4,.58-.88,.81-1.58,.6-1.8,.76-3.73,.93-5.6l.02-.25c.02-.29-.06-.5-.31-.78-1.96-2.19-3.85-4.62-5.61-7.23-.44-.65-.88-1.32-1.31-2.03Zm-12.58-7.21c-.08,.05-.22,.16-.33,.25-2.37,1.9-3.26,4.3-2.74,7.34,.51,2.92,1.37,6.02,2.7,9.78l.06,.17c.1,.29,.2,.58,.32,.85,.18-.49,.37-.97,.53-1.46,1.04-3.08,2.22-6.57,2.63-10.16,.29-2.59-.67-4.79-2.86-6.53-.08-.07-.23-.18-.31-.23Zm-6.84-.59s-.06,0-.17,.06c-2.75,1.42-4.15,3.72-4.16,6.82-.02,3.25,.41,6.45,.79,8.86,.11,.71,.24,1.52,.41,2.38,.38-.64,.76-1.31,1.16-2.07,1.46-2.75,2.86-5.46,3.81-8.41,.9-2.78,.33-5.31-1.69-7.52-.09-.1-.14-.12-.15-.12Zm13.73-.04c-.09,.08-.27,.31-.45,.53l-.21,.27c-1.73,2.2-2.04,4.67-.94,7.54,1.19,3.11,2.74,6.28,4.75,9.71l.05,.09c.81-4.32,1.18-7.96,1.15-11.4-.02-2.71-1.18-4.8-3.44-6.21l-.27-.17c-.25-.16-.51-.33-.63-.37Zm20.89,.66c1.16,3.34,2.04,7.05,2.7,11.5,.03,.22,.11,.34,.27,.47,1.04,.76,1.85,1.32,2.63,1.79,1.16,.72,2.42,1.44,3.85,1.7,.16,.03,.31,.04,.45,.04,.46,0,1.09-.13,1.37-1.23,.11-.46,.12-.95,.11-1.45-.04-2.15-.64-4.19-1.22-6.17,0-.03-.05-.05-.18-.12-1.91-1.02-3.78-2.15-5.77-3.47-1.65-1.1-3-2.08-4.21-3.06Zm-14.13-2.38c-.05,0-.13,0-.28,.24-1.51,2.48-1.62,4.99-.32,7.46,1.5,2.85,3.47,5.41,5.36,7.8,.48,.6,.97,1.19,1.47,1.77,0,0,0-.05,0-.07,.01-1.51-.04-3.12-.17-5.25-.11-1.83-.28-3.98-.7-6.08-.59-2.96-2.27-4.87-5.13-5.82-.1-.03-.18-.05-.24-.05Zm6.15-2.96s-.06,.24-.1,.33c-1.14,2.87-.71,5.43,1.31,7.84,1.74,2.06,3.83,4.15,6.58,6.56,.46,.4,.92,.79,1.39,1.17-.12-1.04-.32-2.03-.52-2.97-.66-3.05-1.3-5.79-2.39-8.41-1.06-2.55-3.04-4.05-5.88-4.48-.16-.02-.28-.04-.37-.04h-.04Zm5.7-3.94s-.02,.03-.04,.11c-.68,2.93,.07,5.41,2.24,7.36,2.56,2.3,5.51,4.17,8.32,5.85,.43,.26,.87,.51,1.3,.75-.85-2.44-1.86-4.86-2.99-7.21l-.23-.48c-.65-1.37-1.33-2.78-2.33-3.92-1.46-1.67-3.29-2.51-5.45-2.51-.24,0-.48,.01-.73,.03-.07,0-.09,.02-.1,.02Zm-24.11,8.65c.97,.8,1.72,1.74,2.28,2.85,.36-1.2,.97-2.3,1.82-3.28-.51-.1-1.02-.15-1.52-.15-.85,0-1.7,.15-2.51,.45-.05,.02-.11,.04-.16,.06,.03,.02,.06,.05,.08,.07Zm38.42-11.33c2.25,2.79,4.37,6.02,6.45,9.82,.12,.21,.23,.3,.44,.37l.35,.1c.86,.25,1.75,.5,2.63,.67,.95,.18,2.03,.39,3.08,.39,.3,0,.6-.02,.91-.05,.66-.08,1.11-.29,1.36-.61,.23-.31,.3-.79,.21-1.4-.07-.42-.2-.85-.41-1.35-.8-1.9-2.01-3.59-3.18-5.17-.02-.03-.04-.05-.2-.08-2.6-.39-4.94-.86-7.15-1.42-1.72-.44-3.17-.84-4.48-1.27Zm-25.26,8.48c1.23,.41,2.3,1.05,3.23,1.92-.07-1.27,.13-2.51,.61-3.7-1.45,.2-2.71,.79-3.84,1.79Zm17.96-10.99c-.63,0-1.29,.08-1.96,.24-.14,.03-.18,.06-.18,.06v.38c0,.48-.02,.94,.05,1.38,.36,2.39,1.58,4.16,3.72,5.41,2.57,1.5,5.44,2.81,9.3,4.27,.35,.13,.71,.26,1.07,.39-1.43-2.5-2.93-4.83-4.49-6.95l-.31-.42c-.86-1.17-1.66-2.28-2.76-3.15-1.34-1.06-2.84-1.6-4.45-1.6Zm-6.13,3.84c.42,0,.83,.03,1.23,.09,.73,.11,1.44,.31,2.14,.61-.5-1.17-.74-2.4-.71-3.69-1.29,.67-2.27,1.65-2.99,2.99,.11,0,.22,0,.33,0Zm11.32-10.07c-1.04,0-2.1,.24-3.16,.73-.08,.04-.1,.06-.1,.06,.07,.15,.08,.31,.09,.47,0,.1,.01,.2,.03,.3,.56,2.71,2.13,4.58,4.69,5.56,3.25,1.25,6.59,1.97,9.42,2.52,.57,.11,1.15,.21,1.72,.3-2.21-2.68-4.41-5.01-6.7-7.09-.83-.76-1.58-1.44-2.48-1.92-1.16-.62-2.34-.93-3.51-.93Zm3.96-6.94c-1.37,0-2.75,.44-4.11,1.31-.17,.11-.18,.12-.11,.34,.91,2.89,2.79,4.59,5.73,5.2,2,.42,4.02,.57,6.08,.71,1.61,.11,3.21,.16,4.91,.16,.17,0,.35,0,.52,0-.74-.65-1.53-1.29-2.4-1.96-2.3-1.77-4.68-3.6-7.33-4.93-1.1-.55-2.2-.83-3.29-.83Zm5.23,.39c3.13,1.9,6.24,4.22,9.49,7.07,.16,.14,.27,.17,.39,.17,2.28-.1,3.99-.34,5.57-.78,.86-.24,1.47-.51,1.98-.88,.63-.46,.77-.94,.49-1.65-.17-.45-.46-.89-.92-1.41-1.43-1.58-3.18-2.82-4.87-3.91-.05-.03-.09-.04-.15-.04-.07,0-.14,.01-.22,.03-4.46,.88-8.23,1.33-11.76,1.4Zm-10.59,2.03c-.99,1.13-1.56,2.37-1.77,3.81,1.07-.41,2.16-.61,3.25-.61,.14,0,.28,0,.42,0-.83-.9-1.46-1.97-1.9-3.21Zm7.96-9.93c-1.83,0-3.52,.74-5.02,2.2-.07,.07-.09,.1-.09,.1,1.32,2.65,3.41,4.09,6.23,4.26,.5,.03,1,.04,1.5,.04,2.12,0,4.22-.25,6.55-.55,1.45-.19,2.68-.38,3.84-.61-1.39-.83-2.83-1.61-4.28-2.33l-.33-.16c-2.04-1.01-4.14-2.06-6.35-2.66-.7-.19-1.4-.29-2.06-.29Zm-5.17-3.34c-.55,1.4-.68,2.78-.37,4.21,1.01-.88,2.11-1.48,3.34-1.83-1.17-.57-2.16-1.37-2.97-2.38Zm6.6-4.52c-2.27,0-4.21,1.01-5.76,2.99-.18,.23-.17,.27,0,.48,1.58,2,3.49,2.98,5.82,2.98h0c.51,0,1.05-.05,1.61-.15,3.28-.58,6.73-1.56,10.8-3.08-4.21-1.58-7.75-2.57-11.08-3.1-.47-.08-.93-.11-1.37-.11Zm2.69-1c.29,.06,.57,.12,.85,.18,3.51,.78,7.01,1.86,10.43,3.21,.13,.05,.23,.08,.3,.08,.03,0,.07,0,.1-.02,1.57-.67,3.39-1.5,4.99-2.65,.75-.54,1.32-1.03,1.69-1.71,.3-.55,.25-1-.16-1.48-.36-.42-.83-.77-1.46-1.1-1.83-.96-3.85-1.5-5.6-1.93-.09-.02-.16-.03-.24-.03-.15,0-.29,.05-.46,.15-1.55,.97-3.21,1.9-4.95,2.78-1.74,.87-3.57,1.77-5.49,2.5Zm-1.64-7c-.39,0-.78,0-1.17,.02-2.83,.09-4.96,1.47-6.32,4.1-.11,.21-.1,.24,.08,.4,1.52,1.37,3.18,2.07,4.94,2.07h0c.78,0,1.59-.14,2.41-.4,3.31-1.07,6.35-2.64,9.9-4.65,.22-.13,.45-.26,.68-.39-2.99-.56-6.73-1.14-10.51-1.14Z"/>
        <g>
          <path class="cls-1" d="M80.22,76.68c-.03,.88-.44,1.52-1.24,1.9-.79,.37-1.69,.21-2.32-.4-1.49-1.48-2.97-2.97-4.46-4.45-.76-.75-1.64-1.06-2.68-.66-1.6,.62-2.01,2.63-.77,3.88,1.47,1.5,2.97,2.97,4.45,4.46,.95,.96,.93,2.3-.02,3.16-.78,.71-1.96,.74-2.78,.06-.1-.08-.19-.17-.28-.26-3.67-3.67-7.35-7.35-11.02-11.02-.55-.55-.88-1.18-.74-1.98,.16-.85,.65-1.42,1.46-1.69,.8-.26,1.53-.06,2.13,.51,.61,.57,1.18,1.18,1.77,1.76,.63,.62,.52,.63,.98-.09,1.07-1.68,2.57-2.77,4.55-3.08,2.08-.33,3.97,.15,5.52,1.61,1.65,1.57,3.23,3.21,4.84,4.82,.4,.4,.61,.9,.58,1.48Z"/>
          <path class="cls-1" d="M95.92,59.51c-1.73-.04-3.28-.58-4.53-1.81-1.6-1.57-3.19-3.16-4.76-4.76-.84-.86-.83-2.15,0-2.98,.82-.82,2.11-.83,2.98,.03,1.53,1.51,3.04,3.04,4.56,4.55,.94,.93,2.25,1.02,3.22,.23,1.09-.88,1.18-2.48,.18-3.53-.7-.73-1.42-1.43-2.14-2.15-.8-.81-1.61-1.61-2.41-2.42-.91-.92-.93-2.19-.07-3.04,.87-.86,2.11-.83,3.04,.09,1.54,1.54,3.11,3.06,4.62,4.63,1.85,1.92,2.34,4.22,1.49,6.71-.84,2.46-2.65,3.9-5.22,4.36-.32,.06-.63,.1-.96,.08Z"/>
          <path class="cls-1" d="M47.89,107.14c-4.02,0-7.24-2.8-7.71-6.78-.49-4.15,2.26-7.44,5.64-8.31,.37-.1,.75-.17,1.13-.19,1.08-.05,2.02,.65,2.17,1.64,.19,1.2-.46,2.24-1.6,2.47-.84,.17-1.6,.44-2.21,1.07-1.03,1.04-1.29,2.63-.64,3.96,.64,1.32,2.06,2.1,3.52,1.94,1.48-.17,2.71-1.28,3.01-2.72,.04-.19,.07-.38,.12-.56,.29-1.07,1.34-1.71,2.46-1.5,1.03,.19,1.73,1.14,1.63,2.22-.28,3.28-3.04,6.2-6.3,6.67-.43,.06-.86,.13-1.22,.1Z"/>
          <path class="cls-1" d="M111.48,44.44c-.12,2.32-1.31,3.92-3.24,5.03-.48,.27-.98,.48-1.52,.58-1,.17-1.97-.4-2.28-1.34-.32-.98,.07-1.88,1.03-2.37,.53-.27,1.11-.43,1.57-.83,.39-.35,.64-.77,.5-1.32-.12-.5-.47-.78-.97-.89-.34-.07-.63,.06-.92,.21-.8,.41-1.61,.78-2.51,.95-2.28,.43-4.39-.8-4.93-2.89-.63-2.47,1.05-5.43,3.49-6.16,.5-.15,1.01-.17,1.51,0,.96,.34,1.28,1.57,.62,2.34-.24,.28-.55,.49-.88,.66-.38,.19-.73,.41-1.01,.72-.31,.34-.38,.74-.19,1.15,.21,.44,.59,.56,1.04,.51,.47-.06,.88-.29,1.28-.53,1.59-.98,3.23-1.01,4.83-.09,1.64,.94,2.48,2.4,2.57,4.27Z"/>
          <path class="cls-1" d="M122.8,30.98c-.89-.26-1.8,.21-2.11,1.11-.15,.43-.29,.85-.5,1.25-1.17,2.17-3.75,3.19-5.93,2.3,.07-.08,.11-.13,.16-.18,2.04-2.04,4.08-4.08,6.12-6.12,.23-.23,.45-.46,.63-.72,.71-1.05,.56-2.05-.42-2.84-1.21-.97-2.61-1.51-4.15-1.61-5.12-.34-8.81,4.13-8.15,8.59,.43,2.9,1.99,5.07,4.72,6.14,4.81,1.9,9.71-1.35,10.87-5.86,.23-.88-.35-1.8-1.24-2.06Zm-10.08,2.7c-.27,.27-.4,.26-.6-.06-.42-.68-.74-1.38-.7-2.21,.04-1.63,.71-2.91,2.17-3.69,1.43-.76,2.85-.71,4.23,.2,.32,.21,.32,.34,.06,.6-1.73,1.71-3.45,3.43-5.16,5.16Z"/>
          <path class="cls-1" d="M42.57,111.29c-.97-.3-1.87,.17-2.2,1.16-.05,.15-.1,.31-.15,.46-.87,2.44-3.29,3.75-5.8,3.16-.13-.03-.34,.01-.38-.15-.04-.15,.15-.23,.24-.33,1.98-1.99,3.97-3.97,5.95-5.96,.24-.24,.47-.49,.66-.76,.71-1.04,.55-2.06-.45-2.83-1.64-1.25-3.48-1.79-5.54-1.56-3.86,.43-6.8,3.69-6.8,7.66-.03,.46,.04,.98,.16,1.5,1.14,5.1,6.44,7.58,11.1,5.16,2.2-1.14,3.66-2.93,4.35-5.32,.28-.97-.22-1.9-1.13-2.19Zm-10.17,2.7c-.23,.25-.36,.21-.55-.06-.93-1.37-.99-2.8-.24-4.23,.78-1.48,2.08-2.16,3.72-2.23,.8,0,1.5,.28,2.17,.71,.34,.22,.35,.37,.06,.65-1.43,1.41-2.84,2.83-4.26,4.25-.31,.31-.62,.6-.92,.92Z"/>
          <path class="cls-1" d="M58.93,80.66c-4.65,.03-7.67,3.91-7.67,7.69,0,4.02,3.4,7.76,7.69,7.64,3.75,.13,7.65-2.97,7.67-7.66,.02-4.23-3.45-7.7-7.69-7.67Zm-.02,11.47c-2.06,0-3.76-1.71-3.77-3.77,0-2.11,1.67-3.79,3.78-3.79,2.12,0,3.78,1.66,3.78,3.78,0,2.11-1.69,3.79-3.79,3.78Z"/>
          <path class="cls-1" d="M82.91,56.7c-4.67,.02-7.8,3.91-7.66,7.67-.13,4.16,3.43,7.63,7.54,7.69,3.84,.06,7.75-2.97,7.79-7.66,.04-4.23-3.44-7.71-7.67-7.7Zm-.01,11.47c-2.09,0-3.79-1.71-3.79-3.8,0-2.08,1.68-3.76,3.76-3.76,2.13,0,3.8,1.65,3.8,3.76,0,2.11-1.67,3.8-3.77,3.8Z"/>
        </g>
      </g>
    </g>
  </g>
</svg>