<?xml version="1.0" encoding="UTF-8"?>
<svg id="Layer_2" data-name="Layer 2" xmlns="http://www.w3.org/2000/svg" viewBox="0 0 62.4 61.72">
  <defs>
    <style>
      .cls-1 {
        fill: #fff;
      }
    </style>
  </defs>
  <g id="Layer_1-2" data-name="Layer 1">
    <path class="cls-1" d="M35.95,50.93c0-2.73,.09-5.47-.03-8.19-.09-1.91,.44-2.77,2.53-2.69,1.52,.06,3.65,.87,4.49-.53,1.32-2.18,1.1-4.95,1.43-7.49,.1-.79-.84-.69-1.42-.7-1.75-.03-3.49-.05-5.24-.01-1.25,.03-1.8-.53-1.76-1.77,.04-.99,0-1.97,0-2.96,.03-4.1,1.82-5.92,5.94-6.06q3.17-.1,3.17-3.28c0-.61-.06-1.22,0-1.82,.24-2.11-.74-2.93-2.77-2.78-2.09,.15-4.1-.43-6.28-.1-5.89,.89-9.59,4.75-9.76,10.87-.06,2.05-.05,4.1-.01,6.15,.02,1.25-.52,1.8-1.77,1.76-1.44-.04-2.88,.03-4.33,0-1.14-.02-1.71,.45-1.64,1.62,.01,.23-.01,.46,0,.68,.09,1.96-.73,4.31,.32,5.8,1.19,1.69,3.67,.5,5.57,.66,1.36,.11,1.87,.61,1.86,1.94-.03,5.99-.03,11.99,0,17.99,0,1.54-.58,1.94-2.11,1.62C12.06,59.12,2.06,48.27,.37,36.17-1.05,26.06,1.63,17.24,8.37,9.78,12.84,4.84,18.6,1.72,25.2,.57c10.77-1.87,20.35,.81,28.08,8.64,8.39,8.5,10.96,18.91,7.85,30.33-3.2,11.78-11.15,19.07-23.03,22.05-1.74,.44-2.18-.23-2.16-1.79,.04-2.96,.01-5.92,0-8.88Z"/>
  </g>
</svg>