<?xml version="1.0" encoding="UTF-8"?>
<svg id="Layer_2" data-name="Layer 2" xmlns="http://www.w3.org/2000/svg" xmlns:xlink="http://www.w3.org/1999/xlink" viewBox="0 0 38.48 38.46">
  <defs>
    <style>
      .cls-1 {
        fill: #fff;
      }

      .cls-2 {
        filter: url(#drop-shadow-1);
      }
    </style>
    <filter id="drop-shadow-1" filterUnits="userSpaceOnUse">
      <feOffset dx="2" dy="2"/>
      <feGaussianBlur result="blur" stdDeviation="1"/>
      <feFlood flood-color="#000" flood-opacity=".4"/>
      <feComposite in2="blur" operator="in"/>
      <feComposite in="SourceGraphic"/>
    </filter>
  </defs>
  <g id="Layer_1-2" data-name="Layer 1">
    <g class="cls-2">
      <path class="cls-1" d="M17.56,0C18.66,0,19.76,0,20.86,0c.07,.02,.14,.04,.22,.05,2.12,.2,4.17,.71,6.09,1.64,6.62,3.22,10.41,8.47,11.21,15.82,.32,3-.12,5.92-1.23,8.72-3.41,8.63-12.22,13.54-21.36,11.94-7.25-1.27-13.25-6.76-15.16-13.87C.33,23.16,.15,22.02,0,20.86,0,19.76,0,18.66,0,17.56c.09-.6,.15-1.22,.27-1.81C1.94,8.02,6.56,2.99,14.11,.65,15.23,.3,16.4,.16,17.56,0Zm-3.75,9.31c.42,0,.86-.05,1.27,.01,1.19,.19,2.08,1.19,2.35,2.52,.17,.82-.03,1.59-.19,2.37-.13,.61,.04,1.04,.58,1.36,.46,.27,.91,.58,1.35,.88,.75,.51,.92,1.13,.6,2.35-.17,.67-.77,1.01-1.65,1.04-.62,.02-1.22-.07-1.83-.09-1.43-.04-1.57,.04-1.91,1.42-.24,1-.78,1.77-1.59,2.38-.44,.33-.91,.61-1.39,.89-.6,.36-1.12,.8-1.35,1.5-.26,.79,.13,1.53,.93,1.78,.38,.12,.76,.11,1.15,.06,1.05-.14,1.99,.08,2.77,.83,.19,.18,.38,.37,.58,.54,.7,.58,1.54,.51,2.12-.19,.28-.34,.53-.7,.8-1.04,.56-.7,1.26-1.17,2.19-1.23,.77-.05,1.49,.12,2.2,.38,.39,.14,.56,.46,.45,.78-.11,.33-.43,.47-.83,.36-.27-.07-.53-.16-.79-.23-1-.28-1.79,0-2.39,.85-.25,.36-.52,.71-.8,1.04-.51,.59-1.15,.87-1.95,.86-.88-.01-1.57-.38-2.15-1-.54-.59-1.18-.85-1.98-.75-.42,.05-.84,.07-1.27,0-1.72-.25-2.72-1.86-2.15-3.5,.33-.93,1-1.57,1.82-2.07,.39-.24,.8-.47,1.18-.73,.67-.45,1.12-1.06,1.29-1.86,.07-.35,.19-.7,.34-1.03,.32-.71,.85-1.12,1.62-1.24,.52-.08,1.05-.06,1.57-.01,.5,.05,1,.06,1.5,.04,.15,0,.3-.04,.38-.19,.21-.41,.12-.78-.26-1.04-.48-.32-.98-.61-1.44-.95-.72-.52-1.03-1.22-.9-2.12,.09-.65,.32-1.29,.25-1.96-.1-.87-.57-1.94-1.91-1.87-.19,.01-.37,.01-.56,.02-.9,.03-1.8,.09-2.7,.09-2.23,.01-3.96-.91-5.16-2.8-.02-.03-.04-.06-.06-.09-.15-.24-.29-.3-.5-.03-.51,.64-.99,1.29-1.43,1.97-.15,.22-.14,.39,0,.61,.86,1.3,1.06,2.72,.77,4.24-.17,.92-.56,1.76-.82,2.65-.24,.85-.11,1.6,.47,2.28,.37,.43,.73,.86,1.08,1.29,.54,.65,.84,1.41,.96,2.24,.13,.9,.08,1.82,.22,2.73,.33,2.15,1.29,3.81,3.67,4.2,.95,.16,1.9,.34,2.78,.74,.96,.44,1.39,1.18,1.29,2.23-.1,1.11-.27,2.2-.06,3.32,.07,.35,.2,.48,.52,.56,2.09,.5,4.19,.65,6.33,.42,3.46-.38,6.54-1.67,9.28-3.81,.31-.24,.4-.53,.32-.89-.19-.84-.42-1.67-.79-2.46-.09-.19-.2-.38-.33-.55-.33-.45-.77-.62-1.32-.46-.31,.09-.62,.19-.93,.29-.77,.26-1.52,.23-2.28-.06-.46-.18-.66-.48-.52-.84,.13-.35,.46-.48,.91-.3,.57,.22,1.12,.2,1.68,0,.28-.1,.57-.19,.86-.26,1.06-.26,1.92,.05,2.58,.92,.31,.4,.53,.85,.69,1.32,.18,.52,.33,1.05,.5,1.57,.03,.1,0,.26,.14,.28,.12,.02,.18-.12,.25-.2,.34-.37,.68-.73,1-1.12,1.77-2.17,2.96-4.62,3.6-7.35,.07-.32,.05-.52-.27-.7-.54-.29-.91-.77-1.21-1.31-.23-.42-.4-.86-.52-1.32-.16-.61-.53-1.04-1.08-1.32-.22-.11-.45-.21-.68-.31-.43-.19-.6-.5-.46-.85,.14-.34,.47-.43,.93-.27,1.29,.47,2.23,1.25,2.54,2.66,.12,.53,.36,1.01,.75,1.41,.07,.07,.13,.18,.25,.13,.1-.04,.07-.15,.08-.24,.18-1.42,.16-2.85-.04-4.26-.62-4.42-2.59-8.13-5.91-11.12-1.62-1.46-3.47-2.58-5.51-3.36-.37-.14-.43-.09-.45,.3-.03,.68,.25,1.22,.76,1.64,.49,.41,1.01,.78,1.52,1.16,.44,.33,.88,.67,1.25,1.07,.67,.73,.92,1.56,.63,2.52-.11,.37-.24,.74-.36,1.1-.39,1.17-.69,2.35-.63,3.6,.05,1.28,.68,2.09,1.9,2.43,.16,.04,.32,.08,.47,.14,.32,.12,.47,.41,.4,.72-.07,.3-.37,.5-.69,.44-.71-.14-1.38-.35-1.95-.82-1.18-.98-1.42-2.3-1.33-3.73,.08-1.3,.46-2.53,.9-3.74,.38-1.05,.25-1.48-.61-2.2-.28-.23-.57-.45-.86-.67-.49-.37-.99-.72-1.46-1.12-.89-.77-1.31-1.76-1.13-2.94,.06-.35-.06-.46-.37-.54-1.5-.39-3.03-.57-4.57-.56-2.28,.02-4.5,.44-6.62,1.31-.78,.32-.82,.36-.4,1.1,.57,1,.1,2.41-.53,3.01-.13,.12-.27,.23-.44,.28-1.16,.33-1.97,.16-2.67-.77-.15-.2-.3-.4-.46-.59-.13-.17-.27-.19-.44-.03-.21,.2-.43,.38-.64,.58q-.44,.41-.09,.87c.08,.11,.16,.22,.24,.34,.94,1.41,2.27,2.09,3.96,2.11,.94,.01,1.87-.08,2.81-.05ZM3.62,13c-.02-.33-.09-.9-.34-1.43-.05-.11-.06-.28-.21-.27-.12,0-.14,.16-.19,.26-1.38,2.94-1.93,6.04-1.64,9.26,.31,3.46,1.52,6.58,3.64,9.34,2.06,2.68,4.66,4.65,7.81,5.88,.39,.15,.41,.14,.35-.27-.09-.58-.11-1.17-.02-1.75,.07-.47,.12-.94,.16-1.41,.03-.37-.15-.65-.49-.82-.2-.1-.41-.19-.63-.24-.76-.19-1.53-.39-2.3-.54-2.21-.44-3.45-1.87-4.09-3.94-.3-.96-.36-1.96-.38-2.96-.02-1.18-.33-2.24-1.18-3.1-.33-.34-.62-.72-.91-1.1-.5-.68-.72-1.44-.63-2.29,.06-.59,.22-1.15,.43-1.7,.32-.86,.59-1.73,.6-2.9ZM11.11,4.6c.02-.36-.26-.64-.35-.98-.06-.24-.19-.25-.38-.13-.37,.23-.75,.45-1.11,.68-.5,.32-.5,.33-.15,.79,.14,.19,.27,.39,.43,.56,.2,.23,.45,.34,.77,.28,.51-.1,.8-.51,.79-1.2Z"/>
      <path class="cls-1" d="M19.53,10.16c-.73,.03-1.3-.31-1.68-.89-.49-.74-1.15-1.2-1.95-1.51-.36-.14-.66-.36-.86-.69-.48-.78-.22-1.66,.64-1.97,.6-.22,1.02-.6,1.35-1.12,.24-.37,.49-.73,.82-1.02,1.01-.89,2.82-.43,3.29,.83,.1,.27,.09,.54,.04,.81-.14,.78-.04,1.51,.32,2.22,.46,.9,.16,2.3-.62,2.96-.3,.26-.72,.38-1.34,.38Zm-.43-6.46c-.23-.03-.42,.1-.56,.28-.25,.32-.49,.66-.73,.99-.37,.52-.82,.94-1.44,1.15-.12,.04-.31,.04-.3,.22,0,.18,.17,.24,.31,.29,1,.39,1.86,.97,2.44,1.9,.07,.11,.18,.21,.29,.29,.3,.21,.82,.17,1.05-.06,.32-.33,.44-1.02,.23-1.44-.43-.85-.58-1.74-.45-2.69,.08-.56-.25-.92-.83-.93Z"/>
      <path class="cls-1" d="M18.57,13.19c0-.53,.24-.94,.7-1.2,.5-.28,1.01-.55,1.53-.8,.93-.47,1.9,0,2.09,1.02,.17,.92-.06,1.77-.71,2.42-.61,.61-1.41,.66-2.2,.39-.76-.26-1.41-1.14-1.41-1.83Zm2.13,.74c.66,0,1.23-.83,1-1.46-.07-.18-.2-.27-.38-.18-.47,.23-.93,.48-1.39,.72-.12,.07-.17,.17-.11,.31,.14,.33,.52,.6,.87,.6Z"/>
      <path class="cls-1" d="M14.8,3.91c0,.32-.28,.61-.59,.6-.37,0-.52-.28-.66-.57-.13-.29-.2-.57,.04-.83,.21-.24,.56-.26,.81-.06,.17,.13,.41,.65,.41,.86Z"/>
    </g>
  </g>
</svg>