<?xml version="1.0" encoding="UTF-8"?>
<svg id="Layer_2" data-name="Layer 2" xmlns="http://www.w3.org/2000/svg" viewBox="0 0 96.48 122.02">
  <defs>
    <style>
      .cls-1 {
        fill: #fff;
      }
    </style>
  </defs>
  <g id="Layer_1-2" data-name="Layer 1">
    <g>
      <path class="cls-1" d="M21.11,122.02c-1.39-.98-1.84-1.97-1.43-3.19,.39-1.14,1.29-1.66,2.97-1.66,7.22,0,14.44-.02,21.66,.02,1.11,0,1.51-.27,1.5-1.45-.05-6.86-.04-13.72-.01-20.58,0-.77-.22-1.34-.77-1.89-2.91-2.87-5.8-5.76-8.67-8.67-.57-.58-1.16-.84-1.99-.83-3.05,.04-6.11,.03-9.16,0-12.56-.13-23.29-9.62-24.88-22.09-.62-4.85-.17-9.74-.21-14.62-.01-1.2,.92-2.22,2.09-2.2,5.46,.09,10.97-.63,16.38,.46,11,2.21,19.37,11.4,20.36,22.47,.33,3.7,.12,7.45,.1,11.18,0,.9,.25,1.57,.91,2.2,1.8,1.73,3.54,3.52,5.31,5.29,.1,.1,.24,.16,.38,.25,.24-.43,.14-.83,.14-1.21,0-10.95-.01-21.89,.03-32.84,0-1.24-.41-1.61-1.59-1.77-10.75-1.49-19.85-10.7-21.29-21.47C20.98,14.77,30.85,1.93,45.52,.18c3.28-.39,6.58-.14,9.77,.84,1.76,.54,2.62,1.79,2.21,3.22-.42,1.47-1.75,2.08-3.55,1.63-7.93-2.02-14.95-.31-20.58,5.63-5.7,6.01-7.22,13.25-4.44,21.05,2.72,7.62,8.36,12.2,16.34,13.4,11.29,1.69,21.47-5.94,23.29-17.15,.48-2.93,.27-5.84-.53-8.71-.1-.34-.22-.68-.29-1.03-.29-1.47,.39-2.68,1.74-3.09,1.28-.39,2.61,.31,3.07,1.74,1.77,5.5,1.82,11.04-.23,16.45-3.57,9.41-10.4,15.03-20.34,16.77-.97,.17-1.32,.52-1.31,1.53,.03,17.93,.02,35.86,.02,53.78,0,.3,.04,.61,.08,1.27,1.44-1.47,2.55-2.89,3.94-3.96,2.27-1.75,2.93-3.9,2.77-6.7-.18-3.27-.26-6.58,.19-9.86,1.52-10.92,11.05-20.24,22.02-21.44,4.74-.52,9.51-.16,14.26-.21,1.39-.01,2.42,.95,2.4,2.29-.05,4.99,.4,10-.24,14.97-1.48,11.43-11.75,20.92-23.22,21.68-3.57,.24-7.13,.12-10.7,.14-1,0-1.7,.31-2.39,1.02-2.71,2.78-5.44,5.56-8.26,8.23-.94,.89-.91,1.87-.83,2.93,.06,.79,.73,.58,1.2,.58,4.12,.01,8.25,0,12.37,0,3.17,0,6.35,0,9.52,0,1.68,0,2.58,.51,2.97,1.66,.41,1.21-.03,2.2-1.43,3.19H21.11Zm13.01-46.99c-.07-2.24,.06-4.43-.17-6.64-.9-8.74-7.12-15.93-15.67-18-4.14-1-8.36-.56-12.56-.63-.69-.01-.73,.46-.72,.97,.08,3.13-.13,6.26,.17,9.39,1.12,11.53,11.24,20.4,25.08,18.58-.12-.41-.48-.62-.75-.89-2.66-2.67-5.33-5.33-7.99-8-.48-.48-.98-.93-1.4-1.46-.84-1.04-.76-2.46,.14-3.35,.9-.89,2.31-.95,3.36-.12,.31,.25,.58,.54,.86,.82,2.86,2.86,5.72,5.72,8.59,8.58,.27,.27,.47,.64,1.04,.76Zm31.81,24.31c1.89,0,3.44,0,4.98,0,9.41-.07,17.61-6.51,19.89-15.64,1-3.98,.57-8.04,.7-12.07,.03-1.04-.4-1.29-1.33-1.27-2.34,.04-4.68,.02-7.02,.02-6.43-.02-11.7,2.49-15.87,7.32-4.45,5.15-5.33,11.28-4.79,18.1,1.67-1.71,3.16-3.23,4.66-4.75,1.79-1.8,3.57-3.61,5.39-5.38,1.16-1.13,2.71-1.14,3.71-.11,.97,1.01,.91,2.48-.16,3.62-.68,.72-1.4,1.41-2.1,2.11-2.6,2.6-5.2,5.21-8.05,8.05Z"/>
      <path class="cls-1" d="M56.23,20.07c.05,1.75-.87,2.88-2.23,3.01-1.46,.13-2.49-.75-2.74-2.34-.37-2.31-2.97-3.39-4.91-2.02-.72,.51-1.2,1.2-1.08,2.11,.12,.99,.74,1.68,1.66,2,.59,.21,1.23,.29,1.86,.33,3.53,.21,6.65,2.74,7.31,5.95,.71,3.42-.96,6.61-4.36,8.25-.61,.29-.98,.62-1.15,1.35-.25,1.13-1.25,1.77-2.39,1.75-1.17-.02-2.04-.61-2.29-1.71-.19-.84-.69-1.12-1.35-1.46-2.53-1.31-4.11-3.31-4.3-6.24-.1-1.56,.82-2.73,2.22-2.86,1.46-.13,2.49,.75,2.74,2.34,.37,2.31,2.97,3.39,4.91,2.02,.72-.51,1.2-1.2,1.08-2.11-.12-.99-.74-1.68-1.66-2-.59-.21-1.24-.29-1.86-.33-3.53-.21-6.65-2.74-7.31-5.95-.7-3.43,.97-6.62,4.36-8.25,.61-.29,.98-.62,1.15-1.35,.25-1.13,1.25-1.77,2.39-1.75,1.17,.02,2.03,.61,2.29,1.71,.19,.84,.69,1.13,1.35,1.46,2.59,1.32,4.12,3.39,4.31,6.09Z"/>
      <path class="cls-1" d="M64.55,11.72c-1.38,.02-2.51-1.07-2.53-2.44-.03-1.33,1.12-2.49,2.47-2.51,1.33-.02,2.53,1.13,2.54,2.45,0,1.37-1.09,2.48-2.47,2.5Z"/>
    </g>
  </g>
</svg>