<?xml version="1.0" encoding="UTF-8"?>
<svg id="Layer_2" data-name="Layer 2" xmlns="http://www.w3.org/2000/svg" viewBox="0 0 62.16 62.37">
  <defs>
    <style>
      .cls-1 {
        fill: #fff;
      }
    </style>
  </defs>
  <g id="Layer_1-2" data-name="Layer 1">
    <g>
      <path class="cls-1" d="M62.12,31.17c.91,16.5-13.99,31.71-31.56,31.19C13.85,61.87-.02,48.87,0,31.36,.02,13.66,13.59,.04,31.43,0c17.11-.04,31.56,14.62,30.69,31.17Zm-11.72-.06c0-2.88,.02-5.77,0-8.65-.05-5.38-3.4-9.39-8.7-10.26-6.25-1.02-12.58-.64-18.83-.35-6.3,.29-10.03,3.77-10.76,9.11-.36,2.69-.35,5.43-.55,8.14-.29,3.95,.34,7.86,.53,11.79,.24,5.04,3.48,8.45,8.46,9.22,6.48,1.01,13.04,.67,19.52,.31,6.99-.39,10.33-4.58,10.34-11.57,0-2.58,0-5.16,0-7.74Z"/>
      <path class="cls-1" d="M31.17,46.79c-2.35,0-4.7,0-7.06,0-5.61,0-8.44-2.27-8.66-7.89-.22-5.66-.41-11.34,.27-17.02,.51-4.31,3.81-6.21,7.07-6.32,5.61-.18,11.23-.15,16.84-.02,4.48,.1,7.02,2.65,7.31,8.15,.29,5.65,.63,11.36-.34,17.01-.67,3.92-3.24,6.05-7.24,6.08-2.73,.02-5.46,0-8.19,0Zm.11-5.78c5.77,0,9.94-4.07,10.01-9.76,.07-5.69-4.25-9.76-10.05-10.01-5.95-.25-10.16,4.82-10.09,10.18,.06,4.52,3.58,10.04,10.13,9.59Zm10.14-22.46c-1.46,.07-2.07,.87-2.1,2.35-.03,1.59,.87,2.22,2.22,2.29,1.65,.09,2.36-1.15,2.37-2.48,.01-1.37-1.06-2.07-2.49-2.17Z"/>
      <path class="cls-1" d="M37.52,31.14c0,3.38-2.98,6.48-6.26,6.51-3.25,.03-6.31-3.07-6.34-6.43-.03-3.3,2.86-6.62,6.01-6.43,3.7,.23,6.57,2.48,6.6,6.35Z"/>
    </g>
  </g>
</svg>