<?xml version="1.0" encoding="UTF-8"?>
<svg id="Layer_2" data-name="Layer 2" xmlns="http://www.w3.org/2000/svg" viewBox="0 0 127.37 126.92">
  <defs>
    <style>
      .cls-1 {
        fill: #fff;
      }
    </style>
  </defs>
  <g id="Layer_1-2" data-name="Layer 1">
    <path class="cls-1" d="M72.32,0c11.99,2.34,23.2,6.57,32.37,14.86,19.95,18.03,27.34,40.43,19.77,66.25-7.46,25.44-25.23,41.06-51.55,45.07C33.68,132.15-.73,101.32,.01,61.75,.57,32.02,22.49,6.4,52.28,.63c.86-.17,1.71-.42,2.56-.63,5.83,0,11.65,0,17.48,0Zm-17.08,98.12c15.69-.93,27.36-8.65,36.03-21.44,1.02-1.5,1.05-2.36-1.1-2.84-11.54-2.58-19.04-10.49-25.48-19.7-.74-1.06-2.2-2.44-.74-3.64,1.71-1.41,2.68,.46,3.6,1.56,3.77,4.5,8,8.48,13.06,11.47,3.5,2.07,7.15,3.82,11.37,3.85,2.75,.02,4.58-1.09,5.19-3.94,1.36-6.29,1.69-12.59-.53-18.71-.92-2.52-1.45-4.59,.08-7.12,1.05-1.71,1.1-3.99-.25-5.77-1.44-1.9-3.81-1.97-5.56-1.1-3.13,1.56-5.76,.84-8.58-.53-1.23-.6-2.64-.88-4.01-1.11-13.46-2.27-24.59,2.67-34.39,11.37-6.47,5.74-7.05,9.05-3.57,17.07,2.77,6.39,7.11,11.62,12.09,16.4,1.02,.98,2.92,2.04,1.45,3.68-1.45,1.62-2.81-.14-3.88-.99-6.19-4.92-11.67-10.48-15.31-17.64-.42-.83-.58-2.19-1.91-2.01-1,.13-1.14,1.23-1.44,2.05-2.85,7.86-3.55,15.82-.54,23.75,1.03,2.72,1.55,4.95,.34,7.88-1.58,3.79,1.72,7.64,5.27,6.05,4.01-1.79,7.28-.7,10.84,.47,2.57,.85,5.24,.82,7.95,.94Z"/>
  </g>
</svg>