<?xml version="1.0" encoding="UTF-8"?>
<svg id="Layer_2" data-name="Layer 2" xmlns="http://www.w3.org/2000/svg" viewBox="0 0 62.23 62.37">
  <defs>
    <style>
      .cls-1 {
        fill: #fff;
      }
    </style>
  </defs>
  <g id="Layer_1-2" data-name="Layer 1">
    <path class="cls-1" d="M.03,31.05C-.65,14.28,13.89-.15,31.1,0c17.13,.15,31.15,13.66,31.13,31.23-.03,17.72-14.27,31.49-32.3,31.13C14.03,62.05-.75,48.01,.03,31.05Zm33.64-4.97c-.11-2.3-1.32-2.74-3.09-2.53-.75,.09-1.52,.08-2.27,0-1.93-.2-2.49,.7-2.47,2.54,.08,5.39-.04,10.78,.05,16.16,.1,6.58-1.29,5.44,5.87,5.6,1.46,.03,2.04-.48,2.01-1.98-.07-3.41,0-6.83-.03-10.25-.01-1.16,.18-2.26,.61-3.32,.81-1.99,2.56-2.59,4.42-2.45,1.88,.14,2.7,1.5,3.1,3.36,.66,3.1,.3,6.19,.4,9.29,.2,6.19-1.31,5.23,5.69,5.34,1.27,.02,1.76-.5,1.75-1.76-.04-4.86,.13-9.72-.07-14.57-.2-4.83-2.65-7.69-6.82-8.32-3.37-.51-6.5,.07-9.13,2.88Zm-12.22,9.84c0-2.34,.02-4.69,0-7.03-.07-6,.83-5.2-5.3-5.35-2-.05-2.64,.66-2.61,2.63,.1,5.37,.03,10.74,.03,16.11,0,5.68,0,5.6,5.64,5.6,1.9,0,2.31-.74,2.26-2.43-.09-3.17-.03-6.35-.03-9.53Zm.45-20.07c-.02-2.6-1.6-4.14-4.26-4.12-2.8,.02-4.6,1.82-4.51,4.51,.08,2.4,2.15,4.29,4.66,4.27,2.48-.02,4.13-1.89,4.11-4.65Z"/>
  </g>
</svg>