<?xml version="1.0" encoding="UTF-8"?>
<svg id="Layer_2" data-name="Layer 2" xmlns="http://www.w3.org/2000/svg" viewBox="0 0 100.69 107.15">
  <defs>
    <style>
      .cls-1 {
        fill: #fff;
      }
    </style>
  </defs>
  <g id="Layer_1-2" data-name="Layer 1">
    <g>
      <path class="cls-1" d="M56.89,106.94c-4.77,.58-9.45-.07-14.06-1.01C14.72,100.25-4.38,72.28,.87,44.12c1.56-8.37,7.1-14.64,13.07-21.04,.2,1.54-.58,2.13-1.01,2.81C-.71,47.35,3.98,74.36,23.66,90.57c9.56,7.87,19.83,13.68,32.17,15.48,.42,.06,.94,.1,1.06,.89Z"/>
      <path class="cls-1" d="M54.56,70.22c-3.4-.22-6.73-.76-9.74-2.5-.99-.57-2.37-.88-2.15-2.46,.21-1.48,1.15-2.43,2.49-3.04,1.38-.62,2.68-.31,3.98,.23,2.06,.85,4.18,1.32,6.42,1.17,1.65-.12,3.2-.55,3.61-2.35,.42-1.78-.73-3.02-2.16-3.75-2.44-1.24-5-2.25-7.49-3.39-1.96-.89-3.58-2.18-4.66-4.09-2.33-4.12-1.03-9.43,2.97-12.13,4.45-3,12.82-2.96,17.32,.01,1.3,.86,1.33,1.94,.7,3.07-1.19,2.12-3.03,2.83-5.35,2.07-2.03-.66-4.09-.96-6.21-.74-1.38,.15-2.49,.72-2.78,2.21-.28,1.41,.6,2.31,1.7,2.84,2.79,1.36,5.74,2.41,8.46,3.89,6.13,3.35,7.42,10.87,2.77,15.51-2.72,2.72-6.27,3.17-9.87,3.44Z"/>
      <path class="cls-1" d="M31.72,35.6c2.67,.16,5.28,.6,7.75,1.63,1.34,.56,3.32,.78,2.62,3.06-.64,2.08-2.14,3.18-4.33,3.01-1.07-.08-2.11-.62-3.18-.79-1.17-.19-2.36-.24-3.55-.25-1.66-.02-3.24,.43-3.6,2.27-.35,1.79,1.12,2.55,2.47,3.18,2.4,1.12,4.88,2.08,7.24,3.28,4.38,2.23,6.45,5.9,5.93,10.17-.54,4.39-3.57,7.49-8.44,8.54-4.64,1-9.09,.36-13.32-1.72-1.34-.65-3.16-1.22-2.44-3.33,.71-2.09,2.34-3.01,4.51-2.71,.98,.13,1.92,.57,2.86,.93,1.93,.73,3.92,.85,5.94,.68,1.39-.12,2.47-.76,2.89-2.14,.42-1.4-.24-2.48-1.29-3.36-1.51-1.27-3.43-1.69-5.15-2.53-1.39-.68-2.86-1.23-4.2-2-3.21-1.84-4.83-4.63-4.66-8.38,.17-3.75,2.1-6.33,5.36-8,2.07-1.06,4.32-1.43,6.61-1.56Z"/>
      <path class="cls-1" d="M35.52,97.54c5.75,1.85,11.53,3,17.54,2.92,16.9-.22,30.07-7.42,39.74-21.18,.26-.37,.49-.78,.76-1.14,1.63-2.2,3.57-2.78,5.4-1.62,1.99,1.27,2.31,3.33,.76,5.73-4.95,7.7-11.44,13.77-19.5,18.1-4.27,2.3-8.65,4.53-13.52,5.16-8.2,1.06-15.98-.97-23.57-3.84-2.7-1.02-5.41-2.1-7.6-4.13Z"/>
      <path class="cls-1" d="M68.61,52.48c0-4.39,.09-8.78-.04-13.17-.07-2.26,.8-3.14,3.01-3.11,4.85,.06,9.69,0,14.54,.01,1.56,0,3.33-.17,3.54,2.04,.19,2.05-.79,3.52-2.71,4.29-1.58,.63-3.26,.3-4.89,.37-.64,.03-1.28,0-1.92,0-3.82,0-5.2,2.01-3.97,5.7,.34,1.03,1.08,1.12,1.93,1.12,2.1,.01,4.21-.03,6.31,.03,2.27,.07,3.08,1.3,2.29,3.41-.88,2.35-2.79,2.9-5.06,2.94-5.54,.11-5.54,.13-5.54,5.57,0,1.55,.06,3.11-.04,4.66-.15,2.23-1.65,3.3-3.67,3.3-2.12,0-3.73-1.01-3.75-3.46-.03-4.57,0-9.14,0-13.72,0,0,0,0-.01,0Z"/>
      <path class="cls-1" d="M4.59,32.7c2.56-7.16,6.79-13.29,12.35-18.39C27.42,4.68,39.88-.44,54.13,.03c19.46,.64,34.32,9.6,44.51,26.23,.53,.87,1.59,2.06,.25,2.85-1.35,.8-1.84-.75-2.38-1.6-8.19-12.76-19.55-20.86-34.61-23.32-13.67-2.23-26.1,1.03-37.32,9.1-7.6,5.47-14.82,11.33-19.99,19.41Z"/>
    </g>
  </g>
</svg>