<?xml version="1.0" encoding="UTF-8"?>
<svg id="Layer_2" data-name="Layer 2" xmlns="http://www.w3.org/2000/svg" viewBox="0 0 108.93 154.51">
  <defs>
    <style>
      .cls-1 {
        fill: #fff;
      }
    </style>
  </defs>
  <g id="Layer_1-2" data-name="Layer 1">
    <g>
      <path class="cls-1" d="M54.46,139.16C24.76,139.18-.05,115.11,0,84.59,.07,54.31,24.74,30.1,54.77,30.25c29.76,.15,54.44,24.42,54.16,55-.28,30.01-24.78,53.92-54.47,53.91Zm47.08-54.46c.07-25.62-20.71-46.89-46.67-47.09-26.44-.21-47.35,21.26-47.49,46.82-.14,25.88,20.78,47.19,46.73,47.38,26.35,.19,47.53-21.28,47.44-47.11Z"/>
      <path class="cls-1" d="M54.46,147.27c17.55,0,35.1,0,52.66,0,.22,0,.43,0,.65,0,.6,.02,.66,.06,.67,.69,0,1.95,0,3.9,0,5.85,0,.64-.06,.69-.72,.7-.19,0-.39,0-.59,0-35.1,0-70.21,0-105.31,0-.2,0-.39,0-.59,0-.68-.01-.73-.05-.73-.75,0-1.91,0-3.81,0-5.72,0-.13,0-.26,.02-.39,.03-.22,.14-.36,.38-.36,.26,0,.52-.01,.78-.01,17.6,0,35.19,0,52.79,0Z"/>
      <path class="cls-1" d="M72.97,7.82c.25-.07,.32-.24,.42-.37,.79-1.1,1.9-1.61,3.2-1.76,.49-.06,1-.05,1.49,0,1.38,.16,2.46,.78,3.15,2.02,.05,.09,.11,.18,.18,.29,.24-.09,.31-.31,.44-.47,1.72-2.14,5.26-2.53,7.37-.79,1.13,.93,1.64,2.16,1.68,3.59,.03,1.26,.02,2.51,.02,3.77,0,2.08,0,4.16,0,6.24,0,.17,0,.35,0,.52,0,.32-.14,.48-.47,.48-1.1,0-2.21,0-3.31,0-.29,0-.44-.15-.44-.44,0-.19,0-.39,0-.58,0-2.79,0-5.59,0-8.38,0-.44-.03-.87-.14-1.29-.22-.84-.87-1.36-1.73-1.41-.68-.04-1.34,.01-1.89,.49-.54,.47-.76,1.1-.84,1.78-.04,.36-.04,.74-.04,1.1,0,2.49,0,4.98,0,7.47,0,.15,0,.3,0,.45-.01,.77-.05,.8-.81,.8-.84,0-1.69,0-2.53,0-.83,0-.84-.01-.85-.83,0-2.71,0-5.42,0-8.12,0-.52-.06-1.04-.14-1.55-.14-.88-.65-1.4-1.52-1.56-.61-.11-1.21-.05-1.79,.18-.72,.29-1.07,.86-1.16,1.6-.05,.41-.05,.82-.06,1.23,0,2.62,0,5.24,0,7.86,0,.17,0,.35,0,.52-.03,.6-.08,.65-.7,.66-.97,0-1.95,0-2.92,0-.57,0-.63-.07-.65-.64-.01-.35,0-.69,0-1.04,0-4.2,0-8.41,0-12.61q0-1.02,.99-1.02c.82,0,1.65,0,2.47,0,.54,0,.59,.06,.6,.6,.01,.38,0,.76,0,1.17Z"/>
      <path class="cls-1" d="M2.17,14.89c.52,0,1.04,.01,1.56,0,.36-.01,.58,.11,.64,.48,0,.06,.04,.12,.05,.19,.3,1.52,1.31,2.32,2.76,2.54,1.18,.18,2.38,.18,3.55-.08,.43-.1,.82-.27,1.19-.5,.71-.45,1-1.14,.98-1.94-.01-.61-.28-1.13-.83-1.46-.56-.34-1.17-.57-1.8-.72-1.31-.31-2.62-.6-3.92-.9-.89-.21-1.76-.46-2.61-.78C1.6,10.89,.43,9.24,.34,6.95,.23,3.86,1.86,1.46,4.82,.55c2.46-.76,4.96-.77,7.39,.17,1.76,.68,3.15,1.8,3.88,3.61,.26,.65,.41,1.32,.45,2.02,.03,.49-.01,.55-.48,.55-1.08,.01-2.17,0-3.25,0-.38,0-.54-.17-.61-.52-.27-1.44-1.23-2.18-2.6-2.47-1.14-.24-2.28-.23-3.4,.14-1.08,.36-1.64,1.08-1.68,2.07-.03,.81,.32,1.37,1.04,1.72,.67,.32,1.38,.5,2.1,.67,1.45,.35,2.91,.69,4.36,1.04,.87,.21,1.71,.49,2.5,.91,1.58,.83,2.42,2.15,2.66,3.91,.46,3.34-1.64,5.83-4.1,6.79-1.12,.44-2.28,.68-3.49,.69-1.28,.02-2.55,.02-3.81-.26-1.27-.28-2.43-.77-3.46-1.58C.84,18.86,.14,17.28,0,15.42c-.03-.41,.08-.52,.54-.53,.54-.01,1.08,0,1.62,0Z"/>
      <path class="cls-1" d="M61.65,14.85c-1.52,0-3.03,0-4.55,0-.15,0-.3,0-.45,0-.41,.03-.5,.11-.47,.53,.07,.95,.44,1.76,1.2,2.36,1.32,1.05,4.08,1.16,5.15-.62,.16-.26,.38-.39,.69-.39,1.06,0,2.12,0,3.19,0,.5,0,.58,.13,.45,.6-.19,.7-.55,1.32-1.01,1.87-1.04,1.27-2.35,2.11-3.96,2.44-2.57,.52-4.99,.22-7.2-1.32-1.27-.89-2.06-2.1-2.44-3.57-.51-1.97-.5-3.95,.03-5.91,.8-2.96,3.15-4.89,6.21-5.2,1.05-.11,2.08-.06,3.1,.16,2.8,.61,4.5,2.38,5.27,5.09,.31,1.07,.33,2.18,.34,3.29,0,.6-.07,.67-.68,.67-1.63,0-3.25,0-4.88,0Zm-2.13-2.78c.95,0,1.9,0,2.85,0,.41,0,.46-.07,.4-.47-.11-.68-.4-1.27-.92-1.74-.61-.55-1.34-.79-2.14-.81-1.64-.04-2.84,.59-3.37,2.5-.12,.42-.05,.51,.39,.51,.93,.01,1.86,0,2.79,0Z"/>
      <path class="cls-1" d="M102.99,19.89c-.31,.05-.42,.25-.58,.38-1.59,1.34-3.4,1.88-5.45,1.44-2.32-.49-3.76-2.21-3.57-4.89,.02-.28,.05-.56,.11-.84,.32-1.46,1.17-2.48,2.53-3.09,1.2-.53,2.49-.7,3.78-.86,.56-.07,1.11-.16,1.67-.25,.21-.04,.42-.12,.62-.2,.52-.21,.77-.6,.74-1.17-.03-.63-.24-.97-.83-1.18-.79-.27-1.6-.33-2.43-.17-.77,.15-1.28,.58-1.53,1.33-.18,.57-.07,.68-.97,.67-.84,0-1.69,0-2.53,0-.64,0-.69-.05-.61-.67,.29-2.24,1.46-3.77,3.67-4.39,2.16-.6,4.33-.55,6.45,.2,2.12,.75,2.95,1.96,2.96,4.21,.01,2.1,0,4.2,0,6.3,0,.76,0,1.52,0,2.27,0,.6,.08,1.17,.63,1.56,.2,.14,.24,.36,.16,.58-.09,.24-.32,.19-.5,.19-1.15,0-2.3,0-3.44,0-.47,0-.54-.07-.68-.54-.08-.29-.13-.58-.21-.92Zm-.16-4.6h0c0-.26,.01-.52,0-.78-.02-.34-.08-.38-.4-.24-.56,.24-1.16,.33-1.76,.45-.66,.13-1.33,.21-1.95,.48-.92,.4-1.35,1.22-1.16,2.22,.16,.86,.84,1.41,1.85,1.37,2.04-.08,3.41-1.05,3.41-3.24,0-.09,0-.17,0-.26Z"/>
      <path class="cls-1" d="M38.31,10.8c-.52,0-1.04,0-1.56,0-.27,0-.47-.08-.53-.37-.27-1.45-1.56-1.65-2.71-1.67-.3,0-.6,.06-.9,.12-.34,.06-.67,.19-.92,.45-.52,.54-.42,1.3,.25,1.63,.39,.19,.81,.31,1.23,.41,1.09,.28,2.19,.52,3.28,.79,.78,.2,1.52,.48,2.23,.89,3.04,1.74,2.45,5.34,.92,6.94-.74,.78-1.63,1.29-2.66,1.54-2.12,.51-4.26,.54-6.36-.07-2.07-.6-3.37-1.97-3.77-4.12-.02-.13-.05-.26-.05-.39-.02-.47,.07-.6,.54-.6,1.04-.02,2.08,0,3.12,0,.37,0,.56,.17,.62,.52,.19,1.09,.93,1.53,1.95,1.7,.78,.13,1.55,.15,2.32-.02,.26-.06,.5-.13,.73-.26,.38-.22,.6-.55,.59-1.01-.01-.47-.26-.78-.67-.95-.42-.17-.85-.31-1.29-.43-1.19-.32-2.39-.61-3.58-.93-.67-.18-1.31-.44-1.92-.77-1.47-.79-2.04-2.07-1.93-3.67,.16-2.21,1.41-3.62,3.39-4.43,1.24-.51,2.57-.61,3.9-.49,1.17,.1,2.31,.33,3.37,.88,1.58,.82,2.28,2.18,2.5,3.87,.05,.37-.04,.46-.43,.47-.54,.02-1.08,0-1.62,0Z"/>
      <path class="cls-1" d="M44.15,14.26c0-1.47,0-2.95,0-4.42,0-.7-.01-.71-.74-.72-.3,0-.61,0-.91,0-.32,0-.5-.14-.5-.46,0-.69,0-1.39,0-2.08,0-.32,.19-.47,.5-.47,.32,0,.65,0,.97-.01,.62-.02,.67-.06,.68-.67,0-.89,0-1.78,0-2.66,0-.86,0-.87,.87-.87,.8,0,1.6,0,2.4,0,.8,0,.82,.03,.82,.85,0,.89,0,1.78,0,2.66,0,.63,.05,.67,.66,.69,.43,.01,.87,0,1.3,.02,.41,.03,.49,.11,.5,.53,.02,.65,.02,1.3,0,1.95-.01,.44-.09,.5-.56,.52-.48,.02-.95,.01-1.43,0-.33,0-.47,.14-.47,.47,0,.54,0,1.08,0,1.62,0,1.91,0,3.81,0,5.72,0,1.3,.17,1.46,1.46,1.47,.99,0,1.02-.11,1.01,1.05,0,.52,0,1.04,0,1.56,0,.32-.14,.49-.46,.51-1.43,.09-2.86,.2-4.25-.25-1.18-.38-1.82-1.22-1.84-2.47-.03-1.52,0-3.03,0-4.55,0,0,0,0,0,0Z"/>
      <path class="cls-1" d="M24.04,13.63c0,2.21,0,4.42,0,6.62,0,.17,0,.35,0,.52-.03,.5-.09,.57-.58,.58-1.02,.01-2.03,.01-3.05,0-.5,0-.55-.07-.57-.57,0-.15,0-.3,0-.45,0-4.46,0-8.92,0-13.37q0-.98,.96-.99c.82,0,1.64,0,2.47,0,.71,0,.78,.08,.78,.79,0,2.29,0,4.59,0,6.88Z"/>
      <path class="cls-1" d="M21.9,4.31c-.52,0-1.04,.01-1.56,0-.43-.01-.5-.07-.5-.5-.02-.93-.02-1.86,0-2.79,0-.42,.09-.51,.49-.52,1.06-.02,2.12-.02,3.18,0,.4,0,.51,.12,.52,.51,.02,.93,.02,1.86,0,2.79,0,.44-.1,.5-.57,.51-.52,.01-1.04,0-1.56,0h0Z"/>
      <path class="cls-1" d="M69.09,82.75c.4,.17,.67,.28,.95,.4,1.16,.49,2.29,1.05,3.36,1.7,3.13,1.92,5.04,4.69,5.83,8.25,.7,3.18,.67,6.34-.41,9.42-1.73,4.94-5.03,8.43-9.91,10.36-2.44,.96-4.99,1.4-7.6,1.59-1.82,.13-3.64,.09-5.46,.09-7,.01-14,0-21,0q-1.07,0-1.07-1.07c0-18.99,0-37.97,0-56.96q0-1.06,1.08-1.06c8.21,0,16.43-.01,24.64,0,2.99,0,5.93,.37,8.71,1.54,4.64,1.94,7.42,5.41,8.37,10.34,.49,2.55,.33,5.1-.44,7.58-1,3.2-3.08,5.52-5.95,7.18-.32,.18-.64,.36-1.09,.62Zm-27.32,14.49c0,3.1,0,6.19,0,9.29,0,.19,0,.39,0,.58,0,.26,.14,.4,.4,.41,.13,0,.26,.01,.39,.01,5.67,0,11.35,0,17.02,0,1.92,0,3.8-.26,5.6-.95,2.94-1.13,4.91-3.19,5.83-6.21,.6-1.96,.63-3.97,.22-5.97-.46-2.21-1.65-3.93-3.54-5.16-1.02-.67-2.14-1.13-3.32-1.46-1.87-.52-3.78-.74-5.71-.75-5.37-.03-10.74-.02-16.11-.02-.11,0-.22,0-.32,0-.33-.01-.47,.16-.46,.48,0,.17,0,.35,0,.52,0,3.08,0,6.15,0,9.23Zm0-25.95c0,2.71,0,5.42,0,8.13,0,.17,0,.35,0,.52,0,.26,.15,.4,.4,.41,.19,0,.39,.01,.58,.01,2.12,0,4.25,0,6.37,0,3.14-.01,6.28,.07,9.43-.05,1.72-.06,3.4-.36,5.01-1.01,2.5-1,4.15-2.78,4.78-5.42,.38-1.58,.39-3.18,.13-4.78-.29-1.78-1.08-3.28-2.47-4.44-1-.84-2.16-1.35-3.41-1.68-1.81-.48-3.67-.63-5.53-.65-4.83-.04-9.66-.02-14.5-.02-.15,0-.3,0-.45,0-.2,.01-.32,.12-.33,.33-.01,.19-.01,.39-.01,.58,0,2.69,0,5.37,0,8.06Z"/>
    </g>
  </g>
</svg>