<?xml version="1.0" encoding="UTF-8"?>
<svg id="Layer_2" data-name="Layer 2" xmlns="http://www.w3.org/2000/svg" xmlns:xlink="http://www.w3.org/1999/xlink" viewBox="0 0 394.23 332.75">
  <defs>
    <style>
      .cls-1 {
        fill: #fff;
      }

      .cls-2 {
        fill: #f29d42;
      }

      .cls-3 {
        fill: #81c4a1;
      }

      .cls-4 {
        fill: #f3c87d;
      }

      .cls-5 {
        fill: #f0eeef;
      }

      .cls-6, .cls-7, .cls-8, .cls-9, .cls-10 {
        fill: none;
      }

      .cls-6, .cls-7, .cls-9 {
        stroke-linecap: round;
      }

      .cls-6, .cls-7, .cls-9, .cls-10 {
        stroke-miterlimit: 10;
      }

      .cls-6, .cls-9 {
        stroke: #fff;
      }

      .cls-11 {
        fill: #0073a5;
      }

      .cls-7 {
        stroke: #0073a5;
      }

      .cls-12 {
        clip-path: url(#clippath);
      }

      .cls-9 {
        stroke-width: 2px;
      }

      .cls-10 {
        stroke: #f3c87d;
        stroke-width: 6px;
      }
    </style>
    <clipPath id="clippath">
      <path class="cls-8" d="M230.17,6.94c73.61,4.42,65.25,55.46,105.52,79.62,40.27,24.16,53.16,76.25,42.69,100.42-10.47,24.16-38.66,117.6-140.96,137.74-102.3,20.14-188.49,3.22-215.07-60.41C-4.23,200.68-17.32,135.09,42.78,54.87,101.29-23.23,181.9,4.05,230.17,6.94Zm96.39,46.06c0,5.73,8.23,9.31,18.62,11.81,10.38,2.51,14.32-12.17,14.32-16.11s-3.32-16.81-16.47-14.62c-8.95,1.49-16.47,13.19-16.47,18.92Zm56.47-7.87c-3.35,0-5.44,4.81-6.9,10.88s7.11,8.37,9.41,8.37,9.82-1.94,8.55-9.62c-.87-5.23-7.71-9.62-11.06-9.62Z"/>
    </clipPath>
  </defs>
  <g id="Layer_1-2" data-name="Layer 1">
    <g>
      <path class="cls-8" d="M230.17,6.94c73.61,4.42,65.25,55.46,105.52,79.62,40.27,24.16,53.16,76.25,42.69,100.42-10.47,24.16-38.66,117.6-140.96,137.74-102.3,20.14-188.49,3.22-215.07-60.41C-4.23,200.68-17.32,135.09,42.78,54.87,101.29-23.23,181.9,4.05,230.17,6.94Zm96.39,46.06c0,5.73,8.23,9.31,18.62,11.81,10.38,2.51,14.32-12.17,14.32-16.11s-3.32-16.81-16.47-14.62c-8.95,1.49-16.47,13.19-16.47,18.92Zm56.47-7.87c-3.35,0-5.44,4.81-6.9,10.88s7.11,8.37,9.41,8.37,9.82-1.94,8.55-9.62c-.87-5.23-7.71-9.62-11.06-9.62Z"/>
      <path class="cls-5" d="M230.17,6.94c73.61,4.42,65.25,55.46,105.52,79.62,40.27,24.16,53.16,76.25,42.69,100.42-10.47,24.16-38.66,117.6-140.96,137.74-102.3,20.14-188.49,3.22-215.07-60.41C-4.23,200.68-17.32,135.09,42.78,54.87,101.29-23.23,181.9,4.05,230.17,6.94Zm96.39,46.06c0,5.73,8.23,9.31,18.62,11.81,10.38,2.51,14.32-12.17,14.32-16.11s-3.32-16.81-16.47-14.62c-8.95,1.49-16.47,13.19-16.47,18.92Zm56.47-7.87c-3.35,0-5.44,4.81-6.9,10.88s7.11,8.37,9.41,8.37,9.82-1.94,8.55-9.62c-.87-5.23-7.71-9.62-11.06-9.62Z"/>
      <g class="cls-12">
        <g>
          <g>
            <path class="cls-4" d="M232.38,75.38c1.51,2.59,4.47,2.17,5.48-.77,3.18-9.22,5.51-26.19-3.22-25.9-10.62,.35-8.49,15.96-2.26,26.67Z"/>
            <path class="cls-4" d="M237.37,74.87c-1.8,2.4-.25,4.96,2.86,4.74,9.73-.68,26.26-5.18,22.57-13.1-4.48-9.64-18.01-1.56-25.43,8.36Z"/>
          </g>
          <g>
            <path class="cls-4" d="M215.44,109.41c1.97,3.39,5.84,2.84,7.17-1.01,4.16-12.06,7.21-34.25-4.21-33.87-13.89,.46-11.1,20.88-2.96,34.88Z"/>
            <path class="cls-4" d="M221.97,108.74c-2.35,3.14-.33,6.49,3.74,6.2,12.72-.89,34.33-6.78,29.52-17.13-5.86-12.6-23.56-2.05-33.26,10.93Z"/>
          </g>
          <g>
            <path class="cls-4" d="M200.88,152.09c2.33,3.16,6.12,2.18,7.02-1.79,2.82-12.44,3.42-34.83-7.89-33.21-13.75,1.97-8.76,21.97,.87,35Z"/>
            <path class="cls-4" d="M207.3,150.72c-1.99,3.38,.39,6.48,4.39,5.76,12.55-2.28,33.39-10.49,27.47-20.26-7.2-11.89-23.64,.54-31.86,14.5Z"/>
          </g>
          <g>
            <path class="cls-4" d="M187.74,203.47c3.34,3.06,7.42,1.13,7.56-3.57,.45-14.73-3.81-40.25-16.27-35.92-15.16,5.27-5.08,26.84,8.71,39.49Z"/>
            <path class="cls-4" d="M194.72,200.49c-1.51,4.27,1.87,7.27,6.25,5.56,13.73-5.35,35.55-19.26,26.68-29.03-10.79-11.89-26.69,5.83-32.93,23.47Z"/>
          </g>
          <path class="cls-10" d="M237.37,74.87s-64.77,153.73-63.12,266.52"/>
        </g>
        <path class="cls-3" d="M206.87,170.56c-22.21-14.8-19.84-29.19-35.21-49.86-15.38-20.67-38.31-7.21-52.9-11.33-14.59-4.12-26.36-18.65-42.46-9.21-16.09,9.44-9.15,26.81-12.66,41.56-3.52,14.75-26.45,28.21-15.9,51.71,10.55,23.5,24.27,28.45,26.36,55.06,2.09,26.61-40.73,33.27,22.83,86.83,36.01,30.34,85.08,11.32,114.04-5.68,28.97-17,69.21-50.51,60.57-96.79-13.43-72.02-42.46-47.46-64.67-62.27Z"/>
        <g>
          <line class="cls-9" x1="210.97" y1="329.63" x2="89.06" y2="121.9"/>
          <g>
            <g>
              <path class="cls-9" d="M133.05,130.1s-.25,22.42-17.26,37.35"/>
              <path class="cls-9" d="M159.59,144.23s-.36,32.86-25.3,54.74"/>
              <path class="cls-9" d="M188.41,167.21s-.46,41.63-32.06,69.36"/>
              <path class="cls-9" d="M194.97,178.39s-.46,41.63-32.06,69.36"/>
              <path class="cls-9" d="M222.99,192.55s-.59,52.91-40.74,88.15"/>
              <path class="cls-9" d="M235.46,213.8s-.59,52.91-40.74,88.15"/>
            </g>
            <path class="cls-9" d="M70.55,157.13s19.69,10.71,41.03,3.14"/>
            <path class="cls-9" d="M69.94,187.18s28.86,15.7,60.13,4.61"/>
            <path class="cls-9" d="M75.95,223.55s36.57,19.9,76.19,5.84"/>
            <path class="cls-9" d="M82.51,234.73s36.57,19.9,76.19,5.84"/>
            <path class="cls-9" d="M81.21,266.1s46.48,25.29,96.83,7.42"/>
            <path class="cls-9" d="M101.85,301.27s46.48,25.29,96.83,7.42"/>
          </g>
        </g>
        <g>
          <path class="cls-10" d="M128.36,340.03s6.6-47.83-82.12-105"/>
          <path class="cls-4" d="M114.35,298.98c2.43,1.79,2.13,5.54-.54,6.94-8.38,4.39-23.93,8.02-23.93-2.98,0-13.39,14.43-11.35,24.47-3.95Z"/>
          <path class="cls-4" d="M120.7,299.63c-2.46,1.76-5.92,.31-6.43-2.66-1.58-9.33-.23-25.23,10.24-21.83,12.73,4.14,6.33,17.24-3.81,24.49Z"/>
          <path class="cls-4" d="M92.08,272.07c3.03,1.98,2.91,6.48-.2,8.33-9.74,5.8-28.1,11.16-28.82-2-.88-16.02,16.52-14.53,29.01-6.33Z"/>
          <path class="cls-4" d="M99.71,272.44c-2.82,2.26-7.07,.76-7.86-2.77-2.5-11.06-1.92-30.17,10.82-26.78,15.5,4.12,8.7,20.2-2.95,29.55Z"/>
          <path class="cls-4" d="M70.13,252.21c2.34,1.54,2.26,5.02-.15,6.45-7.55,4.49-21.76,8.65-22.32-1.55-.68-12.4,12.79-11.25,22.47-4.9Z"/>
          <path class="cls-4" d="M76.04,252.49c-2.19,1.75-5.47,.59-6.09-2.14-1.94-8.57-1.49-23.37,8.38-20.75,12.01,3.19,6.74,15.65-2.29,22.89Z"/>
          <path class="cls-4" d="M45.54,233.88c2.19,.78,2.8,3.61,1.14,5.24-5.21,5.1-15.86,11.24-18.31,3.12-2.98-9.88,8.12-11.58,17.17-8.36Z"/>
          <path class="cls-4" d="M49.72,234.04c-1.42,1.84-4.3,1.55-5.33-.54-3.24-6.53-5.78-18.56,2.7-18.38,10.31,.22,8.5,11.31,2.64,18.92Z"/>
        </g>
        <g>
          <path class="cls-2" d="M288.95,89.87c-21.85,26.98-111.38,149.03-67.03,288.94,.83,2.63,4.2,3.41,6.1,1.42,101.52-106,75.02-255.03,67.32-288.88-.68-2.97-4.47-3.85-6.39-1.49Z"/>
          <g>
            <line class="cls-6" x1="225.53" y1="377.22" x2="283.33" y2="128.6"/>
            <g>
              <line class="cls-6" x1="287.55" y1="154.74" x2="273.62" y2="170.36"/>
              <line class="cls-6" x1="289.12" y1="186.26" x2="263.15" y2="215.41"/>
              <line class="cls-6" x1="289.99" y1="216.19" x2="253.43" y2="257.22"/>
              <line class="cls-6" x1="279.33" y1="262.03" x2="242.77" y2="303.06"/>
            </g>
            <g>
              <line class="cls-6" x1="268.02" y1="150.2" x2="273.62" y2="170.36"/>
              <line class="cls-6" x1="252.7" y1="177.79" x2="263.15" y2="215.41"/>
              <line class="cls-6" x1="238.73" y1="204.27" x2="253.43" y2="257.22"/>
              <line class="cls-6" x1="228.07" y1="250.11" x2="242.77" y2="303.06"/>
            </g>
          </g>
        </g>
        <g>
          <path class="cls-3" d="M322.87,196.44c-17.21,13.35-89.35,75.11-82.27,166.91,.13,1.72,2.08,2.68,3.53,1.74,77.17-50.23,82.3-145.05,82.43-166.83,.01-1.91-2.18-2.99-3.69-1.82Z"/>
          <g>
            <line class="cls-7" x1="243.08" y1="363.14" x2="313.94" y2="219.55"/>
            <g>
              <line class="cls-7" x1="312.78" y1="236.11" x2="302.04" y2="243.67"/>
              <line class="cls-7" x1="309.23" y1="255.59" x2="289.2" y2="269.68"/>
              <line class="cls-7" x1="305.48" y1="274" x2="277.28" y2="293.83"/>
              <line class="cls-7" x1="292.41" y1="300.48" x2="264.21" y2="320.31"/>
            </g>
            <g>
              <line class="cls-7" x1="301.5" y1="230.55" x2="302.04" y2="243.67"/>
              <line class="cls-7" x1="288.19" y1="245.21" x2="289.2" y2="269.68"/>
              <line class="cls-7" x1="275.87" y1="259.39" x2="277.28" y2="293.83"/>
              <line class="cls-7" x1="262.8" y1="285.86" x2="264.21" y2="320.31"/>
            </g>
          </g>
        </g>
      </g>
      <g>
        <path class="cls-11" d="M227.2,154.67H120.15c-6.48,0-11.74,5.26-11.74,11.74v53.37c0,6.48,5.26,11.74,11.74,11.74h26.72c3.29,0,6.27,1.94,7.6,4.94l13.32,20.62c2.14,3.31,6.98,3.31,9.11,0l13.36-20.72c1.31-2.95,4.23-4.84,7.45-4.84h29.5c6.48,0,11.74-5.26,11.74-11.74v-53.37c0-6.48-5.26-11.74-11.74-11.74Z"/>
        <g>
          <path class="cls-1" d="M173.67,213.14c-7.94,0-15.87,0-23.81,0-.89,0-1.75-.16-2.56-.52-.17-.07-.33-.16-.49-.25-.14-.09-.15-.15,0-.26,.2-.16,.42-.32,.63-.47,2.33-1.73,4.66-3.45,6.99-5.18,4.27-3.16,8.53-6.32,12.8-9.48,.17-.12,.33-.24,.5-.36,.3-.22,.3-.22,.59,0,.66,.49,1.33,.97,1.98,1.47,1.09,.83,2.34,1.18,3.69,1.11,1.09-.06,2.1-.38,2.99-1.05,.68-.52,1.38-1.02,2.07-1.53,.29-.21,.29-.21,.59,.01,1.53,1.14,3.06,2.27,4.6,3.41,4.79,3.55,9.58,7.09,14.37,10.64,.63,.47,1.27,.94,1.9,1.41,.21,.16,.21,.2-.02,.33-.83,.46-1.72,.73-2.68,.74-1.59,0-3.17,0-4.76,0-6.45,0-12.9,0-19.35,0Z"/>
          <path class="cls-1" d="M173.69,177.26c7.95,0,15.9,0,23.84,0,.61,0,1.21,.07,1.79,.24,.11,.04,.28,.04,.31,.17,.02,.14-.14,.19-.24,.26-3.19,2.37-6.39,4.73-9.58,7.09-1.65,1.22-3.3,2.45-4.95,3.67-3.19,2.36-6.4,4.72-9.58,7.1-.83,.62-2.4,.63-3.25,0-2.75-2.07-5.52-4.1-8.28-6.15-4.16-3.08-8.31-6.16-12.47-9.23-1.1-.82-2.2-1.63-3.3-2.44-.06-.05-.13-.09-.19-.14-.17-.14-.17-.2,.03-.27,.46-.15,.92-.27,1.4-.29,.24-.01,.48,0,.72,0,7.91,0,15.83,0,23.74,0Z"/>
          <path class="cls-1" d="M203.53,195.22c0,3.99,0,7.97,0,11.96,0,.87-.18,1.7-.53,2.49-.01,.03-.03,.06-.04,.09-.18,.37-.22,.39-.54,.15-1.82-1.34-3.63-2.69-5.45-4.04-4.15-3.07-8.29-6.14-12.44-9.21-.82-.6-1.64-1.21-2.45-1.81-.33-.25-.33-.26,0-.5,3.84-2.84,7.67-5.68,11.51-8.52,2.74-2.03,5.49-4.06,8.23-6.1,.06-.05,.13-.1,.19-.14,.19-.12,.22-.12,.37,.06,.27,.34,.48,.72,.66,1.12,.34,.78,.51,1.6,.51,2.46,0,4,0,7.99,0,11.99Z"/>
          <path class="cls-1" d="M143.81,195.2c0-4.01,0-8.02,0-12.02,0-1.25,.36-2.38,1.07-3.4,0,0,.01-.02,.02-.03,.21-.3,.22-.3,.51-.09,.27,.19,.53,.39,.8,.59,3.49,2.58,6.97,5.17,10.46,7.75,2.84,2.1,5.67,4.2,8.51,6.3,.38,.28,.5,.26,0,.62-4.54,3.36-9.08,6.73-13.62,10.09-2.19,1.62-4.39,3.25-6.58,4.87-.4,.3-.41,.3-.62-.16-.36-.78-.55-1.59-.55-2.45,0-4.02,0-8.04,0-12.06Z"/>
        </g>
      </g>
    </g>
  </g>
</svg>