<?xml version="1.0" encoding="UTF-8"?>
<svg id="Layer_2" data-name="Layer 2" xmlns="http://www.w3.org/2000/svg" xmlns:xlink="http://www.w3.org/1999/xlink" viewBox="0 0 324.93 296.35">
  <defs>
    <style>
      .cls-1 {
        fill: url(#linear-gradient);
      }

      .cls-1, .cls-2 {
        opacity: .5;
      }

      .cls-2 {
        fill: url(#linear-gradient-2);
      }

      .cls-3 {
        clip-path: url(#clippath);
      }

      .cls-4 {
        fill: none;
        stroke: #000;
        stroke-linecap: round;
        stroke-linejoin: round;
        stroke-width: 2.45px;
      }
    </style>
    <linearGradient id="linear-gradient" x1="179.54" y1="103.01" x2="234.87" y2="103.01" gradientTransform="translate(383.67 381.12) rotate(-148.86)" gradientUnits="userSpaceOnUse">
      <stop offset="0" stop-color="#acfcb4"/>
      <stop offset=".23" stop-color="#43ebc9"/>
      <stop offset=".34" stop-color="#17e4d2"/>
      <stop offset=".44" stop-color="#0fe2d2"/>
      <stop offset=".64" stop-color="#04e1d3"/>
      <stop offset="1" stop-color="#2ca7ec"/>
    </linearGradient>
    <linearGradient id="linear-gradient-2" x1="66.14" y1="190.17" x2="121.46" y2="190.17" gradientTransform="translate(106.2 -106.9) rotate(31.14)" gradientUnits="userSpaceOnUse">
      <stop offset="0" stop-color="#9157f6"/>
      <stop offset=".64" stop-color="#4eaeef"/>
      <stop offset="1" stop-color="#2cdbec"/>
    </linearGradient>
    <clipPath id="clippath">
      <path class="cls-4" d="M323.7,198.37s-57.51-32.01-93.47-46.44c.23,3.94,.29,14.64-4.37,27.12,10.27,3.57,20.66,8.23,26.67,13.84,14.94,13.94,47.83,35.69,54.89,37.72"/>
    </clipPath>
  </defs>
  <g id="Layer_1-2" data-name="Layer 1">
    <g>
      <g>
        <path class="cls-1" d="M295.04,127.89c-.59,.06-1.01,.6-.93,1.19,3.86,27.86-2.02,56.42-16.6,80.55-13.12,21.71-32.23,38.58-55.32,48.84-.54,.24-1.17-.01-1.4-.55l-7.83-18.03c-.23-.53,.01-1.14,.54-1.38,18.93-8.45,34.6-22.31,45.37-40.14,11.97-19.81,16.82-43.25,13.7-66.12-.08-.59-.64-1-1.23-.9l-8.01,1.34c-.87,.15-1.52-.77-1.11-1.54l15.5-28.89c.33-.61,1.14-.75,1.64-.28l25.3,23.11c.67,.61,.3,1.74-.6,1.83l-9.03,.96Z"/>
        <path class="cls-2" d="M52.69,162.28c.59-.06,1.01-.6,.93-1.19-3.86-27.86,2.02-56.42,16.6-80.55,13.12-21.71,32.23-38.58,55.32-48.84,.54-.24,1.17,.01,1.4,.55l7.83,18.03c.23,.53-.01,1.14-.54,1.38-18.93,8.45-34.6,22.31-45.37,40.14-11.97,19.81-16.82,43.25-13.7,66.12,.08,.59,.64,1,1.23,.9l8.01-1.34c.87-.15,1.52,.77,1.11,1.54l-15.5,28.89c-.33,.61-1.14,.75-1.64,.28l-25.3-23.11c-.67-.61-.3-1.74,.6-1.83l9.03-.96Z"/>
      </g>
      <g>
        <g>
          <g>
            <path class="cls-4" d="M121.8,1.22c6.22,3.77,11.81,16.41,11.81,16.41,0,0,4.59-2.89,10.09-1.2,5.49,1.69,3.55,11.13,3.55,11.13,0,0,10.43-5.87,15.92-.2,5.48,5.67,1.34,12.84,1.34,12.84,0,0,18.11,2.06,22.55,12.07,4.43,10-8.39,15.14-8.39,15.14,0,0,14.03,.97,13.21,11.28-.82,10.3-12.54,12.57-12.54,12.57,0,0,12.06,6.75,6.35,16.45-5.71,9.7-16.51,2.86-16.51,2.86,0,0,4.15,14.19-3.65,18.9-7.8,4.72-70.42-117.5-70.42-117.5"/>
            <path class="cls-4" d="M133.12,33.21s7.28-2.55,10.03,3.1-5.24,9.93-5.24,9.93c0,0,9.42-2.44,11.56,4.12,2.14,6.56-7.28,10.34-7.28,10.34,0,0,10.94-1.42,12.65,4.67,1.71,6.09-5.71,8.45-5.71,8.45,0,0,11.81,.85,12.14,8.67,.33,7.82-6.84,8.23-6.84,8.23,0,0,3.8,1.31,5.22,5.8"/>
            <path class="cls-4" d="M163.28,48.48s5.41,.44,5.68,4.78-4.93,4.92-4.93,4.92c0,0,3.83,1.86,3.74,5.09s-2.87,4.89-2.87,4.89"/>
          </g>
          <g>
            <path class="cls-4" d="M230.23,151.93c-9.36-3.76-17.27-6.32-22.31-6.82-1.87-.18-3.68,.71-4.67,2.31-2.06,3.33-5.62,10.05-7.06,18.63-.44,2.63,1.2,5.16,3.8,5.74,5.55,1.24,15.65,3.7,25.87,7.25,4.66-12.48,4.6-23.18,4.37-27.12Z"/>
            <path class="cls-4" d="M323.7,198.37s-57.51-32.01-93.47-46.44c.23,3.94,.29,14.64-4.37,27.12,10.27,3.57,20.66,8.23,26.67,13.84,14.94,13.94,47.83,35.69,54.89,37.72"/>
            <g>
              <g class="cls-3">
                <g>
                  <path class="cls-4" d="M238.48,187.08s5.3-16.43,7.13-18.01c1.83-1.58-1.15,10.65-1.15,10.65,0,0,3.56-2.65,4.59-3.33s-5.07,14.21-5.07,14.21l-5.5-3.52Z"/>
                  <path class="cls-4" d="M300.14,183.92s-6.92,21.45-9.31,23.52,1.5-13.91,1.5-13.91c0,0-4.65,3.46-5.99,4.35s6.62-18.55,6.62-18.55l7.18,4.6Z"/>
                  <path class="cls-4" d="M267.9,167.38s-7.98,16.06-6.75,17.02c1.23,.96,13.76-13.91,13.76-13.91l-7.01-3.12Z"/>
                  <path class="cls-4" d="M264.72,204.46s7.91-16.09,6.68-17.05-13.7,13.96-13.7,13.96l7.02,3.09Z"/>
                  <path class="cls-4" d="M297.83,228.2s10.63-22.1,8.93-23.43c-1.7-1.33-18.58,19.09-18.58,19.09l9.65,4.34Z"/>
                </g>
              </g>
              <path class="cls-4" d="M323.7,198.37s-57.51-32.01-93.47-46.44c.23,3.94,.29,14.64-4.37,27.12,10.27,3.57,20.66,8.23,26.67,13.84,14.94,13.94,47.83,35.69,54.89,37.72"/>
            </g>
          </g>
          <path class="cls-4" d="M290.64,55.06s-33.71,27.61-37.01,26.27c-3.3-1.33-7.92-5.96-12.09-5.82-4.17,.14-11.59,2.12-18.72,1.79-7.13-.33-13.18-3.24-14-1.26s2.07,5.67,5.99,7.29c3.88,1.61,13.04,2.81,13.59,3.96,.3,.61-10.52,6.89-20.31,13.19-8.57,5.52-16.83,9.84-15.26,12.86,1.47,2.83,8.22-.63,15.26-3.87s15.02-6.63,15.02-6.63c0,0-8.77,5.69-16.59,11.41-6.8,4.97-13.28,9.3-11.03,12.05,2.09,2.56,7.74-1.57,14.12-5.5,8.76-5.39,18.23-12.13,18.23-12.13,0,0-8,7.25-14.38,14.02-4.34,4.61-8.49,8.47-5.92,10.78,2.2,1.97,7.5-2.89,13.37-7.78,7.03-5.85,14.2-12.48,14.2-12.48,0,0-5.46,7.16-9.3,12.17s-6.79,8.13-4.03,10.27c1.15,.89,4.73-2.4,9.72-6.54,10.64-8.84,26.19-23.65,27.78-24.58,2.34-1.36,6.29-5.33,19.22-12.18,10.34-5.47,26.69-10.22,26.69-10.22"/>
          <g>
            <path class="cls-4" d="M1.22,117.52s76.53,40.79,127.96,38.97c1.6-.06,6.21-2,6.8-4.68,1.05-4.77-2.92-6.33-2.92-6.33,0,0,5.27,2.82,7.47-4.01,2.2-6.84-5.37-8.55-5.37-8.55,0,0,6.2,2.03,7.57-8.72,1.37-10.75-33.88-10.78-50.26-11.38-16.38-.6-77.92-40.74-77.92-40.74"/>
            <g>
              <path class="cls-4" d="M140.28,151.38l-4.17-1.81c.08,.66,.06,1.4-.13,2.25-.11,.5-.36,.98-.71,1.42l4.81-.53c.71-.08,.85-1.04,.2-1.33Z"/>
              <path class="cls-4" d="M146.9,127.89l-4.26-3.05c-.24,1.54-.57,2.8-.98,3.82l4.76,.48c.71,.07,1.05-.84,.48-1.26Z"/>
              <path class="cls-4" d="M145.3,141.09l-4.36-1.9c0,.69-.13,1.44-.4,2.28-.18,.58-.39,1.08-.62,1.52l5.18-.57c.71-.08,.85-1.04,.2-1.33Z"/>
            </g>
          </g>
          <g>
            <path class="cls-4" d="M100.59,275.47c-.15-.05-.26-.19-.27-.34l-1.5-12.67c-.05-.39,.44-.62,.71-.34,.93,.98,2.4,2.39,3.41,2.67,1.58,.44-.28-13.96,.36-16.79,.48-2.11,3.89,.8,5.6,2.42,.29,.28,.77,0,.69-.39-.71-3.47-2.47-12.65-1.81-14.78,.61-1.97,3.32,1.03,4.66,2.69,.25,.31,.74,.12,.73-.27-.05-3.16-.15-11.33,.3-12.87,.38-1.31,2.29-.11,3.46,.79,.31,.23,.74-.05,.65-.42-.7-3.1-2.48-11.28-1.85-12.49,.57-1.1,3.29,1.24,4.69,2.55,.28,.26,.74,.03,.69-.35-.34-2.89-1.12-10.26-.35-11.11,.96-1.07,5.32,7.1,8.57,9.36,23.31,16.2,37.64,13.85,40.23,13.82,1.88-.02,6.67-1.8,9.16-2.77,.4-.16,.74,.32,.47,.65-1.36,1.65-3.51,4.48-3.38,5.73,.18,1.82,6.81-2.65,7.8-1.13s-5.57,6.14-5.7,7.86,8.86,.54,8.49,1.58c-.37,1.04-14.87,6.86-14.82,8.05s8.64,5.16,8.42,5.78-14.66,4.94-14.13,5.77,10.66,4.4,10.37,5.24-11.06,5.73-11.32,6.47,7.2,.89,6.91,1.73-11.15,8.64-11.16,9.34,10.2,2.06,9.76,2.97-11.8,3.83-11.26,4.96,5.9,1.26,5.81,2.17c-.08,.84-7.29,3.39-8.37,3.77-.09,.03-.18,.03-.27,0"/>
            <path class="cls-4" d="M129.32,213.13c23.31,16.2,37.64,13.85,40.23,13.82,1.47-.01,4.72-1.1,7.25-2.04,4.36-4.2,9.12-9.41,10.82-13.57,1.96-4.79,5.26-10.3,4.99-13.96-.21-2.75-5.52-7.19-7.42-5.71-4.97,3.89-7.63,5.87-7.63,5.87,0,0,9.5-20.64,10.36-27.97,.16-1.33-1.27-3.14-2.31-3.55-1.09-.44-2.93-1.26-3.9-.28-5.96,6.03-14.54,21.62-14.54,21.62,0,0,9.39-18.64,7.67-25.35-.3-1.17-.94-1.98-2.04-2.26-.89-.23-3.14-.5-3.91,.27-3.99,4-13.01,25.37-13.01,25.37,0,0,7.03-19.06,5.38-24.18-.29-.91-2.03-1.76-2.98-1.99-1.06-.26-3.36-.47-4.11,.43-4.35,5.29-8.25,23.99-8.25,23.99,0,0,1.88-16.56-.07-19.21-.57-.77-2.02-1.22-3.02-1.38-.74-.12-2.14-.05-2.96,.9-5.16,5.92-11.32,30.64-14.54,44.84,1.32,1.75,2.72,3.48,3.96,4.34Z"/>
          </g>
        </g>
        <path class="cls-4" d="M222.18,244.56s4.79-4.67,.09-13.76c0,0,6.27,7,12.65,5.88,0,0-2.95,5.7,.17,12.42,0,0-7.85-6.31-12.9-4.54Z"/>
        <path class="cls-4" d="M103.75,185.37s4.66,1.89,9.51-4.09c0,0-2.93,6.43-.24,10.48,0,0-4.82-.31-8.5,3.86,0,0,1.98-7.31-.77-10.25Z"/>
        <path class="cls-4" d="M234.2,28.52s6.16,2.61,12.73-5.24c0,0-4.03,8.49-.53,13.94,0,0-6.4-.52-11.39,4.95,0,0,2.79-9.68-.8-13.65Z"/>
        <line class="cls-4" x1="233.9" y1="208.75" x2="242.24" y2="214.59"/>
        <line class="cls-4" x1="246.93" y1="142.04" x2="261.17" y2="140.15"/>
        <line class="cls-4" x1="209.93" y1="48.48" x2="209.93" y2="36.76"/>
        <line class="cls-4" x1="106.11" y1="84.29" x2="95.1" y2="76.37"/>
        <line class="cls-4" x1="83.12" y1="195.31" x2="74.23" y2="203.67"/>
      </g>
    </g>
  </g>
</svg>