<?xml version="1.0" encoding="UTF-8"?>
<svg id="Layer_2" data-name="Layer 2" xmlns="http://www.w3.org/2000/svg" xmlns:xlink="http://www.w3.org/1999/xlink" viewBox="0 0 203.43 221.86">
  <defs>
    <style>
      .cls-1 {
        fill: url(#linear-gradient-2);
      }

      .cls-2 {
        opacity: .5;
      }

      .cls-3 {
        fill: none;
        stroke: #000;
        stroke-linecap: round;
        stroke-linejoin: round;
        stroke-width: 2.39px;
      }

      .cls-4 {
        fill: url(#linear-gradient);
      }
    </style>
    <linearGradient id="linear-gradient" x1="250.71" y1="29.84" x2="354.78" y2="29.84" gradientTransform="translate(441.67) rotate(-180) scale(1 -1)" gradientUnits="userSpaceOnUse">
      <stop offset="0" stop-color="#9157f6"/>
      <stop offset=".64" stop-color="#4eaeef"/>
      <stop offset="1" stop-color="#2cdbec"/>
    </linearGradient>
    <linearGradient id="linear-gradient-2" x1="0" y1="87.15" x2="115.78" y2="87.15" gradientUnits="userSpaceOnUse">
      <stop offset="0" stop-color="#acfcb4"/>
      <stop offset=".23" stop-color="#43ebc9"/>
      <stop offset=".34" stop-color="#17e4d2"/>
      <stop offset=".44" stop-color="#0fe2d2"/>
      <stop offset=".64" stop-color="#04e1d3"/>
      <stop offset="1" stop-color="#2ca7ec"/>
    </linearGradient>
  </defs>
  <g id="Layer_1-2" data-name="Layer 1">
    <g>
      <g>
        <g class="cls-2">
          <path class="cls-4" d="M105.53,59.67c-1.11,0-2.21-.04-3.31-.19-9.71-1.35-16.58-10.26-15.13-20.07,1.51-10.19,10.76-16.71,20.88-14.9,.91,.16,1.09-.12,1.13-.96,.3-6.26,3.12-11.05,8.76-13.83,5.62-2.77,11.15-2.19,16.3,1.43,.61,.43,.89,.49,1.25-.26,1.24-2.58,3.04-4.73,5.24-6.55,7.73-6.4,19.89-5.66,26.67,1.71,4.44,4.84,6.28,10.53,5.17,17.08-.12,.73,.03,1.1,.84,1.06,.79-.04,1.56,.07,2.34,.17,10.31,1.43,17.2,11.45,14.81,21.57-1.89,8.04-8.96,13.7-17.24,13.72-11.43,.03-22.86,0-34.29,0-11.14,0-22.29,0-33.43,0Z"/>
        </g>
        <g class="cls-2">
          <path class="cls-1" d="M57.86,120.34c-12.72,0-25.43,.02-38.15,0-9.21-.02-17.07-6.32-19.18-15.27-2.65-11.26,5.01-22.41,16.48-24,.87-.12,1.73-.24,2.61-.19,.9,.05,1.07-.37,.93-1.17-1.23-7.28,.81-13.62,5.76-19,7.54-8.2,21.07-9.02,29.67-1.9,2.46,2.03,4.45,4.42,5.84,7.29,.4,.83,.72,.76,1.39,.29,5.73-4.03,11.87-4.67,18.13-1.59,6.28,3.09,9.41,8.42,9.74,15.39,.04,.94,.25,1.25,1.26,1.06,11.26-2.02,21.55,5.23,23.23,16.57,1.62,10.92-6.03,20.83-16.84,22.33-1.23,.17-2.45,.21-3.68,.21-12.4,0-24.8,0-37.19,0Z"/>
        </g>
      </g>
      <g>
        <path class="cls-3" d="M202.23,218.53s-26.88-35.64-28.3-41.34,3.26-14.25,3.26-23.21-8.76-16.7-12.01-29.73c-3.26-13.03-4.28-20.77-7.33-20.62-3.05,.15-7.18,4.89-6.57,11.45,.61,6.57,2.6,20.01,1.99,23.67s-10.08,15.32-5.5,34.77h-32.38c11.4,18.12,22.2,11.1,27.49,21.28,5.29,10.18,6.62,25.86,6.62,25.86"/>
        <path class="cls-3" d="M101.64,117.45c-5.88-.92-14.54-3.82-14.74-8.48-.23-5.35,8.09-5.96,14.74-5.35v13.82Z"/>
        <path class="cls-3" d="M101.64,121.4c2.34,0,3.97,5.4,3.97,8.45s-.2,8.04-7.13,8.04-7.84-5.4-6.72-7.84c1.12-2.44,4.68-8.65,9.88-8.65Zm-1.87,45.31c4.05,0,5.46-4.16,5.46-6.61s-.8-6.61-5.46-6.61-5.46,3.89-5.46,6.19,.04,7.03,5.46,7.03Zm-.04-13.82c4.05,0,5.04-4.77,5.04-7.22s-.38-7.22-5.04-7.22-7.48,3.36-7.48,7.87c0,3.67,2.06,6.57,7.48,6.57Z"/>
        <path class="cls-3" d="M153.26,138.76c.61-3.67-1.37-17.11-1.99-23.67-.53-5.72,2.53-10.05,5.35-11.17v-30.98c0-2.02-1.64-3.67-3.67-3.67h-47.65c-2.02,0-3.67,1.64-3.67,3.67v48.46c2.34,0,3.97,5.4,3.97,8.45,0,2.5-.14,6.28-3.97,7.58v1.37c2.85,1.13,3.13,4.82,3.13,6.87s-.67,5.56-3.13,6.78v1.32c3,.96,3.59,4.25,3.59,6.32s-.97,5.21-3.59,6.25v3.51c0,2.02,1.64,3.67,3.67,3.67h42.46c-4.58-19.45,4.89-31.1,5.5-34.77Zm-24.13-65.52c1.57,0,2.85,1.28,2.85,2.85s-1.28,2.85-2.85,2.85-2.85-1.28-2.85-2.85,1.28-2.85,2.85-2.85Zm11.81,94.69h-21.48c-.84,0-1.53-.68-1.53-1.53s.68-1.53,1.53-1.53h21.48c.84,0,1.53,.68,1.53,1.53s-.68,1.53-1.53,1.53Z"/>
      </g>
      <path class="cls-3" d="M177.29,60.71s4.49,4.74,13.43,.27c0,0-6.91,6.03-5.9,12.26,0,0-5.52-2.96-12.12,0,0,0,6.26-7.57,4.6-12.53Z"/>
      <path class="cls-3" d="M69.68,56.77s4.05-3.84,.23-11.49c0,0,5.16,5.92,10.49,5.05,0,0-2.53,4.73,0,10.37,0,0-6.48-5.36-10.72-3.94Z"/>
      <line class="cls-3" x1="156.99" y1="49.52" x2="161.55" y2="39.03"/>
      <line class="cls-3" x1="132.67" y1="44.62" x2="129.13" y2="28.62"/>
    </g>
  </g>
</svg>