<?xml version="1.0" encoding="UTF-8"?>
<svg id="Layer_2" data-name="Layer 2" xmlns="http://www.w3.org/2000/svg" xmlns:xlink="http://www.w3.org/1999/xlink" viewBox="0 0 254 222.77">
  <defs>
    <style>
      .cls-1 {
        fill: url(#linear-gradient);
      }

      .cls-1, .cls-2 {
        opacity: .5;
      }

      .cls-3 {
        fill: none;
        stroke: #000;
        stroke-linecap: round;
        stroke-linejoin: round;
        stroke-width: 2.34px;
      }

      .cls-2 {
        fill: url(#linear-gradient-2);
      }
    </style>
    <linearGradient id="linear-gradient" x1="959.26" y1="-995.5" x2="1008.06" y2="-995.5" gradientTransform="translate(-860.13 1751.88) rotate(-26.72) scale(1.65 1.06)" gradientUnits="userSpaceOnUse">
      <stop offset="0" stop-color="#acfcb4"/>
      <stop offset=".23" stop-color="#43ebc9"/>
      <stop offset=".34" stop-color="#17e4d2"/>
      <stop offset=".44" stop-color="#0fe2d2"/>
      <stop offset=".64" stop-color="#04e1d3"/>
      <stop offset="1" stop-color="#2ca7ec"/>
    </linearGradient>
    <linearGradient id="linear-gradient-2" x1="2276.65" y1="1763.26" x2="2314.7" y2="1763.26" gradientTransform="translate(677.72 -4030.22) rotate(124.55) scale(1.65 -1.06)" gradientUnits="userSpaceOnUse">
      <stop offset="0" stop-color="#9157f6"/>
      <stop offset=".64" stop-color="#4eaeef"/>
      <stop offset="1" stop-color="#2cdbec"/>
    </linearGradient>
  </defs>
  <g id="Layer_1-2" data-name="Layer 1">
    <g>
      <path class="cls-1" d="M113.31,.45c-1.18-1.13-3.79,.05-4.96,1.64-13.79,18.64-61.9,85.57,18.77,157.98,1.13,1.01,3.7-.03,4.74-1.57C190.19,72.65,126.76,13.29,113.31,.45Z"/>
      <path class="cls-2" d="M118.86,170.57c1.22-.75,2.33-2.47,1.69-3.45C77.44,100.28,19.23,128.69,2,136.22c-1.39,.61-2.51,2.6-1.77,3.62,8.39,11.61,51.69,72.09,118.63,30.73Z"/>
      <g>
        <path class="cls-3" d="M150.19,221.6s2.81-25.32,3.66-32.92c.84-7.6,1.13-24.48,2.53-32.07,1.41-7.6,6.05-29.26,6.82-39.32,.77-10.06,1.27-19.55,4.5-19.98,3.24-.42,9.85,10.27,10.06,17.79s0,13.01,0,13.01c0,0-.09,7.1,3.47,11.23,3.56,4.13,4.03,10.41,3.75,14.07"/>
        <path class="cls-3" d="M205.71,170.77s-4.03,5.06-9,7.03-10.74,.66-11.65,2.25c-.91,1.59,5.65,32.17,8.84,40.89"/>
        <path class="cls-3" d="M207.58,125.29s-17.44,3.66-17.16,9,6,6.38,14.25,4.97c8.25-1.41,20.63-6.85,20.16-13.5s-10.02-7.88-17.2-7.03c-7.18,.84-29.84,8.34-29.84,8.34"/>
        <path class="cls-3" d="M220.93,132.52s5.43,3.07,6,8.83c.56,5.77-14.53,9.75-22.02,9.92-9.5,.21-16.25-2.74-16.39-7.24s3.83-5.8,3.83-5.8"/>
        <path class="cls-3" d="M220.42,147.81s3.69,1.42,3.83,5.49c.14,4.08-11.31,7.91-18.55,8.02-9.59,.14-16.34-2.89-16.13-6.76s3.12-5.4,3.12-5.4"/>
        <path class="cls-3" d="M195.33,159.96s-2.31,1.64-2.59,3.68,.91,6.75,11.04,7.13c10.13,.38,19.46-3.96,19.55-7.48,.07-2.67-3.32-5.51-3.32-5.51"/>
        <path class="cls-3" d="M239.67,100.4s4.4,4.64,13.16,.26c0,0-6.77,5.91-5.79,12.02,0,0-5.41-2.9-11.88,0,0,0,6.14-7.42,4.51-12.28Z"/>
        <path class="cls-3" d="M134.21,96.54s3.97-3.77,.23-11.26c0,0,5.06,5.8,10.28,4.95,0,0-2.48,4.63,0,10.17,0,0-6.35-5.25-10.51-3.86Z"/>
        <line class="cls-3" x1="219.78" y1="89.44" x2="224.25" y2="79.15"/>
      </g>
      <g>
        <path d="M147.18,3.28h82.68c5.01,0,9.07,4.06,9.07,9.07V53.57c0,5.01-4.06,9.07-9.07,9.07h-22.78c-2.49,0-4.74,1.47-5.75,3.74l-10.32,16c-.82,1.28-2.17,1.92-3.52,1.92s-2.69-.64-3.52-1.92l-10.29-15.93c-1.03-2.32-3.33-3.82-5.87-3.82h-20.64c-5.01,0-9.07-4.06-9.07-9.07V12.35c0-5.01,4.06-9.07,9.07-9.07m0-2.34c-6.29,0-11.41,5.12-11.41,11.41V53.57c0,6.29,5.12,11.41,11.41,11.41h20.64c1.61,0,3.07,.95,3.73,2.42,.05,.11,.11,.22,.17,.32l10.29,15.93c1.21,1.87,3.26,2.99,5.49,2.99s4.28-1.12,5.49-2.99l10.32-16c.07-.1,.12-.21,.17-.32,.63-1.43,2.05-2.35,3.61-2.35h22.78c6.29,0,11.41-5.12,11.41-11.41V12.35c0-6.29-5.12-11.41-11.41-11.41h-82.68Z"/>
        <g>
          <path d="M184.15,35.54c.06,0,.11,.04,.22,.12,.51,.38,1.02,.75,1.53,1.14,.77,.59,1.65,.86,2.59,.86,.09,0,.17,0,.26,0,.84-.04,1.63-.29,2.31-.81,.53-.4,1.06-.79,1.6-1.18,.11-.08,.16-.12,.22-.12s.12,.04,.23,.13c1.18,.88,2.37,1.75,3.55,2.63,3.7,2.74,7.4,5.48,11.1,8.22,.49,.36,.98,.72,1.47,1.09,.16,.12,.16,.15-.02,.25-.64,.36-1.33,.56-2.07,.57-.59,0-1.19,0-1.78,0s-1.19,0-1.79,0h-15.06c-2.8,0-5.6,0-8.41,0-3.33,0-6.65,0-9.98,0h0c-.69,0-1.35-.12-1.97-.41-.13-.06-.26-.12-.37-.2-.11-.07-.11-.12,0-.2,.16-.13,.32-.25,.49-.37,1.8-1.33,3.6-2.67,5.4-4,3.3-2.44,6.59-4.88,9.89-7.32,.13-.09,.26-.19,.38-.28,.12-.08,.17-.13,.23-.13m0-2.34c-.82,0-1.37,.4-1.61,.58l-.15,.11-.25,.18-4.46,3.3-5.43,4.02-2.94,2.17-2.46,1.82-.1,.08c-.15,.11-.31,.23-.46,.35-.65,.52-1,1.28-.95,2.08,.05,.8,.48,1.5,1.19,1.94,.2,.12,.41,.24,.65,.34,.91,.4,1.89,.61,2.93,.61,3.33,0,6.66,0,9.99,0h8.41s14.95,0,14.95,0h1s.9,0,.9,0c.6,0,1.2,0,1.79,0,1.1,0,2.17-.3,3.19-.86,1.08-.6,1.3-1.52,1.34-2.01,.03-.49-.06-1.43-1.05-2.17-.35-.27-.71-.53-1.07-.79l-.41-.3-4.51-3.34-6.59-4.88-1.95-1.45-1.6-1.19c-.24-.18-.79-.59-1.63-.59s-1.37,.4-1.6,.57l-.33,.24c-.44,.32-.87,.64-1.3,.96-.28,.21-.6,.32-1.02,.34-.05,0-.09,0-.14,0-.45,0-.83-.12-1.18-.39-.38-.29-.77-.58-1.16-.86l-.39-.29c-.24-.17-.79-.58-1.61-.58h0Z"/>
          <path d="M206.95,20.72c.47,0,.93,.05,1.38,.19,.09,.03,.22,.03,.24,.14,.02,.11-.11,.15-.18,.2-2.47,1.83-4.93,3.65-7.4,5.48-1.28,.94-2.55,1.89-3.83,2.84-2.47,1.83-4.94,3.64-7.4,5.48-.32,.24-.79,.36-1.26,.36s-.93-.12-1.25-.36c-2.12-1.59-4.26-3.17-6.39-4.75-3.21-2.38-6.42-4.76-9.63-7.13-.85-.63-1.7-1.26-2.55-1.89-.05-.04-.1-.07-.15-.11-.13-.11-.13-.16,.03-.21,.35-.12,.71-.21,1.08-.22,.15,0,.3,0,.45,0h.11c6.11,0,12.22,0,18.34,0,2.54,0,5.09,0,7.63,0,3.59,0,7.19,0,10.78,0h0m0-2.34h0c-3.6,0-7.19,0-10.78,0h-3.82s-3.82,0-3.82,0h-18.34s-.05,0-.05,0h-.06c-.18,0-.37,0-.55,0-.71,.03-1.32,.21-1.72,.34-.9,.3-1.53,1-1.69,1.88-.06,.33-.18,1.48,.91,2.37,.07,.06,.14,.11,.21,.16l1.01,.74,1.58,1.17,.48,.36,9.15,6.78,1.61,1.19c1.59,1.18,3.19,2.35,4.77,3.54,.72,.54,1.66,.83,2.66,.83s1.95-.3,2.66-.83c1.74-1.3,3.49-2.59,5.23-3.88l2.15-1.59,1.97-1.46,1.85-1.37,2.74-2.03,4.59-3.4c1.07-.68,1.3-1.75,1.17-2.54-.14-.78-.72-1.71-1.93-1.99-.62-.18-1.27-.27-1.99-.27h0Z"/>
          <path d="M210.54,22.46s.08,.03,.14,.11c.21,.27,.37,.56,.51,.86,.26,.61,.4,1.24,.39,1.9,0,3.09,0,6.17,0,9.26s0,6.16,0,9.23c0,.68-.14,1.31-.41,1.92-.01,.02-.02,.05-.03,.07-.08,.16-.12,.24-.19,.24-.05,0-.12-.04-.23-.12-1.4-1.04-2.81-2.08-4.21-3.12-3.2-2.37-6.41-4.74-9.61-7.12-.63-.47-1.26-.93-1.89-1.4-.26-.19-.26-.2,0-.39,2.96-2.19,5.93-4.39,8.89-6.58,2.12-1.57,4.24-3.14,6.36-4.71,.05-.04,.1-.08,.15-.11,.06-.04,.11-.07,.14-.07m0-2.34c-.75,0-1.26,.34-1.43,.45-.08,.05-.16,.11-.24,.17l-1.93,1.43-4.44,3.29-4.5,3.33-4.39,3.25c-.76,.56-1.14,1.26-1.14,2.07,0,.82,.38,1.52,1.14,2.08l.99,.73,.9,.67,8.09,5.99,1.52,1.12,1.12,.83,3.1,2.29c.21,.16,.78,.58,1.62,.58,.58,0,1.65-.2,2.3-1.56,.02-.04,.04-.09,.06-.14,.41-.93,.62-1.9,.61-2.88,0-2.26,0-4.52,0-6.79v-2.44s0-2.44,0-2.44c0-2.27,0-4.54,0-6.81,0-.98-.2-1.94-.59-2.84-.22-.49-.49-.95-.81-1.36-.69-.89-1.54-1.02-1.99-1.02h0Z"/>
          <path d="M166.48,22.46s.1,.04,.2,.11c.21,.15,.41,.3,.62,.45,2.69,2,5.38,3.99,8.08,5.99,2.19,1.62,4.38,3.24,6.57,4.86,.3,.22,.39,.2,0,.48-3.51,2.6-7.02,5.2-10.52,7.8-1.69,1.25-3.39,2.51-5.08,3.76-.14,.1-.22,.16-.27,.16-.07,0-.11-.09-.21-.28-.28-.6-.42-1.23-.42-1.89,0-3.1,0-6.21,0-9.31,0-3.1,0-6.19,0-9.29,0-.97,.28-1.84,.83-2.63,0,0,.01-.01,.02-.02,.09-.13,.13-.18,.19-.18m0-2.34c-.84,0-1.55,.39-2.1,1.17,0,.01-.03,.04-.04,.05-.82,1.18-1.24,2.52-1.24,3.96,0,2.22,0,4.44,0,6.66v2.62s0,2.46,0,2.46c0,2.28,0,4.57,0,6.85,0,1,.21,1.97,.64,2.89,.63,1.35,1.61,1.63,2.33,1.63,.83,0,1.38-.4,1.67-.62l1.85-1.37,3.23-2.39,3.64-2.7,6.88-5.1c.3-.22,1.22-.9,1.2-2.17,0-.57-.22-1.39-1.16-2.04l-.05-.04-3.92-2.91-2.65-1.96-4.94-3.66-3.14-2.33c-.21-.16-.42-.31-.64-.47-.23-.17-.77-.56-1.58-.56h0Z"/>
        </g>
      </g>
    </g>
  </g>
</svg>