<?xml version="1.0" encoding="UTF-8"?>
<svg id="Layer_2" data-name="Layer 2" xmlns="http://www.w3.org/2000/svg" xmlns:xlink="http://www.w3.org/1999/xlink" viewBox="0 0 394.23 332.75">
  <defs>
    <style>
      .cls-1 {
        fill: #d8d8d8;
      }

      .cls-2 {
        stroke: #fff;
      }

      .cls-2, .cls-3 {
        stroke-miterlimit: 10;
      }

      .cls-2, .cls-3, .cls-4 {
        fill: none;
      }

      .cls-5 {
        fill: #81c4a1;
      }

      .cls-6 {
        fill: #000101;
      }

      .cls-7 {
        fill: #f3c87d;
      }

      .cls-8 {
        fill: #f0eeef;
      }

      .cls-9 {
        fill: #c4aa7c;
      }

      .cls-10 {
        clip-path: url(#clippath-1);
      }

      .cls-3 {
        stroke: #005377;
        stroke-linecap: round;
        stroke-width: 3px;
      }

      .cls-11 {
        fill: #0073a5;
      }

      .cls-12 {
        clip-path: url(#clippath);
      }

      .cls-13 {
        fill: #706047;
      }

      .cls-14 {
        fill: #005377;
      }
    </style>
    <clipPath id="clippath">
      <path class="cls-4" d="M351.46,54.87c60.09,80.21,47.01,145.8,20.43,209.44-26.58,63.63-112.77,80.55-215.07,60.41C54.52,304.59,26.33,211.15,15.85,186.98c-10.47-24.16,2.42-76.25,42.69-100.42C98.82,62.4,90.45,11.36,164.07,6.94c48.27-2.9,128.88-30.17,187.39,47.93ZM51.21,34.08c-13.15-2.18-16.47,10.69-16.47,14.62s3.94,18.62,14.32,16.11c10.38-2.51,18.62-6.09,18.62-11.81,0-5.73-7.52-17.44-16.47-18.92ZM.14,54.75c-1.27,7.68,6.24,9.62,8.55,9.62s10.88-2.3,9.41-8.37-3.56-10.88-6.9-10.88c-3.35,0-10.19,4.39-11.06,9.62Z"/>
    </clipPath>
    <clipPath id="clippath-1">
      <path class="cls-4" d="M422.49,243.9l8.29-48s-86.8-18.62-138.88-23.06c1.85,4.99,6.15,18.77,5.05,36.7,14.65,.55,29.9,2.47,39.86,7.34,24.76,12.1,75.77,27.18,85.67,27.02Z"/>
    </clipPath>
  </defs>
  <g id="Layer_1-2" data-name="Layer 1">
    <g>
      <path class="cls-8" d="M351.46,54.87c60.09,80.21,47.01,145.8,20.43,209.44-26.58,63.63-112.77,80.55-215.07,60.41C54.52,304.59,26.33,211.15,15.85,186.98c-10.47-24.16,2.42-76.25,42.69-100.42C98.82,62.4,90.45,11.36,164.07,6.94c48.27-2.9,128.88-30.17,187.39,47.93ZM51.21,34.08c-13.15-2.18-16.47,10.69-16.47,14.62s3.94,18.62,14.32,16.11c10.38-2.51,18.62-6.09,18.62-11.81,0-5.73-7.52-17.44-16.47-18.92ZM.14,54.75c-1.27,7.68,6.24,9.62,8.55,9.62s10.88-2.3,9.41-8.37-3.56-10.88-6.9-10.88S1.01,49.52,.14,54.75Z"/>
      <g class="cls-12">
        <g>
          <g>
            <path class="cls-11" d="M153.59-12.91c8.39,5.09,15.93,22.13,15.93,22.13,0,0,6.19-3.9,13.6-1.61,7.41,2.29,4.78,15.01,4.78,15.01,0,0,14.07-7.92,21.47-.27,7.4,7.64,1.81,17.31,1.81,17.31,0,0,24.43,2.78,30.41,16.27,5.98,13.49-11.32,20.43-11.32,20.43,0,0,18.92,1.31,17.82,15.21-1.1,13.9-16.92,16.96-16.92,16.96,0,0,16.27,9.11,8.57,22.19-7.7,13.08-22.26,3.86-22.26,3.86,0,0,5.6,19.14-4.93,25.5C202.04,166.43,117.57,1.58,117.57,1.58l36.01-14.5Z"/>
            <path class="cls-2" d="M168.85,30.23s9.82-3.44,13.53,4.18c3.72,7.62-7.07,13.39-7.07,13.39,0,0,12.7-3.29,15.59,5.56,2.89,8.85-9.82,13.94-9.82,13.94,0,0,14.76-1.91,17.06,6.3,2.3,8.21-7.71,11.4-7.71,11.4,0,0,15.93,1.14,16.37,11.69s-9.23,11.1-9.23,11.1c0,0,5.13,1.77,7.04,7.82"/>
            <path class="cls-2" d="M209.54,50.83s7.29,.6,7.66,6.45-6.65,6.63-6.65,6.63c0,0,5.17,2.51,5.05,6.87s-3.87,6.59-3.87,6.59"/>
          </g>
          <g>
            <path class="cls-5" d="M24.15,214.1s8.88-24.1,33.18-27.25c24.29-3.15,33.5,17.45,53.75,16.24,20.25-1.21,32.39-22.66,51.39-24.7,19.01-2.04,58.63,16.41,57.11,30.06-1.52,13.65-39.01-2.3-50.66,1.57-11.66,3.87-19.3,27.01-37.53,31.61-18.23,4.6-44.34-11.24-56.91-5.48-12.57,5.76-24.54,24.33-24.54,24.33l-25.79-46.39Z"/>
            <g>
              <path class="cls-11" d="M53.13,224c5.44-1.52,8.68,5.51,8.79,7.63,.11,2.12,1.66,6.53-4.26,7.88-5.92,1.35-9.44-4.08-10.02-7.02-.58-2.95,.32-7.04,5.49-8.49Z"/>
              <path class="cls-11" d="M71.54,216.1c3.19-2.96,7.9,.72,8.72,2.13,.83,1.41,3.44,3.89-.14,6.91-3.58,3.01-7.91,.53-9.35-1.28-1.44-1.82-2.26-4.94,.77-7.76Z"/>
              <path class="cls-11" d="M93.18,219.77c2.49-2.31,6.16,.56,6.8,1.66s2.68,3.04-.11,5.39-6.17,.42-7.29-1c-1.12-1.42-1.76-3.86,.6-6.05Z"/>
              <path class="cls-11" d="M115.2,224.55c3.16-.06,3.92,4.21,3.69,5.38s-.02,3.77-3.42,3.67c-3.4-.1-4.54-3.54-4.44-5.22,.1-1.68,1.17-3.77,4.17-3.83Z"/>
              <path class="cls-11" d="M135.38,224.45c1.65,2.24-1.03,4.95-1.98,5.37s-2.72,1.9-4.37-.59,.23-5.05,1.49-5.83c1.25-.78,3.3-1.08,4.86,1.05Z"/>
              <path class="cls-11" d="M149.18,218.05c0,2.23-3.09,2.63-3.92,2.43s-2.71-.13-2.58-2.52,2.62-3.08,3.82-2.96c1.2,.12,2.69,.94,2.68,3.05Z"/>
              <path class="cls-11" d="M158.05,209.18c0,1.39-1.93,1.64-2.45,1.51s-1.69-.08-1.61-1.57,1.63-1.92,2.38-1.85,1.68,.59,1.68,1.91Z"/>
            </g>
          </g>
          <g>
            <path class="cls-6" d="M291.91,172.85c-13.56-1.15-24.77-1.35-31.47,0-2.49,.5-4.47,2.37-5.11,4.82-1.34,5.11-3.28,15.17-1.76,26.82,.47,3.57,3.59,6.18,7.17,5.91,7.65-.59,21.65-1.39,36.23-.84,1.1-17.93-3.2-31.71-5.05-36.7Z"/>
            <path class="cls-1" d="M422.49,243.9l8.29-48s-86.8-18.62-138.88-23.06c1.85,4.99,6.15,18.77,5.05,36.7,14.65,.55,29.9,2.47,39.86,7.34,24.76,12.1,75.77,27.18,85.67,27.02Z"/>
            <g class="cls-10">
              <g>
                <path class="cls-6" d="M316.39,214.93s.36-23.28,2.1-26.04c1.74-2.76,2.72,14.19,2.72,14.19,0,0,3.55-4.82,4.61-6.11s-.94,20.33-.94,20.33l-8.49-2.37Z"/>
                <path class="cls-6" d="M394.7,186.55s-.47,30.4-2.74,34-3.55-18.53-3.55-18.53c0,0-4.63,6.3-6.01,7.97-1.38,1.67,1.23-26.54,1.23-26.54l11.08,3.1Z"/>
                <path class="cls-6" d="M346.59,177.93s-3.96,23.86-2,24.62,12.27-23.36,12.27-23.36l-10.27-1.26Z"/>
                <path class="cls-6" d="M357.11,227.01s3.86-23.88,1.9-24.63c-1.96-.75-12.17,23.41-12.17,23.41l10.27,1.21Z"/>
              </g>
            </g>
          </g>
          <g>
            <path class="cls-9" d="M355.12,19.07s-48.77,55.84-72.25,74.15c-23.48,18.31-31.77,12.37-48.03,29.72-16.26,17.34-19.03,24.32-16.24,27.75,2.79,3.43,22.54-11.66,22.54-11.66,0,0-22.03,22.73-18.11,27.02s27.16-18.43,27.16-18.43c0,0-19,23.63-15.35,27.67,3.65,4.03,25.4-20.68,25.4-20.68,0,0-15.35,27.67-8.76,29.98,6.59,2.31,14.11-20.58,19.95-26.82,5.84-6.23,12.58-12.55,16.34-8.3s-12.5,21.58-8.19,26.33,19.65-8.36,23.71-17.9c4.06-9.54,6.9-22.56,21.97-34.19,15.08-11.63,75.78-55.94,75.78-55.94l-45.93-48.7Z"/>
            <g>
              <path class="cls-11" d="M330.19,126.1c-6.45,7.09-14.72,8.64-26.11-6.89-11.39-15.53-28.81-27.33-16.02-37.49,12.79-10.16,13.39-1.24,26.47,12.51,13.08,13.75,26.29,20.19,15.66,31.87Z"/>
              <path class="cls-14" d="M293.67,91.61c-.75-.7,.03-1.87,.35-2.08s.85-.87,1.62-.09,.26,1.85-.14,2.22-1.12,.62-1.84-.05Z"/>
              <path class="cls-14" d="M298.91,97.02c-1.02,.04-1.3-1.34-1.23-1.72s-.01-1.22,1.09-1.21,1.49,1.12,1.47,1.67-.36,1.23-1.33,1.26Z"/>
              <path class="cls-14" d="M302.46,100.85c.37-.96,1.74-.67,2.06-.46s1.13,.46,.69,1.47-1.61,.94-2.11,.7-.99-.81-.65-1.72Z"/>
              <path class="cls-3" d="M295.26,109.79l2.71,3.1c.73,.84,1.94,1.05,2.91,.51,3.69-2.05,12.69-7.26,18.95-12.65,.89-.77,.93-2.14,.09-2.97l-2.99-2.98"/>
              <path class="cls-3" d="M312.32,111.16s-.61-1.72-2.01-3.41"/>
            </g>
          </g>
          <g>
            <path class="cls-7" d="M184.23,182.32c2.15-.08,8.38-2.7,9.18-6.31,1.42-6.43-3.93-8.54-3.93-8.54,0,0,7.11,3.81,10.07-5.41,2.96-9.22-7.24-11.53-7.24-11.53,0,0,8.36,2.74,10.21-11.76,1.85-14.5-45.71-14.54-67.79-15.35-22.09-.81-105.11-54.95-105.11-54.95l-17.98,61.29s103.23,55.01,172.59,52.56Z"/>
            <path class="cls-6" d="M201.51,139l6.62,4.74c.78,.56,.32,1.79-.64,1.7l-8.22-.84c-.62-.06-1.01-.71-.77-1.29l1.6-3.9c.23-.56,.92-.76,1.41-.41Z"/>
            <path class="cls-6" d="M198.5,158.3l7.46,3.24c.88,.38,.68,1.69-.27,1.79l-8.21,.91c-.62,.07-1.14-.48-1.03-1.1l.75-4.15c.11-.6,.74-.94,1.3-.69Z"/>
            <path class="cls-6" d="M191.74,172.18l7.46,3.24c.88,.38,.68,1.69-.27,1.79l-8.21,.91c-.62,.07-1.14-.48-1.03-1.1l.75-4.15c.11-.6,.74-.94,1.3-.69Z"/>
          </g>
          <g>
            <path class="cls-13" d="M257.59,288.49s17.29-25.03,18.59-38.58c.74-7.73,3.11-17.07,1.13-22.2-1.49-3.87-11.03-7.94-13.11-4.99-5.46,7.73-8.42,11.72-8.42,11.72,0,0,4.72-33.75,2.79-44.63-.35-1.98-3.18-3.96-4.85-4.11-1.76-.16-4.75-.54-5.71,1.29-5.94,11.24-11.54,37.33-11.54,37.33,0,0,5.43-30.82,.06-39.72-.94-1.56-2.21-2.44-3.9-2.37-1.38,.06-4.73,.64-5.49,2.07-4,7.46-7.72,42.05-7.72,42.05,0,0,1.85-30.4-2.72-37.04-.81-1.18-3.68-1.65-5.14-1.57-1.63,.09-5.03,.77-5.71,2.4-3.97,9.48-1.49,38.01-1.49,38.01,0,0-4.46-24.6-8.39-27.55-1.15-.86-3.43-.87-4.93-.67-1.11,.15-3.09,.86-3.86,2.56-6.91,15.28-.26,86.21-.26,86.21l70.69-.21Z"/>
            <path class="cls-6" d="M178.37,379.26l-7.64-17.55c-.24-.55,.36-1.08,.87-.79,1.75,1,4.48,2.39,6.06,2.36,2.45-.05-6.44-19.92-6.73-24.26-.22-3.23,5.93-.53,9.08,1.05,.54,.27,1.11-.32,.82-.85-2.52-4.68-9.01-17.09-8.98-20.44,.03-3.09,5.21,.04,7.85,1.85,.49,.33,1.12-.14,.94-.7-1.44-4.51-5.11-16.2-5.13-18.6-.02-2.05,3.25-1.14,5.32-.37,.54,.2,1.04-.39,.75-.89-2.35-4.14-8.43-15.13-8.06-17.13,.34-1.82,5.27,.36,7.84,1.63,.52,.26,1.07-.27,.84-.8-1.74-4-6.05-14.24-5.31-15.81,.92-1.95,10.71,7.9,16.34,9.74,40.46,13.19,60.03,3.62,63.74,2.46,2.69-.84,8.81-5.47,11.96-7.94,.5-.39,1.2,.14,.95,.73-1.24,2.96-3.1,7.95-2.38,9.7,1.05,2.54,8.63-6.75,10.71-4.99s-5.34,11.23-4.8,13.75,12.95-3.06,12.87-1.4-18.38,16.28-17.8,17.97,14.63,3.67,14.58,4.67-18.92,13.42-17.8,14.39,17.22,1.71,17.15,3.04-13.41,13.01-13.46,14.18,10.73-1.83,10.67-.5-12.27,17.22-11.99,18.24,15.53-1.44,15.3,.04-15.29,10.6-14.03,11.99c1.27,1.39,9.01-.75,9.29,.6,.25,1.24-9,8.02-10.4,9.03-.11,.08-.25,.12-.39,.12l-88.51-4.11c-.24-.01-.45-.16-.54-.37Z"/>
          </g>
        </g>
      </g>
    </g>
  </g>
</svg>