<?xml version="1.0" encoding="UTF-8"?>
<svg id="Layer_2" data-name="Layer 2" xmlns="http://www.w3.org/2000/svg" viewBox="0 0 62.48 62.38">
  <defs>
    <style>
      .cls-1 {
        fill: #fff;
      }
    </style>
  </defs>
  <g id="Layer_1-2" data-name="Layer 1">
    <path class="cls-1" d="M31.15,62.36C13.9,62.85-.09,48.54,0,31.29,.1,13.61,13.67,.07,31.37,0c16.87-.07,31.88,13.77,31.08,32.84-.65,15.54-14.11,30.14-31.3,29.51Zm6.75-38.21c.17,.19,.33,.37,.5,.56-2.77,3.08-5.96,5.74-9.12,8.39-2.26,1.9-3.66,3.95-3.48,6.96,.06,.98,.05,1.96-.32,2.92-.2,.51-.11,1.07,.41,1.42,.58,.39,1.01,.04,1.4-.34,.72-.68,1.5-1.31,2.09-2.1,1.36-1.81,2.63-1.9,4.25-.26,.94,.96,2.18,1.62,3.3,2.4,2.6,1.82,3.72,1.45,4.45-1.66,1.7-7.21,3.33-14.44,4.96-21.67,.52-2.31-.26-3.05-2.46-2.27-5.85,2.07-11.68,4.19-17.51,6.33-3.76,1.38-7.51,2.82-11.25,4.27-.75,.29-1.67,.58-1.57,1.68,.09,1.01,.95,.99,1.68,1.19,1.45,.42,2.93,.83,4.31,1.43,1.62,.71,2.88,.48,4.37-.5,4.59-3.03,9.31-5.86,13.98-8.77Z"/>
  </g>
</svg>