<?xml version="1.0" encoding="UTF-8"?>
<svg id="Layer_2" data-name="Layer 2" xmlns="http://www.w3.org/2000/svg" viewBox="0 0 62.23 62.34">
  <defs>
    <style>
      .cls-1 {
        fill: #fff;
      }
    </style>
  </defs>
  <g id="Layer_1-2" data-name="Layer 1">
    <path class="cls-1" d="M62.2,31.17c.76,16.59-13.87,31.5-31.38,31.16C13.96,62.01,0,48.91,0,31.15,0,13.85,13.54-.05,31.52,0c17.12,.04,31.34,14.45,30.68,31.17Zm-30.07-5.69h0c0,4.17,.08,8.34-.02,12.51-.08,3.32-2.46,5.87-5.36,6.03-2.61,.14-5.53-2.22-5.83-4.73-.36-2.96,1.59-6.06,4.56-6.29,2.62-.2,2.96-1.4,2.71-3.47-.06-.52-.06-1.07,0-1.59,.16-1.55-.44-2.18-2.06-2.14-8.13,.21-14,7.61-11.83,15.9,1.66,6.35,7.6,10.1,14.02,9.27,6.21-.8,10.78-6.25,10.79-12.85,0-3.72,.03-7.43,0-11.15-.01-1.39,.28-1.71,1.68-1.05,1.63,.76,3.4,1.23,5.15,1.68,2.11,.54,2.69,.01,2.73-2.24,.01-.61-.08-1.23,.02-1.82,.29-1.82-.47-2.65-2.23-3.2-3.41-1.06-6.04-3.27-6.98-6.8-.52-1.97-1.42-2.6-3.28-2.31-.52,.08-1.07,.07-1.59,0-1.84-.22-2.56,.47-2.5,2.4,.13,3.94,.04,7.89,.04,11.83Z"/>
  </g>
</svg>