<?xml version="1.0" encoding="UTF-8"?>
<svg id="Layer_2" data-name="Layer 2" xmlns="http://www.w3.org/2000/svg" xmlns:xlink="http://www.w3.org/1999/xlink" viewBox="0 0 184.96 51.8">
  <defs>
    <style>
      .cls-1 {
        fill: #fff;
      }

      .cls-2 {
        filter: url(#drop-shadow-1);
      }
    </style>
    <filter id="drop-shadow-1" filterUnits="userSpaceOnUse">
      <feOffset dx="2" dy="2"/>
      <feGaussianBlur result="blur" stdDeviation="1"/>
      <feFlood flood-color="#000" flood-opacity=".4"/>
      <feComposite in2="blur" operator="in"/>
      <feComposite in="SourceGraphic"/>
    </filter>
  </defs>
  <g id="Layer_1-2" data-name="Layer 1">
    <g class="cls-2">
      <g>
        <path class="cls-1" d="M20.85,18.11v6.31l8.96-5.17c-1.01-2.4-2.16-4.49-3.33-6.28l-3.99,2.31c-1.01,.58-1.63,1.66-1.63,2.83Z"/>
        <path class="cls-1" d="M20.85,30.08v6.32l11.78-6.8c-.37-2.63-.95-5.04-1.67-7.24l-8.48,4.9c-1.01,.58-1.63,1.66-1.63,2.83Z"/>
        <path class="cls-1" d="M24.57,10.31c-1.66-2.12-3.19-3.61-4.18-4.49-.33-.29-.75-.44-1.17-.44s-.83,.15-1.17,.44c-1,.88-2.53,2.37-4.18,4.49l5.35,3.09,5.35-3.09Z"/>
        <path class="cls-1" d="M15.96,39.22l-10.49-6.06c-.05,.89-.08,1.79-.08,2.72,0,7.99,7.62,10.09,12.21,10.47v-4.3c0-1.17-.62-2.24-1.63-2.83Z"/>
        <path class="cls-1" d="M17.59,18.11c0-1.17-.62-2.24-1.63-2.83l-3.99-2.31c-1.17,1.79-2.32,3.88-3.33,6.28l8.96,5.17v-6.31Z"/>
        <path class="cls-1" d="M20.85,42.05v4.3c4.59-.38,12.21-2.48,12.21-10.47,0-.93-.03-1.83-.08-2.72l-10.49,6.06c-1.01,.58-1.63,1.66-1.63,2.83Z"/>
        <path class="cls-1" d="M17.59,30.08c0-1.17-.62-2.24-1.63-2.83l-8.48-4.9c-.72,2.2-1.3,4.61-1.67,7.24l11.78,6.8v-6.31Z"/>
        <path class="cls-1" d="M19.22,2.14c1.22,0,2.4,.45,3.31,1.25,1.81,1.6,5.29,5.08,8.28,10.5,3.64,6.6,5.49,13.99,5.49,21.98,0,2.78-.73,5.23-2.17,7.31-1.21,1.74-2.88,3.17-4.99,4.24-3.95,2.02-8.26,2.24-9.93,2.24s-5.97-.22-9.93-2.24c-2.11-1.08-3.79-2.5-4.99-4.24-1.44-2.07-2.17-4.53-2.17-7.31,0-7.99,1.85-15.39,5.49-21.98,2.99-5.42,6.47-8.91,8.28-10.5,.92-.81,2.09-1.25,3.31-1.25m0-2.14c-1.74,0-3.42,.64-4.73,1.79-1.91,1.69-5.59,5.37-8.74,11.07C1.94,19.78,0,27.52,0,35.88c0,3.22,.86,6.09,2.55,8.53,1.41,2.03,3.35,3.69,5.78,4.93,4.37,2.23,9.08,2.47,10.9,2.47s6.53-.24,10.9-2.47c2.43-1.24,4.37-2.9,5.78-4.93,1.69-2.44,2.55-5.31,2.55-8.53,0-8.36-1.94-16.1-5.76-23.02-3.15-5.7-6.82-9.38-8.74-11.07-1.31-1.15-2.99-1.79-4.73-1.79h0Z"/>
      </g>
      <g>
        <path class="cls-1" d="M71.59,12.64h-21.14c-.68,0-1.21,.21-1.6,.63-.39,.42-.58,1.07-.58,1.94,0,.52,.06,.99,.19,1.41,.13,.42,.27,.76,.44,1.02h8.24v21.87c0,1.03,.25,1.77,.75,2.21,.5,.44,1.35,.65,2.55,.65,.55,0,1.09-.04,1.62-.12s.93-.17,1.19-.27V17.63h6.79c.68,0,1.21-.23,1.6-.68,.39-.45,.58-1.1,.58-1.94,0-.48-.07-.95-.19-1.38-.13-.44-.28-.77-.44-.99Z"/>
        <path class="cls-1" d="M85.22,18.46c-1.71,0-3.31,.19-4.8,.58-1.49,.39-2.72,.87-3.69,1.45-.71,.48-1.26,1.01-1.65,1.58-.39,.57-.58,1.25-.58,2.06v15.47c0,1.04,.27,1.75,.8,2.16,.53,.4,1.35,.61,2.45,.61,.58,0,1.12-.04,1.6-.12s.86-.17,1.12-.27V24.62c.71-.42,1.58-.75,2.59-.99,1.02-.24,2.11-.36,3.27-.36,.55,0,1.07,.02,1.55,.07,.48,.05,.89,.1,1.21,.17,.19-.29,.36-.62,.48-.99,.13-.37,.19-.78,.19-1.24,0-1.87-1.52-2.81-4.56-2.81Z"/>
        <path class="cls-1" d="M108.91,19.74c-1.6-.86-3.47-1.29-5.6-1.29-1.52,0-2.97,.25-4.36,.75-1.39,.5-2.61,1.24-3.66,2.23-1.05,.99-1.88,2.22-2.5,3.71-.61,1.49-.92,3.22-.92,5.19,0,2.75,.54,5.04,1.62,6.89,1.08,1.84,2.59,3.23,4.51,4.15,1.92,.92,4.13,1.38,6.62,1.38,1.62,0,3.05-.16,4.32-.48,1.26-.32,2.26-.78,3.01-1.38,.74-.6,1.12-1.32,1.12-2.16,0-.52-.14-.99-.41-1.43-.28-.44-.64-.8-1.09-1.09-.68,.48-1.6,.93-2.76,1.33-1.16,.4-2.42,.61-3.78,.61-2,0-3.66-.48-4.97-1.45-1.04-.77-1.75-1.91-2.15-3.38l13.52-1.95c.84-.1,1.5-.36,1.96-.8,.47-.44,.7-1.11,.7-2.01,0-1.97-.46-3.72-1.38-5.24-.92-1.52-2.18-2.71-3.78-3.56Zm-11.38,9.41c.1-1.9,.64-3.4,1.66-4.46,1.1-1.15,2.47-1.72,4.12-1.72s2.84,.45,3.69,1.36c.84,.91,1.31,1.97,1.41,3.2l-10.87,1.62Z"/>
        <path class="cls-1" d="M134.75,19.74c-1.6-.86-3.47-1.29-5.6-1.29-1.52,0-2.97,.25-4.36,.75-1.39,.5-2.61,1.24-3.66,2.23-1.05,.99-1.88,2.22-2.5,3.71-.62,1.49-.92,3.22-.92,5.19,0,2.75,.54,5.04,1.63,6.89,1.08,1.84,2.59,3.23,4.51,4.15,1.92,.92,4.13,1.38,6.62,1.38,1.62,0,3.05-.16,4.32-.48,1.26-.32,2.26-.78,3.01-1.38,.74-.6,1.12-1.32,1.12-2.16,0-.52-.14-.99-.41-1.43s-.64-.8-1.09-1.09c-.68,.48-1.6,.93-2.76,1.33-1.16,.4-2.42,.61-3.78,.61-2,0-3.66-.48-4.97-1.45-1.04-.77-1.75-1.91-2.14-3.38l13.52-1.95c.84-.1,1.5-.36,1.96-.8,.47-.44,.7-1.11,.7-2.01,0-1.97-.46-3.72-1.38-5.24-.92-1.52-2.18-2.71-3.78-3.56Zm-11.38,9.41c.11-1.9,.64-3.4,1.66-4.46,1.1-1.15,2.47-1.72,4.12-1.72s2.84,.45,3.69,1.36c.84,.91,1.31,1.97,1.41,3.2l-10.87,1.62Z"/>
        <path class="cls-1" d="M159.31,10.22c-1.1-.55-2.7-.82-4.8-.82-1.87,0-3.55,.3-5.02,.9-1.47,.6-2.62,1.54-3.44,2.81-.82,1.28-1.24,2.93-1.24,4.97v21.53c0,1.04,.27,1.75,.8,2.16,.53,.4,1.35,.61,2.45,.61,.58,0,1.12-.04,1.6-.12s.86-.17,1.12-.27V25.3h7.08c.68,0,1.2-.19,1.58-.56,.37-.37,.56-.96,.56-1.77,0-.52-.07-.98-.22-1.38-.15-.4-.28-.72-.41-.94h-8.83v-2.33c0-1.49,.39-2.55,1.16-3.2,.78-.65,2.02-.97,3.73-.97,.84,0,1.64,.08,2.4,.24,.76,.16,1.45,.37,2.06,.63,.29-.26,.54-.59,.75-.99,.21-.4,.32-.85,.32-1.33,0-1.1-.55-1.92-1.65-2.47Z"/>
        <path class="cls-1" d="M184.07,19.21c-.6-.37-1.3-.56-2.11-.56-.48,0-.94,.06-1.36,.17-.42,.11-.82,.27-1.21,.46-.39,1.87-.87,3.85-1.43,5.92-.57,2.07-1.16,4.07-1.77,5.99-.61,1.92-1.23,3.6-1.84,5.02h-.19c-.97-2.55-1.88-5.06-2.74-7.52-.86-2.46-1.71-4.95-2.55-7.47-.29-.97-.7-1.64-1.24-2.01-.53-.37-1.22-.56-2.06-.56-.65,0-1.24,.13-1.79,.39s-1,.58-1.36,.97c.74,2.55,1.47,4.89,2.18,7.01,.71,2.12,1.4,3.98,2.06,5.58,.66,1.6,1.25,2.93,1.77,4,.68,1.36,1.29,2.29,1.84,2.79,.55,.5,1.1,.83,1.65,.99-.52,.94-1.15,1.89-1.89,2.86-.74,.97-1.51,1.88-2.3,2.74-.79,.86-1.54,1.59-2.25,2.21,.13,.87,.51,1.61,1.14,2.21,.63,.6,1.45,.9,2.45,.9,1.29,0,2.63-.75,4.02-2.26,1.39-1.5,2.91-3.73,4.56-6.67,.71-1.26,1.41-2.67,2.11-4.24,.7-1.57,1.36-3.19,1.99-4.87s1.19-3.3,1.67-4.85c.48-1.55,.86-2.97,1.14-4.24,.27-1.28,.41-2.3,.41-3.08,0-.87-.3-1.49-.9-1.87Z"/>
      </g>
    </g>
  </g>
</svg>