<?xml version="1.0" encoding="UTF-8"?>
<svg id="Layer_2" data-name="Layer 2" xmlns="http://www.w3.org/2000/svg" viewBox="0 0 62.36 62.28">
  <defs>
    <style>
      .cls-1 {
        fill: #fff;
      }
    </style>
  </defs>
  <g id="Layer_1-2" data-name="Layer 1">
    <path class="cls-1" d="M30.93,62.27C14.05,62.56-.48,47.98,.01,30.36,.48,13.57,14.1,0,31.41,0c17.11,0,31.09,14.02,30.94,31.28-.14,17.31-13.79,31.24-31.43,30.99ZM50.92,17.29c-.67,.28-1.09,.45-1.5,.62-1.84,.75-3.38,1.01-5.39-.3-4.4-2.87-12.04-.31-12.13,6.57-.03,1.99-.95,2.33-2.56,2.02-4.71-.92-8.87-2.89-12.23-6.42-.54-.57-1.06-1.68-1.91-1.35-.97,.37-.91,1.61-1.08,2.56-.49,2.7,.78,4.95,2.17,7.55-2.53-.97-2.43,.38-2.05,1.73,.26,.92,.82,1.76,1.24,2.64,.67,1.4,2.39,1.75,3.17,2.99-.41,.65-1.64,.12-1.49,.91,.65,3.28,3.65,4.09,6.35,5.41-3.39,2.45-6.96,3.23-10.78,3.13,4.3,2.99,11.27,4.35,16.7,3.27,10.27-2.05,17.33-9.76,18.54-20.21,.26-2.22,.48-4.47,2.71-5.84,.67-.41,1.13-1.15,1.27-2.13-.96,.12-1.79,.84-2.92,.44,.77-1.11,1.6-2.03,1.88-3.59Z"/>
  </g>
</svg>