<?xml version="1.0" encoding="UTF-8"?>
<svg id="Layer_2" data-name="Layer 2" xmlns="http://www.w3.org/2000/svg" viewBox="0 0 62.16 62.38">
  <defs>
    <style>
      .cls-1 {
        fill: #fff;
      }
    </style>
  </defs>
  <g id="Layer_1-2" data-name="Layer 1">
    <g>
      <path class="cls-1" d="M62.12,31.12c.93,16.71-14.1,31.71-31.43,31.25C13.68,61.91-.08,48.64,0,31.31,.09,13.4,13.82,.03,31.43,0c17.11-.03,31.54,14.61,30.69,31.12Zm-30.94,14.44c4.77-.03,9.53,.09,14.29-.44,2.81-.31,4.85-1.51,5.33-3.81,1.36-6.58,1.4-13.2,.09-19.8-.42-2.14-1.75-3.44-3.88-3.91-3.19-.7-6.46-.71-9.68-.81-6.58-.21-13.17-.15-19.75,.37-3.78,.3-5.87,1.64-6.36,4.94-.89,6.01-.88,12.07,0,18.09,.45,3.07,2.52,4.59,5.67,4.93,4.76,.51,9.52,.43,14.29,.44Z"/>
      <path class="cls-1" d="M28.1,25.91c.7,.34,1.47,.65,2.19,1.06,1.7,.98,3.37,2.02,5.07,2.99,1.31,.74,2.08,1.35,.13,2.35-2.28,1.17-4.48,2.5-6.68,3.83-.99,.6-1.58,.56-1.59-.73-.03-2.81-.02-5.61,0-8.42,0-.53,.04-1.08,.89-1.08Z"/>
    </g>
  </g>
</svg>