<?xml version="1.0" encoding="UTF-8"?>
<svg id="Layer_2" data-name="Layer 2" xmlns="http://www.w3.org/2000/svg" viewBox="0 0 199.07 120.63">
  <defs>
    <style>
      .cls-1 {
        fill: #fff;
      }
    </style>
  </defs>
  <g id="Layer_1-2" data-name="Layer 1">
    <g>
      <path class="cls-1" d="M96.26,120.62c-19.44,0-38.88,0-58.31,0-2.16,0-4.28-.24-6.39-.64-1.76-.34-3.5-.79-5.21-1.36-1.62-.53-3.15-1.26-4.69-1.98-2.16-1.02-4.14-2.31-6.06-3.73-1.61-1.19-3.1-2.49-4.5-3.91-1.09-1.1-2.08-2.28-3.02-3.51-1.11-1.44-2.16-2.92-3.04-4.52-.9-1.63-1.72-3.28-2.4-5.01-.53-1.35-1-2.72-1.36-4.12-.38-1.5-.71-3-.91-4.54-.28-2.13-.39-4.27-.34-6.42,.02-.85,.09-1.7,.18-2.54,.16-1.36,.3-2.73,.62-4.07,.28-1.18,.52-2.37,.93-3.53,.31-.89,.61-1.79,.94-2.67,.35-.92,.76-1.82,1.19-2.7,.81-1.65,1.73-3.24,2.77-4.76,1.21-1.77,2.55-3.45,4.04-5,.97-1,1.95-1.99,3.03-2.86,2.21-1.79,4.5-3.47,7.05-4.76,1.95-.99,3.96-1.83,6.02-2.55,1.35-.47,2.74-.8,4.14-1.1,1.48-.32,2.97-.5,4.47-.66,.54-.06,1.08-.03,1.62-.04,.76-.02,.84-.11,1.08-.84,.81-2.48,1.72-4.92,2.78-7.31,1.21-2.71,2.63-5.3,4.24-7.78,1.63-2.52,3.41-4.92,5.42-7.16,1.08-1.21,2.18-2.41,3.35-3.53,1.36-1.3,2.79-2.51,4.25-3.68,2.44-1.97,5.02-3.74,7.74-5.3,2.43-1.4,4.93-2.65,7.57-3.62,1.61-.59,3.2-1.25,4.86-1.73,.95-.27,1.87-.61,2.83-.84,1.97-.47,3.95-.92,5.96-1.2,1.41-.19,2.83-.38,4.26-.43,1.35-.05,2.69-.2,4.04-.21,1.16,0,2.31-.03,3.46,.12,.02,0,.04,0,.06,0,.99-.1,1.96,.13,2.94,.15,1.06,.03,2.11,.23,3.16,.36,.96,.12,1.9,.34,2.85,.49,.77,.13,1.55,.29,2.31,.54,.51,.17,1.05,.25,1.57,.37,2.83,.69,5.54,1.7,8.22,2.81,2.2,.91,4.32,1.98,6.37,3.18,1.44,.84,2.87,1.69,4.22,2.66,1.5,1.08,2.98,2.2,4.41,3.39,1.91,1.59,3.67,3.32,5.39,5.1,1.42,1.48,2.73,3.05,3.97,4.68,1.77,2.33,3.35,4.77,4.78,7.32,.08,.13,.16,.26,.25,.39,.14,.2,.34,.27,.56,.21,.77-.21,1.57-.14,2.35-.2,.75-.06,1.5-.13,2.26-.1,1.41,.06,2.81,.17,4.21,.29,1.47,.12,2.91,.37,4.35,.64,1.06,.2,2.12,.45,3.15,.77,1.07,.33,2.15,.63,3.2,1.01,1.03,.37,2.04,.83,3.05,1.26,2.2,.93,4.22,2.18,6.24,3.44,1.49,.93,2.87,2.02,4.23,3.15,1.49,1.23,2.89,2.57,4.21,3.99,1.63,1.74,3.09,3.61,4.41,5.59,1.14,1.73,2.18,3.52,3.07,5.39,1.28,2.69,2.3,5.48,3.04,8.37,.42,1.61,.73,3.24,.95,4.89,.36,2.68,.55,5.39,.36,8.09-.08,1.23-.16,2.47-.35,3.69-.29,1.91-.68,3.8-1.2,5.67-.74,2.65-1.7,5.22-2.9,7.69-1.02,2.11-2.22,4.11-3.56,6.04-1.99,2.85-4.29,5.43-6.86,7.76-2.01,1.81-4.16,3.45-6.51,4.83-1.3,.76-2.59,1.54-3.95,2.2-1.49,.73-3.03,1.35-4.6,1.91-1.88,.67-3.8,1.17-5.75,1.59-1.55,.34-3.12,.56-4.69,.72-.97,.1-1.96,.18-2.95,.18-19.81,0-39.61,0-59.42,0Zm.14-5.97h0c18.41,0,36.82,0,55.23,0,2.09,0,4.17,.03,6.25-.2,1.5-.16,3-.36,4.47-.64,2.26-.44,4.44-1.18,6.58-2.05,2.37-.96,4.61-2.18,6.75-3.59,2.55-1.69,4.88-3.66,6.96-5.92,1.26-1.37,2.42-2.82,3.5-4.33,1.45-2.03,2.63-4.23,3.63-6.52,.64-1.47,1.21-2.96,1.66-4.51,.42-1.47,.77-2.95,1.03-4.45,.2-1.16,.39-2.33,.39-3.51,0-1.31,.07-2.62,.05-3.94-.03-1.76-.15-3.51-.45-5.25-.25-1.42-.57-2.83-.95-4.23-.55-1.96-1.28-3.85-2.16-5.68-1.26-2.62-2.72-5.11-4.54-7.4-1.73-2.17-3.68-4.12-5.78-5.92-1.48-1.27-3.08-2.39-4.77-3.39-1.57-.93-3.17-1.77-4.84-2.5-1.63-.72-3.32-1.25-5.04-1.73-3.09-.86-6.24-1.27-9.44-1.35-.85-.02-1.7,.03-2.55,.06-1.47,.05-2.92,.24-4.39,.36-.76,.06-1.46-.12-2.06-.61-.37-.3-.61-.7-.83-1.11-1.2-2.19-2.45-4.34-3.83-6.42-1.11-1.68-2.35-3.27-3.67-4.78-1.32-1.51-2.75-2.93-4.18-4.34-1.22-1.2-2.53-2.27-3.85-3.34-1.87-1.51-3.87-2.82-5.97-4-1.8-1.02-3.63-1.97-5.53-2.79-.74-.32-1.5-.62-2.25-.92-1.61-.65-3.25-1.21-4.94-1.65-.79-.2-1.57-.4-2.36-.59-.77-.18-1.55-.35-2.32-.49-1.6-.29-3.2-.5-4.82-.65-1.81-.17-3.63-.23-5.44-.26-1.42-.02-2.85,.05-4.28,.18-1.02,.09-2.04,.17-3.05,.31-2.37,.34-4.73,.76-7.03,1.46-1.53,.46-3.07,.92-4.57,1.47-2.58,.95-5.06,2.12-7.48,3.43-2.08,1.12-4.06,2.41-5.95,3.81-1.58,1.17-3.1,2.43-4.56,3.76-1.42,1.29-2.75,2.67-4.02,4.1-1.39,1.56-2.66,3.21-3.85,4.93-1.81,2.62-3.35,5.38-4.69,8.26-.63,1.35-1.16,2.74-1.7,4.13-.31,.79-.61,1.59-.81,2.41-.25,1.03-.64,2.02-.83,3.07-.03,.17-.1,.33-.19,.48-.7,1.16-1.69,1.84-3.09,1.78-2-.09-3.99,.09-5.95,.41-1.87,.3-3.71,.77-5.51,1.37-2.28,.76-4.47,1.73-6.53,2.98-2.01,1.21-3.86,2.65-5.58,4.23-1.96,1.8-3.65,3.83-5.09,6.07-2.44,3.83-4.1,7.95-4.76,12.46-.17,1.19-.34,2.37-.36,3.57-.03,1.29-.03,2.59,.06,3.88,.12,1.8,.42,3.57,.84,5.32,.56,2.38,1.47,4.63,2.58,6.81,1.38,2.71,3.08,5.18,5.15,7.4,1.76,1.88,3.69,3.57,5.83,5.03,1.28,.87,2.66,1.57,4.04,2.27,2.25,1.12,4.6,1.9,7.04,2.47,1.05,.25,2.13,.37,3.2,.53,.98,.15,1.95,.26,2.94,.26,19.55,0,39.11,0,58.66,0Z"/>
      <path class="cls-1" d="M108.76,67.81c.18-.7,.34-1.32,.5-1.94,1.48-5.78,2.97-11.57,4.46-17.35,.08-.3,.18-.59,.3-.88,.21-.52,.61-.83,1.15-.84,1.1-.03,2.2-.03,3.31-.01,.48,0,.75,.37,.7,.88-.03,.31-.11,.61-.2,.9-1.17,3.8-2.35,7.61-3.53,11.41-1.22,3.93-2.44,7.86-3.66,11.8-.43,1.39-.76,1.63-2.2,1.63-.73,0-1.47,0-2.2,0-1.11-.01-1.53-.34-1.8-1.42-.65-2.67-1.29-5.34-1.93-8.01-.78-3.25-1.55-6.5-2.33-9.76-.09-.39-.19-.77-.35-1.16-.18,.71-.36,1.42-.52,2.13-1.12,4.7-2.24,9.4-3.35,14.1-.21,.86-.41,1.73-.62,2.59-.06,.22-.13,.45-.22,.66-.16,.4-.47,.65-.89,.75-.27,.07-.53,.09-.8,.09-.77,0-1.55,0-2.32,0-1.11-.01-1.55-.3-1.88-1.36-.7-2.23-1.37-4.47-2.05-6.71-1.12-3.68-2.23-7.36-3.34-11.04-.58-1.92-1.16-3.85-1.74-5.77-.09-.32-.18-.63-.17-.97,.02-.47,.24-.74,.7-.75,1.16-.02,2.32-.01,3.48,0,.46,0,.79,.28,1,.69,.2,.38,.3,.79,.41,1.21,1.08,4.29,2.17,8.58,3.25,12.87,.47,1.86,.94,3.71,1.41,5.56,.04,.15,.08,.29,.16,.57,.1-.37,.17-.62,.23-.87,1.14-4.87,2.28-9.75,3.42-14.62,.3-1.28,.59-2.56,.91-3.84,.33-1.35,.66-1.6,2.06-1.6,.72,0,1.43,0,2.15,0,1.18,0,1.58,.33,1.85,1.49,.26,1.13,.53,2.26,.79,3.39,.73,3.11,1.45,6.21,2.18,9.31,.5,2.13,.99,4.25,1.49,6.38,.03,.13,.05,.27,.21,.46Z"/>
      <path class="cls-1" d="M99.65,99.83c-3.56-.07-7.1-.31-10.62-.87-5.68-.91-11.15-2.55-16.4-4.88-4.35-1.93-8.41-4.34-12.23-7.17-1.59-1.17-3.1-2.43-4.58-3.74-.2-.18-.41-.36-.56-.59-.22-.35-.22-.78,0-1.03,.26-.29,.59-.34,.95-.22,.35,.12,.66,.33,.98,.51,4.38,2.49,8.95,4.56,13.7,6.25,4.25,1.51,8.6,2.68,13.02,3.54,2.52,.49,5.07,.84,7.62,1.13,4.28,.49,8.56,.53,12.85,.41,1.75-.05,3.51-.22,5.25-.41,3.48-.38,6.93-.95,10.34-1.74,4.85-1.12,9.58-2.62,14.17-4.55,.28-.12,.58-.23,.88-.29,.61-.13,1.22,.17,1.52,.71,.27,.5,.17,1.04-.31,1.52-.44,.44-.96,.78-1.47,1.13-2.26,1.54-4.63,2.87-7.1,4.04-2.23,1.05-4.5,1.96-6.84,2.73-4.01,1.32-8.11,2.29-12.29,2.86-2.16,.29-4.33,.51-6.52,.57-.79,.02-1.58,.09-2.37,.08Z"/>
      <path class="cls-1" d="M75.64,70.09c-.46,.45-.89,.9-1.35,1.31-2.25,1.95-4.89,2.76-7.82,2.67-1.44-.05-2.84-.35-4.1-1.11-2.06-1.24-3.19-3.08-3.54-5.44-.18-1.22-.13-2.43,.17-3.62,.55-2.21,1.89-3.82,3.84-4.94,1.27-.74,2.66-1.11,4.12-1.28,2.45-.29,4.86,.05,7.25,.53,.23,.05,.45,.1,.68,.14,.27,.05,.41-.06,.41-.34,0-.97,.06-1.93-.05-2.9-.07-.61-.15-1.22-.34-1.82-.47-1.51-1.5-2.4-3.02-2.74-1.96-.43-3.91-.38-5.86,.07-1.21,.28-2.39,.65-3.53,1.13-.32,.13-.65,.24-.99,.33-.52,.13-.87-.04-.95-.55-.15-.88-.16-1.77,.05-2.65,.09-.38,.4-.6,.73-.79,.98-.56,2.04-.91,3.11-1.26,2.4-.76,4.86-.89,7.34-.73,1.22,.08,2.41,.34,3.55,.79,2.6,1.03,4.03,3.01,4.64,5.67,.25,1.08,.35,2.17,.35,3.28,0,2.96-.01,5.91,0,8.87,0,.79,.06,1.58,.14,2.37,.08,.8,.35,1.54,.69,2.26,.16,.33,.32,.66,.49,.99,.35,.72,.25,1.19-.4,1.66-.58,.42-1.17,.82-1.78,1.2-.78,.5-1.38,.4-2-.3-.64-.73-1.12-1.57-1.56-2.43-.06-.12-.09-.25-.27-.37Zm-.31-6.64c0-.33,0-.6,0-.87,0-.65-.03-.67-.64-.81-1.29-.29-2.59-.41-3.9-.5-1.27-.09-2.52-.01-3.73,.36-1.61,.5-2.63,1.56-2.9,3.28-.13,.85-.1,1.7,.14,2.53,.39,1.32,1.27,2.13,2.61,2.45,.69,.16,1.39,.16,2.08,.1,1.34-.12,2.63-.45,3.77-1.22,1.34-.9,2.26-2.09,2.47-3.75,.07-.54,.09-1.08,.11-1.56Z"/>
      <path class="cls-1" d="M130.45,74.2c-2.61-.04-4.93-.47-7.18-1.3-.45-.17-.88-.4-1.29-.67-.51-.33-.78-.8-.81-1.4-.03-.56-.03-1.12,0-1.68,.05-.8,.48-1.09,1.26-.86,.3,.09,.58,.21,.87,.33,2.42,1.04,4.96,1.48,7.58,1.34,1.01-.05,2-.22,2.92-.67,1.39-.68,2.1-1.76,1.99-3.35-.06-.89-.44-1.59-1.15-2.11-.71-.52-1.52-.84-2.35-1.11-1.47-.48-2.95-.93-4.43-1.4-.89-.28-1.75-.63-2.56-1.08-2.84-1.57-4.32-4.73-3.69-7.9,.36-1.8,1.38-3.18,2.79-4.27,1.56-1.2,3.35-1.8,5.29-2.01,2.59-.29,5.08,.12,7.53,.93,.59,.2,1.14,.48,1.61,.9,.37,.33,.56,.73,.57,1.22,0,.52,.02,1.05,0,1.57-.04,.8-.47,1.09-1.25,.86-.2-.06-.4-.15-.59-.24-1.64-.74-3.36-1.14-5.17-1.15-1.06,0-2.13-.04-3.17,.26-.28,.08-.56,.16-.82,.28-1.12,.46-1.75,1.31-1.85,2.52-.09,1.17,.33,2.12,1.32,2.79,.82,.56,1.74,.92,2.68,1.22,1.56,.5,3.13,.99,4.69,1.51,1.33,.45,2.58,1.05,3.6,2.04,1.67,1.61,2.25,3.61,2,5.87-.31,2.83-1.89,4.81-4.33,6.13-1.45,.78-3.02,1.16-4.66,1.32-.54,.05-1.08,.13-1.41,.1Z"/>
      <path class="cls-1" d="M135.42,83.13c-2.04-.06-4.05,.18-6.06,.42-.31,.04-.62,.07-.92,.07-.61,0-.85-.47-.53-.99,.15-.24,.37-.39,.59-.54,1.74-1.15,3.65-1.83,5.69-2.23,1.87-.37,3.77-.42,5.66-.32,1.18,.06,2.34,.26,3.47,.65,.72,.25,1.11,.68,1.23,1.45,.13,.82,.04,1.62-.07,2.42-.33,2.5-1.07,4.87-2.22,7.11-.85,1.66-1.93,3.17-3.33,4.43-.25,.22-.5,.43-.83,.51-.54,.14-.9-.21-.75-.74,.1-.37,.26-.73,.4-1.09,.83-2.08,1.61-4.19,2.16-6.36,.22-.88,.41-1.77,.39-2.69-.02-1.04-.37-1.52-1.36-1.82-.52-.16-1.05-.25-1.6-.27-.64-.02-1.28,0-1.91,0Z"/>
    </g>
  </g>
</svg>