<?xml version="1.0" encoding="UTF-8"?>
<svg id="Layer_2" data-name="Layer 2" xmlns="http://www.w3.org/2000/svg" xmlns:xlink="http://www.w3.org/1999/xlink" viewBox="0 0 913.62 271.4">
  <defs>
    <style>
      .cls-1 {
        fill: url(#linear-gradient);
      }

      .cls-2 {
        fill: #23b8e3;
      }
    </style>
    <linearGradient id="linear-gradient" x1="456.81" y1="286.28" x2="456.81" y2="25.01" gradientUnits="userSpaceOnUse">
      <stop offset="0" stop-color="#b1fcc8"/>
      <stop offset=".03" stop-color="#a7f7c9"/>
      <stop offset=".18" stop-color="#7fe4d1"/>
      <stop offset=".33" stop-color="#5dd4d7"/>
      <stop offset=".49" stop-color="#44c7dc"/>
      <stop offset=".65" stop-color="#31bee0"/>
      <stop offset=".82" stop-color="#26b9e2"/>
      <stop offset="1" stop-color="#23b8e3"/>
    </linearGradient>
  </defs>
  <g id="Layer_1-2" data-name="Layer 1">
    <g>
      <path class="cls-1" d="M474.34,41.13c129.92-8.28,256.96-31.55,320.89-16.51,68.32,16.08,172.07,126.09,85.37,201.55-104.99,91.37-347.8-7.52-730.12,42.98C18.99,286.52-.89,199.19,.03,144.54,1.42,61.86,46.58,76.47,95.49,38.97c76.6-58.72,276.33,8.69,378.85,2.16Z"/>
      <g>
        <path class="cls-2" d="M38.04,29.97c2.3,4.94,10.83,4.73,20.79,2.73s7.47-16.24,5.89-19.63S55.12-.1,44.66,7.06c-7.12,4.87-8.91,17.98-6.62,22.92Z"/>
        <path class="cls-2" d="M83.58,.55c-2.89,1.34-2.76,6.33-1.59,12.15s9.49,4.36,11.47,3.44,7.69-5.61,3.51-11.72c-2.84-4.16-10.5-5.21-13.39-3.87Z"/>
      </g>
    </g>
  </g>
</svg>