<?xml version="1.0" encoding="UTF-8"?>
<svg id="Layer_2" data-name="Layer 2" xmlns="http://www.w3.org/2000/svg" viewBox="0 0 106.08 149.71">
  <defs>
    <style>
      .cls-1 {
        fill: #fff;
      }
    </style>
  </defs>
  <g id="Layer_1-2" data-name="Layer 1">
    <g>
      <path class="cls-1" d="M52.57,149.71c-.21-.18-.48-.23-.74-.3-13.81-3.83-27.61-7.67-41.43-11.49-.54-.15-.82-.36-.86-.97-.09-1.46-.25-2.91-.39-4.36-.17-1.91-.35-3.83-.52-5.74-.17-1.89-.33-3.78-.5-5.67-.17-1.96-.36-3.92-.53-5.89-.16-1.84-.32-3.68-.49-5.52-.18-1.96-.36-3.92-.53-5.89-.16-1.84-.32-3.68-.49-5.52-.18-2.01-.36-4.02-.54-6.03-.17-1.89-.32-3.78-.49-5.67-.17-1.89-.35-3.78-.52-5.67-.17-1.89-.33-3.78-.5-5.67-.17-1.96-.36-3.92-.53-5.89-.17-1.87-.33-3.73-.49-5.6-.18-1.99-.36-3.97-.54-5.96-.16-1.82-.32-3.63-.48-5.45-.23-2.52-.46-5.04-.68-7.56-.16-1.84-.32-3.68-.49-5.52-.18-2.01-.36-4.02-.54-6.03-.1-1.09-.2-2.18-.29-3.27-.05-.54,.05-.65,.58-.69,.22-.02,.44,0,.66,0,34.52,0,69.03,0,103.55,0,1.35,0,1.35,.01,1.23,1.34-.29,3.25-.58,6.49-.87,9.74-.22,2.4-.45,4.79-.67,7.19-.22,2.45-.42,4.9-.63,7.34-.22,2.45-.45,4.89-.67,7.34-.17,1.87-.32,3.73-.49,5.6-.17,1.96-.36,3.92-.53,5.89-.16,1.82-.32,3.63-.48,5.45-.18,1.99-.36,3.97-.54,5.96-.16,1.84-.32,3.68-.49,5.52-.18,1.96-.36,3.92-.54,5.89-.16,1.82-.32,3.63-.48,5.45-.18,2.03-.37,4.07-.55,6.1-.16,1.87-.32,3.73-.49,5.6-.17,1.91-.35,3.83-.52,5.74-.17,1.87-.33,3.73-.49,5.6-.18,1.99-.36,3.97-.54,5.96-.17,1.89-.34,3.78-.49,5.67-.07,.93-.07,.94-.96,1.19-13.27,3.68-26.54,7.36-39.81,11.04-.79,.22-1.62,.34-2.35,.75h-.88Zm.45-98.01s0,.01,0,.02c-.41,0-.83,0-1.24,0-10.2,0-20.4,0-30.6,0-.22,0-.44,0-.66,0-.53,.03-.57,.06-.53,.61,.1,1.19,.21,2.37,.31,3.56,.21,2.47,.41,4.94,.63,7.41,.27,2.98,.56,5.96,.82,8.94,.22,2.47,.41,4.94,.63,7.41,.32,3.51,.68,7.02,.96,10.53,.12,1.46,.08,1.37,1.48,1.37,14.48,0,28.97,.01,43.45,.02,1.13,0,1.17,.06,1.07,1.14-.23,2.42-.46,4.84-.67,7.27-.25,2.79-.49,5.57-.75,8.36-.05,.57-.11,.63-.68,.79-.51,.15-1.03,.28-1.55,.42-4.04,1.09-8.08,2.17-12.12,3.27-.44,.12-.85,.13-1.29,0-.7-.21-1.41-.38-2.11-.57-3.78-1.02-7.56-2.05-11.35-3.05-.53-.14-.75-.39-.8-.94-.26-3.03-.55-6.05-.83-9.08-.06-.66-.09-.71-.74-.71-3.87,0-7.74,0-11.61,0-.68,0-.76,.11-.71,.77,0,.07,.02,.14,.03,.22,.13,1.43,.26,2.86,.39,4.29,.16,1.87,.32,3.73,.49,5.6,.17,1.94,.36,3.87,.53,5.81,.1,1.14,.21,2.28,.3,3.42,.03,.34,.15,.55,.48,.63,.17,.04,.33,.09,.49,.13,2.98,.83,5.96,1.65,8.93,2.48,5.49,1.52,10.97,3.04,16.46,4.58,.53,.15,1.02,.16,1.57,0,6.87-1.92,13.74-3.82,20.61-5.72,1.69-.47,3.38-.94,5.06-1.4,.37-.1,.64-.24,.68-.71,.22-2.62,.47-5.23,.71-7.85,.22-2.47,.42-4.94,.64-7.42,.22-2.45,.46-4.89,.67-7.34,.22-2.45,.41-4.9,.63-7.34,.27-2.98,.55-5.96,.82-8.94,.11-1.19,.09-1.19-1.08-1.19-10.15,.06-20.3-.08-30.45,.08-5.23,.08-10.47,.01-15.7,.01-.15,0-.29,0-.44,0-.49-.05-.6-.13-.64-.62-.16-1.69-.3-3.39-.46-5.09-.13-1.43-.26-2.86-.39-4.29-.1-1.09-.19-2.18-.29-3.27-.03-.36,.13-.56,.48-.58,.27-.02,.53-.02,.8-.02,6.18,.05,12.36,0,18.55,.06,9.96,.1,19.91,.03,29.87,.03,.17,0,.34-.01,.51,0,.4,.03,.56-.17,.59-.56,.04-.66,.11-1.31,.17-1.96,.28-3.17,.57-6.35,.85-9.52,.09-1.05,.08-1.05-1-1.05-10.42,0-20.84,0-31.26,0-.24,0-.49,0-.73,0Z"/>
      <path class="cls-1" d="M76.82,0c.01,.32,.04,.63,.04,.95,0,6.09,0,12.17,0,18.26q0,1.13-1.12,1.14c-1.63,0-3.26,0-4.89,0-.85,0-.9-.05-.9-.92,0-2.56,0-5.11,0-7.67,0-.27,0-.53,0-.85-.31,.05-.37,.28-.47,.44-1.16,1.77-2.3,3.55-3.45,5.33-.09,.14-.18,.29-.28,.43-.32,.44-.45,.44-.74,0-.58-.87-1.14-1.76-1.71-2.64-.78-1.2-1.56-2.4-2.38-3.67-.2,.31-.13,.58-.13,.82,0,2.43,0,4.87,0,7.3,0,.19,0,.39,0,.58-.02,.77-.07,.83-.84,.83-1.7,0-3.41,0-5.11,0-.77,0-.82-.06-.82-.84,0-6.3,0-12.61,0-18.91,0-.19,.03-.39,.04-.58,2.39,0,4.77,0,7.16,0,1.29,2.14,2.59,4.28,3.89,6.42,.29,.47,.41,.47,.7,0C67.08,4.28,68.37,2.14,69.66,0c2.39,0,4.77,0,7.16,0Z"/>
      <path class="cls-1" d="M29.64,0c.01,.29,.03,.58,.03,.87,0,6.11,0,12.21,0,18.32q0,1.14-1.11,1.14c-1.58,0-3.16,0-4.74,0q-1.07,0-1.07-1.04c0-1.56,0-3.11,0-4.67,0-.17,0-.34,0-.51,0-.32-.14-.51-.47-.51-.1,0-.19,0-.29,0-1.46,0-2.92,0-4.38,0-.74,0-.8,.06-.8,.79,0,1.61,0,3.21,0,4.82,0,.22,0,.44-.02,.66-.02,.28-.16,.45-.46,.46-.1,0-.19,0-.29,0-1.8,0-3.6,0-5.4,0-.72,0-.79-.09-.83-.79,0-.02,0-.05,0-.07,0-6.23,0-12.46,0-18.69,0-.27,.02-.54,.13-.79h6.72c.17,.31,.15,.66,.15,1,0,1.63,0,3.26,0,4.88,0,.75,.04,.79,.78,.79,1.36,0,2.72,0,4.08,0,1.08,0,1.08,0,1.09-1.06,0-1.87,.02-3.74,.03-5.61C25.07,0,27.35,0,29.64,0Z"/>
      <path class="cls-1" d="M51.11,0c.12,.25,.14,.51,.14,.78,0,1.73,0,3.46,0,5.19,0,.07,0,.15,0,.22-.04,.57-.13,.68-.71,.68-1.05,.02-2.09,0-3.14,0-.51,0-1.02-.01-1.53,0-.47,.02-.53,.1-.56,.57-.01,.22,0,.44,0,.66,0,3.63,0,7.25,0,10.88,0,.17,0,.34,0,.51-.02,.77-.07,.83-.84,.83-1.75,0-3.51,0-5.26,0-.77,0-.82-.06-.82-.84,0-3.87,0-7.74,0-11.61q0-1-1.01-1c-1.34,0-2.68,0-4.02,0-.88,0-.93-.05-.93-.89,0-2,.01-3.99,.02-5.99h18.7Z"/>
      <path class="cls-1" d="M86.9,0c.02,.34,.05,.68,.05,1.02,0,3.84,0,7.69,0,11.53,0,.97,0,.98,.97,.98,2.46,0,4.91,0,7.37,0,.19,0,.39,0,.58,0,.47,.03,.55,.09,.55,.58,.01,1.87,.01,3.75,0,5.62,0,.5-.1,.57-.62,.6-.1,0-.19,0-.29,0-4.87,0-9.73,0-14.6,0-.84,0-.9-.05-.9-.85,0-6.5,0-12.99,0-19.49C82.32,0,84.61,0,86.9,0Z"/>
    </g>
  </g>
</svg>