<?xml version="1.0" encoding="UTF-8"?>
<svg id="Layer_2" data-name="Layer 2" xmlns="http://www.w3.org/2000/svg" viewBox="0 0 103.06 135.64">
  <defs>
    <style>
      .cls-1 {
        fill: #fff;
      }
    </style>
  </defs>
  <g id="Layer_1-2" data-name="Layer 1">
    <g>
      <g>
        <path class="cls-1" d="M65.27,128.4c-1.3,1.36-2.89,1.68-4.61,1.56-1.24-.09-2.4-.45-3.41-1.18-1.28-.93-2.07-2.2-2.45-3.72-.53-2.12-.49-4.23,.38-6.26,.94-2.21,2.66-3.43,5.04-3.75,1.15-.16,2.27-.08,3.36,.35,.61,.24,1.13,.62,1.66,1.13,0-.39,0-.71,0-1.02,0-.21,.08-.31,.3-.31,1.17,0,2.35,0,3.52,0,.2,0,.3,.08,.29,.29,0,.09,0,.18,0,.27,0,4.9,0,9.79,0,14.69,0,.92-.16,1.82-.62,2.63-.8,1.43-2.08,2.15-3.65,2.44-.49,.09-1,.11-1.5,.11-2.19,.01-4.38,0-6.56,0-.5,0-.5,0-.5-.49,0-.73,0-1.46,0-2.19q0-.55,.54-.55c1.95,0,3.9-.03,5.85,.01,1.3,.03,2.25-.67,2.36-2.1,.05-.62,0-1.25,0-1.92Zm-3.3-9.92c-1.44,.01-2.49,.65-3.08,1.97-.55,1.25-.57,2.54-.09,3.82,.5,1.36,1.66,2.17,3.08,2.18,1.54,.02,2.71-.72,3.27-2.11,.37-.91,.41-1.86,.26-2.82-.28-1.86-1.61-3.04-3.45-3.05Z"/>
        <path class="cls-1" d="M4.1,128.57v.49c0,2.02,0,4.03,0,6.05,0,.49,0,.49-.5,.49-1.03,0-2.05,0-3.08,0-.52,0-.52,0-.52-.54,0-1.51,0-3.03,0-4.54,0-4.91,0-9.82,0-14.73q0-.59,.58-.59c1.04,0,2.07,.01,3.11,0,.32,0,.42,.12,.41,.42,0,.31-.04,.63,.04,.99,.16-.15,.29-.27,.43-.39,.84-.73,1.83-1.11,2.92-1.2,2.13-.18,4.03,.34,5.52,1.96,1.01,1.09,1.53,2.42,1.74,3.87,.24,1.61,.19,3.21-.4,4.75-.98,2.57-2.86,4.01-5.59,4.34-1.33,.16-2.61,0-3.8-.67-.3-.17-.54-.41-.87-.69Zm6.76-6.06c.01-.54-.06-1.07-.22-1.58-.4-1.35-1.53-2.32-2.81-2.41-1.72-.12-2.95,.52-3.57,1.95-.58,1.34-.59,2.71,0,4.05,.96,2.17,3.91,2.66,5.56,.95,.8-.82,1.02-1.85,1.04-2.95Z"/>
        <path class="cls-1" d="M16.25,122.56c0-4.07,2.66-7.05,6.64-7.51,2.31-.27,4.43,.24,6.22,1.78,1.49,1.28,2.25,2.95,2.43,4.89,.16,1.64-.13,3.21-.97,4.63-1.28,2.17-3.24,3.29-5.71,3.57-1.86,.21-3.62-.11-5.22-1.1-1.94-1.2-3.01-2.99-3.33-5.24-.05-.37-.07-.75-.07-1.03Zm11.24-.33c.01-.32-.07-.9-.29-1.46-.49-1.27-1.39-2.08-2.76-2.25-1.46-.18-2.7,.28-3.48,1.59-.76,1.27-.81,2.64-.34,4.02,.87,2.56,3.91,2.93,5.55,1.56,.98-.82,1.31-1.94,1.32-3.45Z"/>
        <path class="cls-1" d="M71.72,122.46c0-3.85,2.45-6.78,6.29-7.37,2.45-.38,4.73,.12,6.63,1.81,1.44,1.27,2.18,2.92,2.36,4.82,.13,1.44-.07,2.84-.71,4.15-1.06,2.13-2.78,3.43-5.09,3.91-2.44,.51-4.73,.12-6.73-1.41-1.55-1.18-2.41-2.79-2.68-4.72-.02-.16-.05-.32-.06-.47,0-.24,0-.48,0-.72Zm11.22,.04c.02-.45-.05-.89-.15-1.32-.34-1.41-1.43-2.46-2.79-2.67-1.53-.23-2.9,.37-3.63,1.64-.58,1.01-.7,2.1-.5,3.24,.57,3.3,4.01,3.74,5.74,2.31,1-.83,1.31-1.95,1.34-3.19Z"/>
        <path class="cls-1" d="M93.23,117.09c.33-.44,.62-.78,.98-1.06,2.53-1.96,7.93-1.5,8.74,3.52,.07,.45,.11,.9,.11,1.36,0,2.77,0,5.53,0,8.3,0,.55,0,.55-.55,.55-1.03,0-2.05,0-3.08,0-.48,0-.49,0-.49-.5,0-2.58,0-5.17,0-7.75,0-.74-.2-1.42-.7-1.99-.73-.84-1.67-1.04-2.7-.83-1.15,.24-1.84,.99-2.16,2.1-.12,.42-.15,.85-.15,1.28,0,2.4,0,4.81,0,7.21,0,.48,0,.48-.47,.48-1.07,0-2.14,0-3.21,0-.29,0-.4-.09-.4-.39,0-4.6,0-9.2,0-13.8,0-.28,.09-.39,.37-.38,1.12,0,2.23,0,3.35,0,.26,0,.37,.09,.36,.36-.01,.48,0,.97,0,1.54Z"/>
        <path class="cls-1" d="M46.94,124.45c.32-.97,.61-1.88,.9-2.79,.66-2.05,1.33-4.09,1.98-6.14,.08-.26,.22-.33,.47-.33,1.12,.01,2.23,0,3.35,0,.45,0,.47,.02,.31,.44-.9,2.46-1.79,4.92-2.69,7.38-1.48,4.03-2.94,8.06-4.32,12.13-.11,.33-.25,.47-.62,.46-1.01-.03-2.03,0-3.04-.01-.36,0-.38-.02-.26-.37,.62-1.74,1.23-3.48,1.86-5.21,.1-.28,.1-.53,0-.82-1.64-4.47-3.28-8.94-4.91-13.41-.04-.1-.07-.19-.1-.29-.08-.2-.03-.3,.2-.3,1.2,0,2.39,0,3.59,0,.28,0,.33,.19,.39,.39,.66,2.04,1.33,4.07,1.99,6.11,.29,.9,.59,1.79,.9,2.76Z"/>
        <path class="cls-1" d="M33.91,119.34c0-3.3,0-6.61,0-9.91q0-.52,.53-.53c1,0,2.01,0,3.01,0,.55,0,.56,0,.56,.55,0,2.36,0,4.72,0,7.07,0,4.21,0,8.43,0,12.64q0,.6-.61,.6c-1,0-2.01,0-3.01,0-.46,0-.48-.02-.48-.48,0-3.31,0-6.63,0-9.94Z"/>
      </g>
      <path class="cls-1" d="M51.53,0C23.07,0,0,23.07,0,51.53s23.07,51.53,51.53,51.53,51.53-23.07,51.53-51.53S79.99,0,51.53,0Zm35.69,68.73c0,2.3-1,4.03-2.98,5.18-4.61,2.68-9.23,5.35-13.86,7.98-1.84,1.04-3.75,1.07-5.6,.02-4.65-2.65-9.29-5.32-13.92-8.01-1.99-1.16-2.99-2.93-3-5.24,0-1.28,0-2.56,0-3.83,0-.36,.12-.59,.44-.77,2.05-1.17,4.08-2.36,6.12-3.54,.63-.36,.67-.33,.67,.41,0,2.12,.02,4.23,0,6.35,0,.52,.15,.83,.61,1.1,3.79,2.18,7.57,4.38,11.35,6.58,.35,.21,.64,.21,1,0,3.79-2.22,7.59-4.42,11.4-6.61,.4-.23,.56-.49,.56-.95-.01-4.39-.01-8.78,0-13.18,0-.44-.15-.7-.52-.91-3.82-2.21-7.64-4.42-11.45-6.65-.37-.21-.64-.18-.99,.02-5.91,3.43-11.82,6.85-17.73,10.27-3.59,2.08-7.18,4.17-10.78,6.24-2.08,1.2-4.17,1.17-6.26-.04-4.42-2.57-8.85-5.12-13.28-7.68-2.08-1.2-3.18-2.95-3.16-5.38,.02-2.63,0-5.27,0-7.91,0-2.64,0-5.27,0-7.91,0-2.28,1-4,2.94-5.13,4.62-2.69,9.26-5.37,13.91-8.01,1.81-1.03,3.71-1.06,5.55-.02,3.36,1.9,6.69,3.83,10.03,5.75,1.25,.72,2.49,1.43,3.74,2.15,2.15,1.23,3.21,3.09,3.19,5.57,0,1.18-.02,2.36,0,3.53,0,.44-.16,.7-.53,.91-2.07,1.17-4.13,2.36-6.19,3.53-.53,.3-.6,.26-.6-.36,0-2.18-.01-4.35,0-6.53,0-.48-.16-.76-.57-1-3.79-2.18-7.57-4.38-11.35-6.58-.35-.21-.65-.2-1,0-3.79,2.21-7.59,4.42-11.4,6.62-.38,.22-.52,.48-.52,.91,.01,4.41,.01,8.82,0,13.23,0,.44,.16,.68,.53,.9,3.81,2.19,7.61,4.4,11.4,6.61,.36,.21,.63,.19,.99-.01,9.34-5.42,18.71-10.81,28.03-16.26,2.47-1.44,4.77-1.42,7.21,.04,4.28,2.56,8.63,5.02,12.95,7.52,2.04,1.18,3.06,2.95,3.05,5.32-.01,5.25,0,10.5,0,15.75Z"/>
    </g>
  </g>
</svg>