<?xml version="1.0" encoding="UTF-8"?>
<svg id="Layer_2" data-name="Layer 2" xmlns="http://www.w3.org/2000/svg" viewBox="0 0 120.41 92.27">
  <defs>
    <style>
      .cls-1 {
        fill: #fff;
      }
    </style>
  </defs>
  <g id="Layer_1-2" data-name="Layer 1">
    <g>
      <path class="cls-1" d="M0,74.11c1.05-3.29,3.34-5.16,6.67-5.93,1.64-.38,3.24-.9,4.86-1.38,.62-.18,1.46-.23,1.5-1.07,.05-1,.36-2.04-.68-2.9-2.62-2.18-4.42-4.99-4.68-8.4-.23-3.1-.96-5.99-1.8-8.97-1.69-6.02,3.16-12.64,9.39-13.26,5.19-.51,10.41-.12,15.61-.21,2.57-.04,2.52-.01,2.67-2.65,.24-4.27,.68-8.51,2.25-12.54C39.52,7.26,46.35,1.5,56.6,.25c9.21-1.12,17.24,1.41,23.4,8.64,3.77,4.43,5.69,9.69,6.31,15.42,.58,5.36,1.01,10.73,1.53,16.34,.96-1.3,1.51-2.67,2.6-3.59,1.38-1.17,1.86-2.44,1.9-4.37,.11-5.56,5.81-9.29,11.58-7.94,4.7,1.1,7.87,5.3,6.95,9.75-.13,.64,.3,.92,.67,1.26,3.58,3.25,5.31,7.28,5.1,12.13-.03,.62-.07,1.26-.22,1.86-.8,3.1-1.93,6.1-3.12,9.07-.68,1.69-1.95,3.01-3.36,4.17-1.43,1.17-1.12,3.92,.54,4.75,1.86,.93,3.72,1.84,5.57,2.79,2.92,1.5,4.42,3.85,4.4,7.17-.03,3.99,0,7.99,0,11.98,0,.2,0,.39,0,.59-.06,1.2-.81,2.01-1.86,2-1.04-.01-1.81-.81-1.82-2.03-.02-3.88,0-7.75-.02-11.63,0-.58-.07-1.17-.14-1.75-.15-1.26-.84-2.19-1.94-2.77-1.73-.92-3.5-1.76-5.23-2.67-.6-.32-.94,0-1.32,.37-1.23,1.21-2.46,2.41-4.18,2.94-2.56,.78-4.88,.31-6.97-1.31-.68-.53-1.31-1.12-1.93-1.72-.38-.37-.72-.47-1.25-.24-1.74,.76-1.75,.74-.87,2.39,.75,1.41,1.19,2.89,1.19,4.49,0,3.84,0,7.68,0,11.51,0,.43,0,.86-.19,1.27-.35,.75-.92,1.17-1.75,1.14-.83-.03-1.4-.47-1.67-1.25-.2-.6-.22-1.23-.22-1.86,0-3.45-.04-6.89,.01-10.34,.04-2.86-1.27-4.74-3.85-5.85-2.73-1.17-5.47-2.36-8.16-3.63-1-.47-1.45-.25-2.01,.66-3.57,5.82-8.87,8.93-15.65,9.06-7.21,.14-12.82-3.03-16.59-9.24-.51-.85-.96-.9-1.77-.53-2.81,1.28-5.65,2.51-8.48,3.76-2.43,1.08-3.69,2.91-3.66,5.61,.03,3.49,.01,6.97,0,10.46,0,.58-.05,1.18-.18,1.74-.21,.91-.85,1.4-1.78,1.4-.95,0-1.53-.56-1.76-1.44-.11-.41-.1-.85-.1-1.28,0-3.05,.09-6.11-.03-9.16-.14-3.66,.59-6.93,3.7-9.47-.93-.32-1.7-.57-2.46-.84-.49-.18-.82,.08-1.14,.39-1.08,1.08-2.15,2.18-3.24,3.24-.51,.49-.54,1.09-.54,1.73,0,4.54,0,9.09,0,13.63,0,.58-.04,1.18-.16,1.75-.21,.96-.87,1.5-1.85,1.46-1.04-.04-1.63-.68-1.78-1.7-.05-.38-.03-.78-.03-1.17,0-4.66-.02-9.32,.01-13.98,0-.81-.22-1.41-.81-1.96-1.01-.93-1.97-1.91-2.91-2.91-.47-.51-.93-.54-1.57-.35-2.06,.64-4.13,1.21-6.2,1.81-2.69,.78-3.64,2.02-3.64,4.85-.01,4.39-.01,8.77,0,13.16,0,1.05-.31,1.86-1.37,2.2-.98,.31-1.63-.29-2.25-.92v-17.16ZM59.72,3.84c-2.83-.08-5.98,.46-8.95,1.81-7.78,3.55-11.59,9.98-12.85,18.13-.71,4.56-.83,9.19-1.28,13.78-.67,6.89-1.36,13.78-2.48,20.61-.15,.89,.09,1.47,.92,1.92,2.35,1.27,4.82,2.23,7.31,3.18,1.8,.69,3.36,.57,5.01-.37,.96-.55,1.47-1.2,1.44-2.32-.04-1.45-.06-2.9,0-4.35,.04-.88-.28-1.43-.98-1.96-5.94-4.5-8.6-10.57-8.43-17.95,.04-1.95,.84-3.56,2.48-4.69,.67-.47,1.37-.92,2-1.44,1.44-1.2,2.48-2.68,3.18-4.43,.44-1.1,1.44-1.5,2.37-1.14,1.01,.39,1.45,1.37,1.11,2.51-.09,.3-.22,.59-.34,.87-1.14,2.69-3.07,4.71-5.51,6.24-1.03,.65-1.56,1.45-1.47,2.7,.09,1.21,.03,2.42,.23,3.63,1.24,7.28,6.97,12.76,14.61,13.92,6.73,1.02,13.93-2.87,17.15-9.12,1.76-3.42,1.88-7.05,1.82-10.75-.02-1.45-.57-2.54-1.68-3.44-4.54-3.67-9.76-5.87-15.37-7.27-2.43-.61-4.92-.9-7.39-1.29-1.28-.2-2.01-1.14-1.83-2.17,.19-1.13,1.16-1.76,2.48-1.57,1.86,.27,3.72,.52,5.56,.9,6.92,1.42,13.33,3.97,18.91,8.43,1.7,1.36,2.85,3.06,3.05,5.23,.76,8.32-1.34,15.53-8.26,20.79-.72,.55-1.1,1.11-1.05,2.05,.08,1.33,.01,2.66,.02,3.99,0,1.89,2.59,4.04,4.43,3.56,3.3-.87,6.46-2.13,9.45-3.81,.75-.42,.91-.98,.8-1.75-.29-1.89-.57-3.79-.82-5.69-.83-6.36-1.47-12.74-2.01-19.13-.31-3.7-.44-7.42-1.17-11.08-1-5-3.1-9.44-6.88-12.95-4.27-3.95-9.39-5.64-15.57-5.57ZM23.45,35.84s0,.02,0,.03c-2.43,0-4.86-.08-7.28,.02-4.87,.2-8.28,5.68-6.19,10.07,.84,1.76,1.29,3.48,1.18,5.4-.05,.77,.08,1.56,.19,2.33,.52,3.51,2.34,6.15,5.58,7.6,3.16,1.42,6.28,1.06,9.13-.95,2.95-2.08,4.04-5.07,3.95-8.57-.05-1.89-.01-3.74,1.06-5.43,.39-.61,.55-1.37,.66-2.12,.36-2.53,.1-5.08,.16-7.62,.02-.83-.61-.77-1.16-.77-2.43,0-4.85,0-7.28,0Zm89.19,13.5c.83-3.15,.05-6.2-1.89-8.8-3.71-4.97-10.01-6.2-15.14-2.98-4.59,2.88-6.97,9.08-3.93,14.84,.37,.7,.6,1.44,.75,2.21,.89,4.4,4.62,7.45,9.13,7.46,3.91,.02,6.94-2.17,8.67-5.7,.86-1.76,1.93-5.24,2.4-7.04Zm-54,25.92c6.62,0,11.2-2.4,13.98-6.54,.96-1.43,.97-1.47-.6-2.09-1.79-.71-3.18-1.8-3.92-3.63-.63-1.54-.45-3.16-.42-4.75,.01-1-.25-1.2-1.22-.88-3.89,1.3-7.82,1.37-11.78,.27-2-.55-2.1-.54-1.98,1.52,.23,3.8-1.2,6.46-4.91,7.68-.85,.28-.85,.7-.4,1.37,3.03,4.57,7.26,6.97,11.25,7.05Zm31.52-15.95c-.18,1.59-.78,2.71-2.03,3.43-1.96,1.14-3.95,2.22-6.08,3.04-.33,.13-.79,.12-.98,.68,1.78,.8,3.6,1.5,5.32,2.41,1.52,.8,2.87,.98,4.33-.08,.62-.45,1.39-.72,2.08-1.07,1.43-.72,1.8-3.6,.57-4.68-1.18-1.04-2.24-2.18-3.22-3.73Zm-50.88,7.12c-.28-.51-.71-.54-1.06-.67-2.13-.82-4.09-1.95-6.09-3.03-.63-.34-.92-1.42-1.69-1.14-.68,.25-1.18,.99-1.76,1.52-.03,.03-.06,.05-.09,.08-.94,1.01-.44,3.13,.85,3.54,1.08,.34,2.24,.51,3.25,.98,2.56,1.18,4.45-.4,6.57-1.28Zm62.3,4.81c1.2,.06,2.13-.47,2.93-1.27,.41-.4,1.07-.71,1.09-1.32,.03-.92-.11-1.86-.24-2.78-.06-.41-.43-.4-.75-.32-1.97,.49-3.93,.5-5.9,.01-.27-.07-.54-.11-.75,.15-.12,.16-.29,3.16-.15,3.31,1.04,1.11,2.05,2.3,3.78,2.2Zm5.52-39.17c-.05-.15-.1-.46-.24-.73-1.11-2.13-2.95-3.04-5.29-3.01-2.31,.03-4.2,.84-5.24,3.06-.13,.28-.21,.59-.29,.89-.14,.49-.04,.82,.55,.61,3.25-1.15,6.51-1.17,9.78-.1,.52,.17,.74-.03,.73-.72ZM16.76,66.57c-.02,.12,.04,.39,.25,.59,1.07,1.08,2.15,2.16,3.22,3.24,.24,.24,.48,.23,.72,0,1.07-1.08,2.16-2.15,3.21-3.25,.35-.37,.29-.89,.15-1.34-.13-.4-.49-.32-.79-.24-1.93,.49-3.86,.46-5.79,0-.71-.17-.9,.24-.95,.99Z"/>
      <path class="cls-1" d="M16.05,41.41c2.68,.22,5.57,.33,8.36,1.15,.78,.23,1.57,.48,2.32,.82,1.19,.53,1.63,1.53,1.22,2.55-.39,.96-1.38,1.37-2.56,.92-3.12-1.18-6.37-1.47-9.65-1.6-.31-.01-.63-.02-.93-.08-1.09-.22-1.73-.95-1.7-1.91,.03-1,.78-1.72,1.92-1.84,.27-.03,.55,0,1.02,0Z"/>
    </g>
  </g>
</svg>