<?xml version="1.0" encoding="UTF-8"?>
<svg id="Layer_2" data-name="Layer 2" xmlns="http://www.w3.org/2000/svg" viewBox="0 0 94.2 100.95">
  <defs>
    <style>
      .cls-1 {
        fill: #fff;
      }
    </style>
  </defs>
  <g id="Layer_1-2" data-name="Layer 1">
    <g>
      <path class="cls-1" d="M70.52,50.45c0-3.6-.01-7.2,0-10.8,.01-2.42-.96-4.17-3.15-5.35-5.83-3.17-11.63-6.42-17.42-9.66-1.88-1.05-3.71-1.04-5.57,0-5.53,3.07-11.07,6.13-16.6,9.19-.49,.27-.97,.6-1.56,.5-.78-.13-1.38-.54-1.56-1.35-.2-.89,.13-1.59,.92-2.04,1.27-.73,2.55-1.46,3.85-2.13,.6-.31,.85-.7,.84-1.4-.04-1.82-.03-3.63,0-5.45,0-.57-.15-1.02-.57-1.39-.31-.28-.64-.56-.88-.89-1-1.38-2.05-1.75-3.86-1.2-3.7,1.13-7.65-1.72-8.26-5.59-.61-3.89,2.26-7.61,6.12-7.95,4.05-.36,7.52,2.69,7.6,6.63,.02,1-.08,1.97-.51,2.86-.3,.62-.17,1.02,.29,1.47,.88,.85,1.69,1.77,2.58,2.61,.72,.67,1.05,1.41,1.01,2.4-.06,1.5,0,3.01-.03,4.51-.02,.77,.24,.83,.85,.49,2.41-1.35,4.83-2.68,7.25-4.01,.7-.39,1.39-.88,2.15-1.07,1.21-.3,1.47-.98,1.39-2.11-.1-1.36-.07-2.73,0-4.09,.04-.83-.25-1.22-1.01-1.57-4.4-2.02-5.47-7.55-2.15-10.93C44.29,0,46.81-.51,49.53,.5c2.58,.95,4.08,2.93,4.32,5.68,.27,3.02-.99,5.36-3.7,6.7-1.07,.53-1.39,1.12-1.32,2.23,.09,1.46,.03,2.93,.02,4.4,0,.43,.01,.79,.54,.99,3.26,1.23,6.12,3.2,9.18,4.82,1.91,1.01,1.88,1.06,1.88-1.13,0-1.08,.05-2.17-.01-3.25-.06-1.02,.26-1.82,1.01-2.52,.87-.81,1.66-1.71,2.55-2.49,.55-.48,.58-.86,.32-1.53-1.42-3.56,.06-7.33,3.46-8.92,2.76-1.29,6.18-.56,8.12,1.75,2.05,2.43,2.24,5.79,.49,8.37-1.75,2.58-5.06,3.74-7.94,2.64-.99-.38-1.5-.12-2.26,.51-1.77,1.45-2.6,3.14-2.25,5.44,.14,.96,.07,1.96,0,2.93-.05,.84,.23,1.35,1,1.74,1.5,.75,2.95,1.6,4.41,2.42,3.08,1.71,4.73,4.29,4.65,7.84-.02,.97,.27,1.29,1.24,1.24,1.43-.07,2.87-.06,4.3,0,.85,.04,1.28-.24,1.65-1.04,2.23-4.82,8.58-5.47,11.71-1.23,2.31,3.12,1.44,7.69-1.85,9.75-3.46,2.17-7.98,.96-9.73-2.72-.5-1.05-1.07-1.35-2.14-1.29-1.43,.08-2.87,.04-4.3,.01-.62-.01-.88,.21-.88,.85,.02,3.88,.01,7.76,0,11.64,0,.59,.25,.8,.82,.8,1.71-.02,3.43-.04,5.14,.01,.74,.02,.92-.44,1.16-.96,1.68-3.6,5.66-5.11,9.13-3.47,2.8,1.32,4.25,4.06,3.86,7.24-.33,2.69-2.74,5.16-5.5,5.64-2.97,.52-5.97-.88-7.25-3.62-.52-1.12-1.15-1.45-2.3-1.37-1.39,.09-2.8,.04-4.19,.02-.63-.01-.89,.23-.86,.86,.15,4.12-1.86,6.87-5.45,8.65-1.28,.63-2.5,1.41-3.77,2.06-.65,.33-.88,.79-.86,1.5,.04,1.75,.04,3.5,0,5.24-.01,.65,.19,1.13,.66,1.57,.67,.62,1.33,1.25,1.92,1.93,.49,.56,.94,.6,1.64,.34,4.12-1.55,8.38,.76,9.26,5.04,.55,2.65-.27,4.94-2.35,6.66-2.19,1.81-4.71,2.13-7.27,.95-2.52-1.17-3.87-3.23-4-6.04-.05-1,.08-1.97,.52-2.86,.34-.67,.15-1.07-.34-1.54-.94-.88-1.82-1.84-2.75-2.73-.57-.55-.81-1.17-.8-1.96,.03-1.57-.01-3.15,.02-4.72,.02-.75-.21-.85-.84-.5-2.38,1.33-4.77,2.64-7.15,3.96-.95,.52-1.88,1.09-2.93,1.38-.54,.15-.7,.46-.69,.99,.02,1.64,.05,3.29-.01,4.93-.03,.82,.24,1.22,1,1.57,4.4,2.02,5.47,7.55,2.16,10.94-2.01,2.06-4.47,2.58-7.13,1.69-2.64-.89-4.23-2.84-4.52-5.64-.31-3,.88-5.39,3.6-6.75,1.14-.57,1.51-1.18,1.42-2.38-.11-1.43-.03-2.86-.02-4.3,0-.43,0-.79-.53-1-3.25-1.23-6.12-3.2-9.17-4.82-1.92-1.02-1.89-1.07-1.89,1.12,0,1.15-.04,2.31,.01,3.46,.04,.92-.29,1.62-.93,2.23-.86,.82-1.65,1.71-2.54,2.5-.59,.53-.64,.99-.36,1.72,1.49,3.89-.57,8.03-4.51,9.17-2.84,.82-5.9-.29-7.57-2.74-1.69-2.49-1.62-5.74,.17-8.04,1.9-2.44,4.98-3.43,7.77-2.35,.94,.36,1.43,.12,2.18-.46,1.89-1.47,2.69-3.28,2.29-5.63-.04-.24-.05-.5,0-.73,.55-2.56-.6-4.02-2.94-4.9-1.13-.42-2.18-1.11-3.2-1.78-2.57-1.65-3.89-4.03-3.93-7.1-.02-1.51-.01-1.51-1.57-1.51-1.26,0-2.52,.05-3.77-.02-.94-.05-1.48,.2-1.9,1.15-1.2,2.69-3.72,4.06-6.82,3.88-2.44-.14-4.86-2.03-5.72-4.45-1.21-3.41,.4-7.15,3.69-8.57,3.36-1.45,7.23-.07,8.8,3.25,.47,.99,.99,1.34,2.04,1.27,1.43-.09,2.87-.04,4.3-.01,.64,.01,.97-.15,.96-.88-.02-3.84-.02-7.69,0-11.53,0-.61-.2-.89-.85-.88-1.71,.03-3.43,.04-5.14,0-.75-.02-.91,.47-1.15,.98-1.69,3.63-5.75,5.11-9.24,3.39-2.72-1.34-4.14-4.08-3.73-7.22,.35-2.7,2.77-5.16,5.52-5.62,2.96-.5,5.92,.86,7.18,3.56,.57,1.22,1.26,1.53,2.47,1.44,1.25-.09,2.52-.05,3.77-.01,.71,.02,1.01-.22,1.01-.96,0-.69,.07-1.4,.23-2.08,.22-.97,1.1-1.5,2.07-1.35,.89,.14,1.58,.92,1.5,1.86-.33,3.77-.1,7.54-.14,11.31-.05,3.98,.02,7.97-.02,11.95-.03,2.56,.99,4.37,3.28,5.61,5.69,3.08,11.34,6.21,16.96,9.41,2.27,1.29,4.34,1.28,6.61-.02,5.4-3.09,10.82-6.14,16.32-9.05,2.59-1.37,3.8-3.28,3.71-6.21-.1-3.46-.02-6.92-.02-10.38ZM26.87,89.1c.02-1.74-1.51-3.27-3.28-3.28-1.69-.01-3.19,1.49-3.22,3.23-.02,1.72,1.41,3.21,3.16,3.27,1.74,.06,3.32-1.46,3.34-3.22ZM23.6,15.14c1.78-.02,3.26-1.51,3.26-3.29,0-1.7-1.63-3.26-3.35-3.21-1.66,.05-3.14,1.55-3.15,3.19-.01,1.76,1.52,3.33,3.24,3.31Zm67.02,26.89c-.01-1.72-1.61-3.25-3.36-3.2-1.65,.05-3.14,1.56-3.15,3.2,0,1.77,1.53,3.34,3.25,3.31,1.77-.03,3.27-1.55,3.26-3.3ZM70.67,8.64c-1.76-.03-3.31,1.47-3.34,3.22-.03,1.7,1.43,3.21,3.17,3.27,1.73,.07,3.3-1.46,3.33-3.22,.02-1.72-1.46-3.25-3.16-3.28Zm-.03,83.68c1.67,0,3.2-1.56,3.19-3.25,0-1.77-1.56-3.3-3.29-3.26-1.71,.04-3.2,1.55-3.21,3.25,0,1.72,1.56,3.26,3.31,3.26ZM10.08,42.13c0-1.78-1.54-3.33-3.26-3.29-1.77,.04-3.27,1.57-3.24,3.32,.02,1.7,1.51,3.15,3.26,3.18,1.64,.03,3.25-1.56,3.24-3.21Zm0,16.74c-.04-1.8-1.59-3.32-3.3-3.25-1.78,.07-3.26,1.63-3.2,3.36,.05,1.7,1.58,3.15,3.3,3.15,1.65,0,3.24-1.62,3.2-3.25Zm77.3-3.25c-1.76,.02-3.27,1.54-3.26,3.3,0,1.72,1.6,3.25,3.35,3.21,1.62-.04,3.15-1.58,3.16-3.19,.01-1.77-1.52-3.33-3.24-3.31ZM50.35,6.95c.04-1.73-1.45-3.28-3.22-3.34-1.71-.06-3.25,1.47-3.29,3.26-.03,1.6,1.47,3.16,3.1,3.24,1.71,.08,3.36-1.44,3.4-3.16Zm0,87.09c-.01-1.65-1.63-3.24-3.26-3.19-1.76,.05-3.24,1.51-3.24,3.2,0,1.75,1.49,3.27,3.26,3.3,1.69,.03,3.26-1.57,3.25-3.31Z"/>
      <path class="cls-1" d="M30.39,49.14c0,2.84,0,5.39,0,7.94,0,.92-.42,1.56-1.3,1.8-.78,.21-1.45-.05-1.92-.73-.25-.37-.28-.78-.28-1.2,0-4.3,0-8.6,0-12.89,0-.89,.27-1.61,1.14-1.92,.91-.33,1.63,.03,2.19,.78,2.06,2.74,4.12,5.47,6.18,8.21,.12,.16,.26,.32,.56,.69,0-.94,0-1.66,0-2.37,0-1.89-.02-3.77,.01-5.66,.02-1.05,.72-1.73,1.7-1.74,.99-.02,1.76,.64,1.77,1.67,.03,4.51,.02,9.01,.01,13.52,0,.83-.44,1.41-1.22,1.64-.88,.26-1.55-.1-2.09-.81-1.95-2.6-3.91-5.19-5.87-7.78-.23-.3-.47-.6-.88-1.12Z"/>
      <path class="cls-1" d="M43.67,50.45c0-2.13-.01-4.26,0-6.4,.01-1.43,.61-2.02,2.06-2.03,2.03-.01,4.05-.01,6.08,0,1.31,0,2.04,.63,2.06,1.71,.02,1.13-.72,1.77-2.09,1.79-1.22,.01-2.45,.02-3.67,0-.65-.02-.96,.18-.95,.89,.05,2.8-.29,2.28,2.22,2.33,.91,.02,1.82-.02,2.73,.01,1.06,.04,1.74,.71,1.76,1.69,.03,1.02-.67,1.76-1.76,1.79-1.33,.04-2.66,.04-3.98,0-.74-.02-.99,.26-.96,.98,.04,1.26,.02,2.52,0,3.77-.02,1.22-.66,1.94-1.71,1.96-1.1,.02-1.77-.71-1.78-1.99-.02-2.17,0-4.33,0-6.5Z"/>
      <path class="cls-1" d="M60.45,51.7c0-1.68-.05-3.35,.02-5.03,.04-.94-.3-1.29-1.2-1.16-.2,.03-.42,.01-.63-.01-.91-.11-1.52-.79-1.53-1.69-.02-.95,.6-1.74,1.56-1.76,2.34-.05,4.68-.05,7.02,0,.97,.02,1.61,.77,1.62,1.71,0,.94-.62,1.65-1.59,1.75-.14,.02-.28,.01-.42,.01q-1.34,.04-1.34,1.42c0,3.14,0,6.28,0,9.42,0,.31,.01,.63-.01,.94-.09,.98-.77,1.62-1.71,1.63-.98,.01-1.74-.65-1.76-1.68-.04-1.85-.01-3.7-.01-5.55h0Z"/>
    </g>
  </g>
</svg>