<?xml version="1.0" encoding="UTF-8"?>
<svg id="Layer_2" data-name="Layer 2" xmlns="http://www.w3.org/2000/svg" viewBox="0 0 102.78 102.65">
  <defs>
    <style>
      .cls-1 {
        fill: #fff;
      }
    </style>
  </defs>
  <g id="Layer_1-2" data-name="Layer 1">
    <g>
      <path class="cls-1" d="M0,79.34c.7-2.54,1.87-4.77,4.03-6.4,.92-.69,1.9-1.25,2.99-1.6,.63-.2,.9-.55,.95-1.22,.38-5.17,4.67-9.39,9.58-9.69,5.99-.37,10.59,3.72,11.31,8.87,.2,1.4,.71,2,1.95,2.42,1.4,.49,2.56,1.44,3.54,2.56,.41,.48,.65,.63,1.14,.05,1.19-1.41,2.69-2.4,4.44-2.98,.67-.22,.94-.6,.98-1.3,.35-5.43,4.97-9.62,10.54-9.61,5.5,0,10.09,4.23,10.45,9.61,.04,.64,.23,1.05,.88,1.27,1.82,.6,3.36,1.63,4.6,3.09,.34,.4,.56,.46,.93,.03,1.26-1.49,2.84-2.53,4.69-3.14,.56-.19,.76-.54,.81-1.11,.46-5.24,4.54-9.44,9.42-9.73,5.78-.35,10.47,3.06,11.41,8.58,.26,1.55,.84,2.2,2.21,2.79,2.82,1.2,4.6,3.46,5.56,6.37,.12,.38,.25,.76,.37,1.14v3.81c-.07,.26-.14,.51-.22,.77-1.32,4.37-4.21,7.11-8.74,7.8-2.1,.32-4.27,.13-6.41,.11-.79,0-1.05,.24-1.04,1.03,.04,2.47,.02,4.94,.01,7.41,0,1.51-.79,2.39-2.09,2.38-1.3,0-2.05-.88-2.06-2.42,0-2.47-.02-4.94,0-7.41,0-.73-.21-1.02-.97-.99-1.54,.04-3.08-.02-4.62,.02-3.24,.09-5.96-1.06-8.13-3.44-.58-.64-.9-.51-1.4,.05-1.67,1.85-3.77,3.05-6.25,3.28-2.06,.19-4.14,.12-6.22,.08-.9-.02-1.24,.21-1.21,1.17,.06,2.4,.02,4.81,.02,7.21,0,.4,.01,.8-.15,1.18-.38,.9-1.28,1.4-2.28,1.25-.99-.15-1.7-.94-1.71-2.03-.03-2.5-.06-5.01,.01-7.51,.03-1.05-.33-1.32-1.32-1.27-1.4,.08-2.81-.02-4.21,.03-3.28,.1-6.02-1.06-8.22-3.46-.53-.59-.83-.52-1.33,.03-2.18,2.36-4.89,3.53-8.13,3.44-1.54-.04-3.08,.02-4.62-.02-.76-.02-.98,.27-.97,.99,.03,2.47,.02,4.94,0,7.41,0,1.53-.76,2.41-2.06,2.42-1.3,0-2.09-.87-2.09-2.38-.01-2.5-.02-5.01,0-7.51,0-.7-.24-.94-.93-.93-1.71,.03-3.41,0-5.12,.01-2.22,.01-4.21-.66-6-1.94-2.34-1.67-3.71-3.97-4.35-6.75v-3.81Zm23.91,8.34s0,0,0,0c.8,0,1.61,.03,2.41,0,3.69-.14,6.45-2.82,6.51-6.3,.06-3.22-2.47-6.01-5.76-6.38-2.03-.22-2.65-1.08-2.36-3.09,.39-2.68-.6-4.82-2.83-6.27-2.22-1.44-4.59-1.44-6.81,0-2.24,1.45-3.24,3.59-2.85,6.26,.29,2.01-.33,2.89-2.34,3.1-3.27,.35-5.7,2.98-5.78,6.26-.07,3.04,2.28,5.78,5.41,6.27,2.06,.32,4.14,.08,6.21,.15,.63,.02,.68-.38,.68-.86,0-1.5,0-3,0-4.5,.01-1.45,.88-2.42,2.12-2.39,1.21,.03,2.02,.97,2.03,2.37,.01,1.5,.02,3,0,4.5-.01,.64,.21,.91,.87,.89,.83-.04,1.67,0,2.51,0Zm21.79,0c1.01,0,1.85-.03,2.68,0,.69,.03,.96-.21,.94-.92-.04-1.5-.02-3,0-4.5,.01-1.39,.85-2.34,2.06-2.34,1.21,0,2.07,.94,2.08,2.32,.02,1.53,.02,3.07,0,4.6,0,.59,.2,.85,.81,.84,1.7-.03,3.41,.06,5.11-.03,3.62-.19,6.31-2.78,6.34-6.23,.03-3.67-2.68-6.23-6.09-6.46-1.56-.11-2.32-1.16-2.04-2.8,.16-.94,.14-1.85-.08-2.77-.76-3.25-4.09-5.31-7.47-4.62-3.24,.66-5.48,3.87-4.94,7.07,.35,2.09-.27,2.92-2.37,3.15-3.26,.37-5.71,3.07-5.73,6.3-.02,3.08,2.3,5.71,5.45,6.24,1.13,.19,2.27,.08,3.22,.13Zm44.09,0h0c.8,0,1.61,.02,2.41-.01,3.66-.16,6.33-2.73,6.48-6.22,.14-3.2-2.45-6.09-5.79-6.45-2-.21-2.63-1.09-2.33-3.11,.39-2.64-.6-4.75-2.78-6.2-2.24-1.49-4.64-1.5-6.89-.03-2.24,1.45-3.21,3.6-2.82,6.28,.29,2-.33,2.85-2.38,3.08-3.26,.36-5.71,3.03-5.75,6.29-.04,3.06,2.29,5.75,5.43,6.25,1.96,.31,3.94,.06,5.9,.16,.77,.04,.98-.28,.96-1-.04-1.5-.02-3,0-4.5,.02-1.32,.86-2.24,2.04-2.26,1.21-.02,2.09,.93,2.1,2.3,.02,1.47,.05,2.94-.01,4.4-.03,.86,.3,1.12,1.11,1.06,.77-.05,1.54-.01,2.31-.01Z"/>
      <path class="cls-1" d="M52.8,0c.57,.37,1.07,.79,1.23,1.5,.23,1.01-.24,1.98-1.15,2.4-.92,.42-2,.13-2.57-.68-.6-.84-.49-1.99,.27-2.72,.19-.18,.42-.33,.63-.49,.54,0,1.07,0,1.61,0Z"/>
      <path class="cls-1" d="M49.67,45.75c-8.7,0-17.39,0-26.09,0-5.23,0-9.61-3.08-11.19-7.84-1.62-4.89,0-9.9,4.27-13.04,.53-.4,.77-.81,.79-1.49,.17-7.27,6.43-12.44,13.64-11.26,.76,.12,1.08-.2,1.4-.78,2-3.58,4.78-6.4,8.34-8.46,.46-.27,.93-.53,1.43-.73,1.15-.48,2.33-.07,2.83,.95,.49,1,.16,2.12-.91,2.75-1.3,.76-2.62,1.48-3.77,2.46-2.27,1.91-3.97,4.23-5.13,6.95-.75,1.76-1.65,2.14-3.41,1.46-2.73-1.05-5.28-.72-7.53,1.14-2.2,1.81-2.95,4.21-2.49,7,.23,1.4-.16,2.06-1.66,2.8-2.93,1.45-4.43,4.29-4.06,7.7,.3,2.73,2.56,5.24,5.4,5.95,.78,.19,1.57,.3,2.38,.3,17.06,0,34.12,0,51.18,0,5.89,0,10.27-3.47,11.46-8.97,1.26-5.85-2.93-11.96-8.84-12.95-1.72-.29-3.39-.18-5.06,.23-1.61,.4-2.59-.18-2.99-1.78-1.36-5.39-4.5-9.38-9.38-12.02-.67-.36-1.28-.76-1.46-1.55-.19-.84,0-1.61,.7-2.16,.73-.58,1.55-.6,2.36-.2,3.05,1.5,5.63,3.58,7.72,6.26,1.41,1.8,2.59,3.74,3.32,5.91,.28,.84,.71,1.05,1.54,.99,6.38-.42,11.3,2.15,14.5,7.61,2.91,4.97,2.88,10.18-.03,15.16-2.85,4.88-7.22,7.55-12.95,7.6-8.76,.07-17.53,.02-26.29,.02Z"/>
      <path class="cls-1" d="M57.08,27.64c0,.77,0,1.53,0,2.3-.05,3.46-2.87,6.25-6.36,6.29-3.49,.04-6.39-2.81-6.42-6.33-.02-1.6-.02-3.2,0-4.8,.05-3.44,2.91-6.15,6.46-6.14,3.46,.01,6.27,2.76,6.32,6.18,.01,.83,0,1.67,0,2.5Zm-4.16,.03s0,0,0,0c0-.67,.02-1.34,0-2-.05-1.49-.93-2.47-2.21-2.49-1.24-.01-2.16,.9-2.23,2.35-.07,1.37-.06,2.74,0,4.1,.06,1.39,1.04,2.37,2.25,2.35,1.21-.02,2.12-1,2.19-2.41,.03-.63,0-1.27,0-1.9Z"/>
      <path class="cls-1" d="M67.11,34.41c.77,0,1.26-.02,1.76,0,1.14,.07,1.96,.88,2.04,1.96,.08,1.03-.6,1.91-1.69,2.17-.26,.06-.53,.12-.79,.12-2.21,0-4.42,.04-6.62,0-1.27-.03-2.05-.59-2.35-1.53-.3-.95,.04-1.76,1.08-2.57,1.57-1.21,3.08-2.47,4.28-4.06,.34-.45,.72-.89,.77-1.49,.04-.47,.07-.98-.57-1.1-.57-.1-1.09-.02-1.32,.61-.1,.28-.14,.58-.23,.87-.32,1.05-1.24,1.65-2.3,1.52-1.03-.13-1.8-.96-1.8-2.07,.01-2.08,.96-3.69,2.8-4.64,1.97-1.01,3.99-.91,5.77,.44,1.67,1.26,2.21,3.06,1.85,5.08-.31,1.77-1.39,3.15-2.7,4.7Z"/>
      <path class="cls-1" d="M38.85,18.97c.63,0,1.27-.02,1.9,0,1.26,.05,2.08,.91,2.06,2.1-.02,1.15-.83,1.98-2.04,2.02-.97,.03-1.94,0-2.91,.02-1.27,.03-1.72,.44-1.73,1.67-.02,1.87-.02,3.74,0,5.6,.01,1.22,.41,1.58,1.65,1.6,.97,.01,1.94-.02,2.91,.02,1.24,.04,2.06,.83,2.12,1.96,.06,1.15-.64,2.05-1.87,2.2-1.63,.2-3.28,.24-4.89-.13-2.45-.56-4.16-2.7-4.2-5.21-.03-2.1-.02-4.2,0-6.3,.03-3.21,2.37-5.53,5.59-5.55,.47,0,.94,0,1.4,0h0Z"/>
      <path class="cls-1" d="M37.01,54.07c0,1,.01,2,0,3,0,.47,.11,.67,.63,.57,1.07-.19,1.94,.16,2.39,1.19,.45,1.02,.09,1.87-.67,2.62-.93,.91-1.83,1.85-2.78,2.75-1.09,1.04-2.2,1.05-3.28,.02-1.01-.97-2-1.97-2.98-2.97-.71-.72-.91-1.56-.47-2.48,.44-.92,1.23-1.32,2.23-1.14,.68,.12,.79-.13,.78-.72-.03-1.8-.02-3.61,0-5.41,.01-1.41,.84-2.29,2.1-2.28,1.22,.02,2.01,.88,2.05,2.24,0,.07,0,.13,0,.2,0,.8,0,1.6,0,2.4Z"/>
      <path class="cls-1" d="M65.78,54.12c0-.9-.01-1.8,0-2.7,.03-1.33,.87-2.2,2.09-2.19,1.22,.01,2.04,.87,2.05,2.23,.02,1.8,.03,3.61,0,5.41-.01,.63,.1,.91,.83,.77,.95-.18,1.72,.23,2.16,1.1,.45,.91,.28,1.77-.42,2.49-1.03,1.05-2.05,2.11-3.13,3.11-.96,.9-2.08,.89-3.05-.03-1.05-.98-2.05-2.02-3.06-3.04-.71-.71-.91-1.56-.48-2.48,.43-.93,1.23-1.33,2.22-1.15,.66,.11,.82-.09,.79-.71-.04-.93-.01-1.87,0-2.8Z"/>
    </g>
  </g>
</svg>